{"glyphs":{"0":{"ha":539,"x_min":35,"x_max":503,"o":"m 268 10 l 268 10 q 188 10 137 -32 q 85 -74 60 -156 q 35 -238 35 -356 l 35 -356 q 35 -475 59 -557 q 82 -639 134 -682 q 186 -725 269 -725 l 269 -725 q 350 -725 402 -682 q 453 -639 478 -557 q 503 -475 503 -357 l 503 -357 q 503 -274 491 -206 q 479 -139 452 -90 q 425 -42 380 -16 q 335 10 268 10 z m 269 -123 l 269 -123 q 289 -123 304 -136 q 318 -150 327 -179 q 335 -208 339 -252 q 343 -296 343 -357 l 343 -357 q 343 -418 339 -462 q 335 -507 327 -535 q 318 -564 304 -578 q 289 -592 269 -592 l 269 -592 q 248 -592 234 -578 q 220 -564 212 -535 q 203 -506 200 -461 q 196 -417 196 -357 l 196 -357 q 196 -296 200 -252 q 203 -208 211 -179 q 219 -151 234 -137 q 248 -123 269 -123 z"},"1":{"ha":539,"x_min":46,"x_max":411,"o":"m 411 -714 l 411 0 l 248 0 l 248 -391 q 248 -421 249 -460 q 250 -499 251 -531 l 251 -531 q 244 -522 231 -507 q 217 -493 203 -481 l 203 -481 l 131 -417 l 46 -515 l 270 -714 l 411 -714 z"},"2":{"ha":539,"x_min":29,"x_max":504,"o":"m 504 0 l 31 0 l 31 -111 l 202 -303 q 249 -355 276 -390 q 303 -425 315 -453 q 327 -482 327 -513 l 327 -513 q 327 -538 318 -554 q 309 -570 293 -578 q 276 -586 253 -586 l 253 -586 q 218 -586 183 -569 q 148 -552 111 -522 l 111 -522 l 29 -630 q 60 -655 95 -676 q 130 -698 173 -711 q 215 -724 269 -724 l 269 -724 q 337 -724 386 -698 q 435 -673 462 -629 q 489 -586 489 -531 l 489 -531 q 489 -475 470 -429 q 450 -383 411 -335 q 372 -288 312 -225 l 312 -225 l 235 -142 l 235 -137 l 504 -137 l 504 0 z"},"3":{"ha":539,"x_min":33,"x_max":498,"o":"m 228 10 l 228 10 q 172 10 124 1 q 75 -8 34 -25 l 34 -25 l 34 -163 q 77 -142 122 -131 q 166 -121 209 -121 l 209 -121 q 275 -121 304 -145 q 332 -170 332 -216 l 332 -216 q 332 -245 318 -264 q 304 -283 272 -293 q 239 -303 182 -303 l 182 -303 l 134 -303 l 134 -429 l 183 -429 q 237 -429 268 -440 q 298 -452 311 -472 q 323 -492 323 -519 l 323 -519 q 323 -554 302 -572 q 280 -591 236 -591 l 236 -591 q 196 -591 164 -577 q 131 -564 104 -547 l 104 -547 l 33 -657 q 80 -687 133 -705 q 185 -724 255 -724 l 255 -724 q 325 -724 376 -703 q 427 -683 455 -644 q 482 -605 482 -550 l 482 -550 q 482 -505 463 -470 q 444 -436 413 -412 q 381 -389 339 -376 l 339 -376 l 339 -373 q 416 -361 457 -319 q 498 -277 498 -205 l 498 -205 q 498 -144 469 -95 q 440 -46 381 -18 q 321 10 228 10 z"},"4":{"ha":539,"x_min":17,"x_max":524,"o":"m 447 0 l 289 0 l 289 -143 l 17 -143 l 17 -261 l 295 -714 l 447 -714 l 447 -269 l 524 -269 l 524 -143 l 447 -143 l 447 0 z m 248 -427 l 155 -269 l 289 -269 l 289 -389 q 289 -409 290 -434 q 290 -459 292 -479 q 293 -500 293 -509 l 293 -509 l 289 -509 q 281 -489 272 -469 q 262 -449 248 -427 l 248 -427 z"},"5":{"ha":539,"x_min":47,"x_max":496,"o":"m 226 10 l 226 10 q 175 10 129 1 q 82 -8 47 -25 l 47 -25 l 47 -164 q 81 -147 125 -135 q 168 -123 214 -123 l 214 -123 q 254 -123 281 -135 q 307 -147 320 -170 q 333 -194 333 -229 l 333 -229 q 333 -279 304 -305 q 274 -331 215 -331 l 215 -331 q 189 -331 163 -326 q 137 -321 117 -315 l 117 -315 l 58 -352 l 84 -714 l 452 -714 l 452 -576 l 223 -576 l 212 -452 q 228 -455 245 -457 q 261 -460 288 -460 l 288 -460 q 349 -460 396 -434 q 443 -408 470 -359 q 496 -310 496 -240 l 496 -240 q 496 -162 466 -106 q 436 -50 377 -20 q 317 10 226 10 z"},"6":{"ha":539,"x_min":32,"x_max":509,"o":"m 279 10 l 279 10 q 226 10 181 -9 q 136 -29 103 -68 q 69 -107 51 -166 q 32 -226 32 -307 l 32 -307 q 32 -368 41 -427 q 49 -487 70 -540 q 91 -594 129 -635 q 167 -676 226 -699 q 284 -723 367 -723 l 367 -723 q 391 -723 417 -721 q 443 -720 465 -715 l 465 -715 l 465 -583 q 445 -588 423 -590 q 400 -592 377 -592 l 377 -592 q 305 -592 263 -567 q 221 -543 203 -497 q 184 -451 181 -387 l 181 -387 l 186 -387 q 199 -412 218 -430 q 236 -449 263 -459 q 289 -470 323 -470 l 323 -470 q 382 -470 424 -443 q 465 -416 487 -364 q 509 -313 509 -241 l 509 -241 q 509 -163 481 -106 q 453 -50 402 -20 q 351 10 279 10 z m 275 -122 l 275 -122 q 309 -122 331 -149 q 352 -177 352 -237 l 352 -237 q 352 -287 334 -314 q 315 -342 277 -342 l 277 -342 q 251 -342 232 -329 q 213 -317 203 -296 q 193 -275 193 -251 l 193 -251 q 193 -226 198 -202 q 203 -179 214 -161 q 224 -143 239 -132 q 254 -122 275 -122 z"},"7":{"ha":539,"x_min":26,"x_max":507,"o":"m 267 0 l 96 0 l 337 -576 l 26 -576 l 26 -713 l 507 -713 l 507 -610 l 267 0 z"},"8":{"ha":539,"x_min":31,"x_max":508,"o":"m 269 10 l 269 10 q 191 10 138 -13 q 85 -37 58 -80 q 31 -124 31 -184 l 31 -184 q 31 -229 46 -263 q 61 -298 90 -325 q 118 -352 156 -373 l 156 -373 q 126 -395 102 -421 q 78 -447 64 -479 q 50 -511 50 -551 l 50 -551 q 50 -607 79 -645 q 108 -684 158 -703 q 208 -723 270 -723 l 270 -723 q 334 -723 383 -703 q 432 -684 460 -645 q 488 -607 488 -551 l 488 -551 q 488 -508 473 -476 q 458 -444 432 -419 q 406 -395 371 -376 l 371 -376 q 409 -353 440 -326 q 471 -299 490 -265 q 508 -231 508 -187 l 508 -187 q 508 -128 480 -83 q 451 -39 398 -14 q 344 10 269 10 z m 268 -111 l 268 -111 q 313 -111 334 -132 q 354 -154 354 -188 l 354 -188 q 354 -210 344 -228 q 334 -247 317 -263 q 299 -279 278 -293 l 278 -293 l 265 -302 q 240 -287 222 -270 q 203 -253 194 -234 q 184 -215 184 -191 l 184 -191 q 184 -155 205 -133 q 226 -111 268 -111 z m 269 -448 l 269 -448 q 287 -459 302 -472 q 317 -485 326 -501 q 334 -518 334 -539 l 334 -539 q 334 -569 317 -585 q 299 -602 269 -602 l 269 -602 q 241 -602 223 -585 q 204 -569 204 -539 l 204 -539 q 204 -519 213 -502 q 221 -486 236 -473 q 251 -460 269 -448 z"},"9":{"ha":539,"x_min":29,"x_max":506,"o":"m 171 10 l 171 10 q 147 10 121 8 q 94 6 73 2 l 73 2 l 73 -131 q 93 -126 116 -123 q 138 -121 161 -121 l 161 -121 q 216 -121 253 -135 q 290 -149 312 -176 q 334 -203 345 -241 q 356 -279 358 -326 l 358 -326 l 353 -326 q 340 -301 322 -282 q 304 -264 278 -253 q 251 -243 213 -243 l 213 -243 q 156 -243 115 -270 q 74 -298 52 -349 q 29 -400 29 -473 l 29 -473 q 29 -550 57 -606 q 85 -663 137 -693 q 188 -723 259 -723 l 259 -723 q 312 -723 357 -704 q 402 -685 436 -645 q 469 -606 488 -546 q 506 -486 506 -404 l 506 -404 q 506 -344 498 -284 q 489 -224 468 -171 q 446 -118 408 -77 q 370 -36 312 -13 q 253 10 171 10 z m 262 -371 l 262 -371 q 290 -371 308 -385 q 326 -399 336 -420 q 346 -442 346 -463 l 346 -463 q 346 -483 342 -505 q 337 -527 328 -546 q 318 -566 303 -578 q 287 -591 264 -591 l 264 -591 q 230 -591 209 -564 q 187 -537 187 -476 l 187 -476 q 187 -426 206 -398 q 224 -371 262 -371 z"},"\r":{"ha":277,"x_min":0,"x_max":0,"o":""}," ":{"ha":277,"x_min":0,"x_max":0,"o":""},"ഀ":{"ha":0,"x_min":-443,"x_max":-112,"o":"m -443 -711 l -443 -711 q -443 -778 -399 -821 q -356 -864 -278 -864 l -278 -864 q -200 -864 -156 -821 q -112 -778 -112 -711 l -112 -711 q -112 -645 -155 -601 q -198 -557 -278 -557 l -278 -557 q -358 -557 -400 -600 q -443 -644 -443 -711 z m -334 -711 l -334 -711 q -334 -685 -321 -667 q -308 -649 -278 -649 l -278 -649 q -248 -649 -234 -667 q -221 -686 -221 -711 l -221 -711 q -221 -738 -236 -755 q -251 -773 -278 -773 l -278 -773 q -308 -773 -321 -755 q -334 -737 -334 -711 z"},"ഁ":{"ha":0,"x_min":-469,"x_max":-88,"o":"m -278 -634 l -278 -634 q -375 -634 -422 -680 q -469 -726 -469 -802 l -469 -802 q -469 -822 -466 -837 q -464 -852 -461 -864 l -461 -864 l -366 -847 q -369 -837 -370 -827 q -371 -817 -371 -808 l -371 -808 q -371 -777 -359 -758 q -347 -740 -326 -732 q -305 -725 -278 -725 l -278 -725 q -255 -725 -233 -732 q -212 -739 -198 -758 q -185 -777 -185 -810 l -185 -810 q -185 -818 -186 -827 q -187 -837 -190 -848 l -190 -848 l -95 -863 q -92 -851 -90 -836 q -88 -821 -88 -804 l -88 -804 q -88 -724 -134 -679 q -181 -634 -278 -634 z m -279 -750 l -279 -750 q -311 -750 -324 -765 q -338 -781 -338 -807 l -338 -807 q -338 -830 -325 -846 q -312 -862 -279 -862 l -279 -862 q -246 -862 -232 -846 q -219 -830 -219 -806 l -219 -806 q -219 -781 -233 -765 q -247 -750 -279 -750 z"},"ം":{"ha":482,"x_min":28,"x_max":454,"o":"m 241 12 l 241 12 q 174 12 126 -12 q 78 -37 53 -81 q 28 -125 28 -182 l 28 -182 q 28 -241 54 -284 q 80 -328 128 -352 q 175 -377 240 -377 l 240 -377 q 307 -377 355 -353 q 402 -329 428 -285 q 454 -242 454 -182 l 454 -182 q 454 -124 429 -80 q 403 -36 356 -12 q 308 12 241 12 z m 240 -266 l 240 -266 q 211 -266 192 -246 q 172 -226 172 -181 l 172 -181 q 172 -139 192 -118 q 211 -98 241 -98 l 241 -98 q 270 -98 290 -118 q 310 -138 310 -182 l 310 -182 q 310 -226 291 -246 q 271 -266 240 -266 z"},"ഃ":{"ha":352,"x_min":28,"x_max":324,"o":"m 28 -438 l 28 -438 q 28 -498 68 -537 q 107 -577 175 -577 l 175 -577 q 245 -577 285 -538 q 324 -499 324 -438 l 324 -438 q 324 -379 285 -339 q 246 -300 176 -300 l 176 -300 q 106 -300 67 -339 q 28 -378 28 -438 z m 131 -439 l 131 -439 q 131 -416 143 -402 q 154 -388 176 -388 l 176 -388 q 198 -388 210 -402 q 221 -416 221 -439 l 221 -439 q 221 -462 209 -475 q 197 -488 176 -488 l 176 -488 q 154 -488 143 -475 q 131 -462 131 -439 z m 28 -127 l 28 -127 q 28 -187 68 -226 q 107 -266 175 -266 l 175 -266 q 244 -266 284 -226 q 324 -187 324 -127 l 324 -127 q 324 -67 285 -27 q 246 12 176 12 l 176 12 q 106 12 67 -27 q 28 -67 28 -127 z m 131 -127 l 131 -127 q 131 -104 143 -90 q 154 -77 176 -77 l 176 -77 q 198 -77 210 -90 q 221 -104 221 -127 l 221 -127 q 221 -150 209 -163 q 197 -177 176 -177 l 176 -177 q 154 -177 143 -163 q 131 -150 131 -127 z"},"ഄ":{"ha":619,"x_min":32,"x_max":588,"o":"m 50 -347 l 50 -347 l 193 -322 q 187 -299 184 -275 q 181 -251 181 -230 l 181 -230 q 181 -167 213 -136 q 245 -105 309 -105 l 309 -105 q 375 -105 407 -136 q 439 -167 439 -230 l 439 -230 q 439 -250 436 -274 q 433 -299 426 -322 l 426 -322 l 569 -347 q 576 -323 582 -290 q 588 -258 588 -226 l 588 -226 q 588 -156 562 -103 q 536 -50 475 -20 q 414 9 309 9 l 309 9 q 205 9 144 -20 q 83 -50 58 -103 q 32 -156 32 -226 l 32 -226 q 32 -259 38 -291 q 43 -323 50 -347 z m 250 -190 l 250 -422 l 369 -422 l 369 -190 l 250 -190 z"},"അ":{"ha":1553,"x_min":35,"x_max":1520,"o":"m 382 -577 l 382 -577 q 435 -577 489 -569 q 542 -561 593 -540 l 593 -540 q 605 -536 613 -527 q 620 -519 631 -514 l 631 -514 q 662 -502 691 -483 q 720 -464 739 -437 q 757 -410 757 -372 l 757 -372 q 757 -346 749 -324 q 740 -303 721 -286 q 702 -269 670 -255 l 670 -255 l 668 -268 q 715 -252 742 -219 q 769 -186 769 -138 l 769 -138 q 769 -98 749 -64 q 729 -30 683 -9 q 636 12 555 12 l 555 12 q 464 12 409 -21 q 354 -54 329 -110 q 304 -167 304 -239 l 304 -239 q 304 -299 322 -350 q 340 -401 377 -442 q 413 -484 466 -515 l 466 -515 q 474 -519 481 -526 q 488 -533 497 -537 l 497 -537 q 538 -557 588 -567 q 637 -577 690 -577 l 690 -577 q 754 -577 799 -565 q 844 -553 878 -530 q 912 -508 940 -477 l 940 -477 l 1005 -218 l 1005 0 l 848 0 l 848 -262 q 848 -330 838 -371 q 827 -413 796 -438 l 796 -438 q 777 -454 751 -462 q 724 -470 689 -470 l 689 -470 q 664 -470 641 -466 q 618 -462 600 -457 l 600 -457 q 564 -447 537 -426 q 509 -406 490 -377 q 471 -348 461 -313 q 451 -278 451 -240 l 451 -240 q 451 -162 477 -130 q 503 -99 549 -99 l 549 -99 q 582 -99 600 -111 q 617 -124 617 -149 l 617 -149 q 617 -173 599 -187 q 580 -202 541 -202 l 541 -202 l 518 -202 l 518 -313 l 534 -313 q 573 -313 590 -329 q 607 -345 607 -371 l 607 -371 q 607 -400 583 -422 q 558 -445 501 -454 l 501 -454 q 477 -462 450 -465 q 423 -469 393 -469 l 393 -469 q 323 -469 279 -445 q 235 -422 215 -380 q 194 -339 194 -285 l 194 -285 q 194 -240 205 -202 q 215 -165 235 -130 q 255 -96 284 -61 l 284 -61 l 170 12 q 131 -26 101 -69 q 70 -113 53 -166 q 35 -220 35 -288 l 35 -288 q 35 -338 52 -388 q 69 -439 108 -482 q 147 -525 215 -551 q 282 -577 382 -577 z m 1290 12 l 1290 12 q 1215 12 1169 -17 q 1123 -47 1102 -96 q 1080 -146 1080 -205 l 1080 -205 q 1080 -300 1128 -354 q 1176 -409 1266 -409 l 1266 -409 q 1320 -409 1361 -380 q 1401 -352 1426 -307 q 1451 -263 1457 -214 l 1457 -214 l 1397 -212 q 1392 -236 1380 -256 q 1367 -277 1349 -290 q 1330 -304 1304 -304 l 1304 -304 q 1267 -304 1250 -278 q 1232 -253 1232 -202 l 1232 -202 q 1232 -169 1239 -146 q 1246 -124 1261 -112 q 1275 -101 1295 -101 l 1295 -101 q 1319 -101 1335 -114 q 1350 -128 1359 -158 q 1367 -188 1367 -237 l 1367 -237 q 1367 -253 1366 -271 q 1364 -290 1362 -307 l 1362 -307 q 1361 -311 1363 -318 q 1364 -325 1362 -329 l 1362 -329 q 1357 -364 1333 -394 q 1309 -424 1268 -443 q 1226 -462 1168 -462 l 1168 -462 q 1129 -462 1104 -455 q 1079 -448 1058 -432 l 1058 -432 q 1039 -418 1027 -396 q 1015 -375 1010 -342 q 1005 -309 1005 -259 l 1005 -259 l 1005 -187 l 897 -459 q 927 -494 964 -520 q 1000 -547 1050 -562 q 1100 -577 1170 -577 l 1170 -577 q 1257 -577 1323 -550 q 1388 -524 1432 -477 q 1476 -430 1498 -368 q 1520 -307 1520 -237 l 1520 -237 q 1520 -152 1493 -96 q 1466 -41 1415 -14 q 1364 12 1290 12 z"},"ആ":{"ha":1715,"x_min":35,"x_max":1691,"o":"m 382 -577 l 382 -577 q 435 -577 489 -569 q 542 -561 593 -540 l 593 -540 q 605 -536 613 -527 q 620 -519 631 -514 l 631 -514 q 662 -502 691 -483 q 720 -464 739 -437 q 757 -410 757 -372 l 757 -372 q 757 -346 749 -324 q 740 -303 721 -286 q 702 -269 670 -255 l 670 -255 l 668 -268 q 715 -252 742 -219 q 769 -186 769 -138 l 769 -138 q 769 -98 749 -64 q 729 -30 683 -9 q 636 12 555 12 l 555 12 q 464 12 409 -21 q 354 -54 329 -110 q 304 -167 304 -239 l 304 -239 q 304 -299 322 -350 q 340 -401 377 -442 q 413 -484 466 -515 l 466 -515 q 474 -519 481 -526 q 488 -533 497 -537 l 497 -537 q 538 -557 588 -567 q 637 -577 690 -577 l 690 -577 q 754 -577 799 -565 q 844 -553 878 -530 q 912 -508 940 -477 l 940 -477 l 1005 -224 l 1005 0 l 848 0 l 848 -262 q 848 -330 838 -371 q 827 -413 796 -438 l 796 -438 q 777 -454 751 -462 q 724 -470 689 -470 l 689 -470 q 664 -470 641 -466 q 618 -462 600 -457 l 600 -457 q 564 -447 537 -426 q 509 -406 490 -377 q 471 -348 461 -313 q 451 -278 451 -240 l 451 -240 q 451 -162 477 -130 q 503 -99 549 -99 l 549 -99 q 582 -99 600 -111 q 617 -124 617 -149 l 617 -149 q 617 -173 599 -187 q 580 -202 541 -202 l 541 -202 l 518 -202 l 518 -313 l 534 -313 q 573 -313 590 -329 q 607 -345 607 -371 l 607 -371 q 607 -400 583 -422 q 558 -445 501 -454 l 501 -454 q 477 -462 450 -465 q 423 -469 393 -469 l 393 -469 q 323 -469 279 -445 q 235 -422 215 -380 q 194 -339 194 -285 l 194 -285 q 194 -240 205 -202 q 215 -165 235 -130 q 255 -96 284 -61 l 284 -61 l 170 12 q 131 -26 101 -69 q 70 -113 53 -166 q 35 -220 35 -288 l 35 -288 q 35 -338 52 -388 q 69 -439 108 -482 q 147 -525 215 -551 q 282 -577 382 -577 z m 1162 -577 l 1162 -577 q 1252 -577 1319 -546 q 1386 -516 1428 -462 q 1470 -408 1485 -337 l 1485 -337 q 1490 -312 1493 -286 q 1495 -260 1495 -232 l 1495 -232 q 1495 -149 1471 -94 q 1446 -40 1397 -14 q 1347 12 1273 12 l 1273 12 q 1206 12 1160 -13 q 1113 -39 1090 -83 q 1066 -127 1066 -185 l 1066 -185 q 1066 -291 1140 -348 q 1213 -405 1343 -405 l 1343 -405 q 1363 -405 1379 -404 q 1394 -404 1406 -402 l 1406 -402 l 1442 -399 q 1519 -386 1575 -345 q 1630 -305 1661 -243 q 1691 -181 1691 -101 l 1691 -101 q 1691 -42 1675 13 q 1658 67 1621 110 q 1583 152 1521 177 q 1458 201 1367 201 l 1367 201 q 1323 201 1283 195 q 1243 189 1207 176 l 1207 176 l 1248 67 q 1278 77 1305 81 q 1331 84 1363 84 l 1363 84 q 1418 84 1454 67 q 1489 50 1508 22 q 1527 -6 1535 -39 q 1542 -72 1542 -103 l 1542 -103 q 1542 -150 1532 -185 q 1522 -220 1502 -244 q 1481 -269 1450 -284 l 1450 -284 l 1411 -291 q 1397 -294 1381 -295 q 1365 -297 1348 -297 l 1348 -297 q 1302 -297 1273 -282 q 1244 -268 1231 -242 q 1218 -216 1218 -182 l 1218 -182 q 1218 -156 1225 -138 q 1232 -120 1245 -110 q 1258 -100 1278 -100 l 1278 -100 q 1313 -100 1331 -128 q 1349 -157 1349 -232 l 1349 -232 q 1349 -264 1345 -292 q 1340 -321 1331 -345 l 1331 -345 l 1321 -376 q 1305 -404 1282 -423 q 1258 -442 1228 -452 q 1197 -462 1158 -462 l 1158 -462 q 1127 -462 1103 -455 q 1078 -448 1057 -432 l 1057 -432 q 1039 -418 1027 -396 q 1015 -375 1010 -341 q 1005 -308 1005 -258 l 1005 -258 l 1005 -212 l 897 -459 q 926 -494 963 -520 q 999 -547 1048 -562 q 1096 -577 1162 -577 z"},"ഇ":{"ha":993,"x_min":33,"x_max":958,"o":"m 338 -577 l 338 -577 q 401 -577 445 -564 q 489 -552 520 -531 q 550 -510 574 -485 l 574 -485 l 528 -494 q 563 -538 612 -557 q 661 -577 718 -577 l 718 -577 q 780 -577 826 -556 q 871 -535 900 -498 q 929 -461 944 -413 q 958 -366 958 -314 l 958 -314 q 958 -223 935 -163 q 912 -103 862 -64 l 862 -64 q 835 -42 799 -28 q 762 -14 712 -7 q 661 0 588 0 l 588 0 l 299 0 q 261 0 244 2 q 227 4 217 9 l 217 9 q 206 15 201 23 q 196 31 196 42 l 196 42 q 196 53 200 61 q 204 69 213 75 l 213 75 q 223 82 241 85 q 259 88 299 88 l 299 88 l 940 88 l 940 203 l 289 203 q 225 203 182 196 q 138 188 108 171 l 108 171 q 75 152 57 121 q 38 90 38 48 l 38 48 q 38 7 55 -24 q 71 -55 102 -75 l 102 -75 q 122 -89 147 -97 q 172 -105 207 -109 q 241 -113 290 -113 l 290 -113 l 550 -113 q 611 -113 650 -118 q 688 -124 712 -135 q 736 -146 753 -161 l 753 -161 q 780 -186 790 -223 q 800 -260 800 -307 l 800 -307 q 800 -348 790 -383 q 779 -419 757 -441 q 735 -463 699 -463 l 699 -463 q 684 -463 671 -458 q 657 -453 648 -441 l 648 -441 q 636 -428 630 -403 q 624 -379 624 -331 l 624 -331 l 624 -152 l 470 -152 l 470 -299 q 470 -355 461 -387 q 451 -419 430 -436 l 430 -436 q 414 -450 391 -457 q 367 -465 329 -465 l 329 -465 q 303 -465 280 -461 q 256 -457 235 -448 q 214 -440 198 -426 q 182 -412 172 -394 l 172 -394 q 168 -385 167 -374 q 165 -364 164 -355 l 164 -355 q 163 -347 162 -335 q 161 -323 161 -309 l 161 -309 q 161 -271 176 -250 q 190 -230 215 -230 l 215 -230 q 240 -230 251 -246 q 262 -262 262 -286 l 262 -286 q 262 -303 257 -315 q 251 -327 240 -333 q 229 -340 213 -340 l 213 -340 q 190 -340 171 -332 q 152 -325 130 -313 l 130 -313 l 63 -338 q 82 -360 112 -381 q 141 -402 177 -415 q 212 -429 248 -429 l 248 -429 q 302 -429 337 -410 q 371 -391 388 -358 q 404 -326 404 -285 l 404 -285 q 404 -244 387 -208 q 369 -173 328 -151 q 287 -130 220 -130 l 220 -130 q 165 -130 123 -152 q 81 -175 57 -218 q 33 -262 33 -326 l 33 -326 q 33 -397 69 -453 q 105 -510 173 -543 q 241 -577 338 -577 z"},"ഈ":{"ha":1774,"x_min":33,"x_max":1739,"o":"m 338 -577 l 338 -577 q 401 -577 445 -564 q 489 -552 520 -531 q 550 -510 574 -485 l 574 -485 l 528 -494 q 563 -538 612 -557 q 661 -577 718 -577 l 718 -577 q 780 -577 826 -556 q 871 -535 900 -498 q 929 -461 944 -413 q 958 -366 958 -314 l 958 -314 q 958 -223 935 -163 q 912 -103 862 -64 l 862 -64 q 835 -42 799 -28 q 762 -14 712 -7 q 661 0 588 0 l 588 0 l 299 0 q 261 0 244 2 q 227 4 217 9 l 217 9 q 206 15 201 23 q 196 31 196 42 l 196 42 q 196 53 200 61 q 204 69 213 75 l 213 75 q 223 82 241 85 q 259 88 299 88 l 299 88 l 940 88 l 940 203 l 289 203 q 225 203 182 196 q 138 188 108 171 l 108 171 q 75 152 57 121 q 38 90 38 48 l 38 48 q 38 7 55 -24 q 71 -55 102 -75 l 102 -75 q 122 -89 147 -97 q 172 -105 207 -109 q 241 -113 290 -113 l 290 -113 l 550 -113 q 611 -113 650 -118 q 688 -124 712 -135 q 736 -146 753 -161 l 753 -161 q 780 -186 790 -223 q 800 -260 800 -307 l 800 -307 q 800 -348 790 -383 q 779 -419 757 -441 q 735 -463 699 -463 l 699 -463 q 684 -463 671 -458 q 657 -453 648 -441 l 648 -441 q 636 -428 630 -403 q 624 -379 624 -331 l 624 -331 l 624 -152 l 470 -152 l 470 -299 q 470 -355 461 -387 q 451 -419 430 -436 l 430 -436 q 414 -450 391 -457 q 367 -465 329 -465 l 329 -465 q 303 -465 280 -461 q 256 -457 235 -448 q 214 -440 198 -426 q 182 -412 172 -394 l 172 -394 q 168 -385 167 -374 q 165 -364 164 -355 l 164 -355 q 163 -347 162 -335 q 161 -323 161 -309 l 161 -309 q 161 -271 176 -250 q 190 -230 215 -230 l 215 -230 q 240 -230 251 -246 q 262 -262 262 -286 l 262 -286 q 262 -303 257 -315 q 251 -327 240 -333 q 229 -340 213 -340 l 213 -340 q 190 -340 171 -332 q 152 -325 130 -313 l 130 -313 l 63 -338 q 82 -360 112 -381 q 141 -402 177 -415 q 212 -429 248 -429 l 248 -429 q 302 -429 337 -410 q 371 -391 388 -358 q 404 -326 404 -285 l 404 -285 q 404 -244 387 -208 q 369 -173 328 -151 q 287 -130 220 -130 l 220 -130 q 165 -130 123 -152 q 81 -175 57 -218 q 33 -262 33 -326 l 33 -326 q 33 -397 69 -453 q 105 -510 173 -543 q 241 -577 338 -577 z m 1518 -577 l 1518 -577 q 1587 -577 1637 -544 q 1686 -512 1713 -452 q 1739 -393 1739 -310 l 1739 -310 q 1739 -207 1706 -135 q 1673 -63 1607 -25 q 1540 12 1439 12 l 1439 12 q 1365 12 1310 -1 q 1254 -14 1203 -40 l 1203 -40 l 1260 -145 q 1302 -125 1340 -114 q 1378 -104 1424 -104 l 1424 -104 q 1482 -104 1516 -127 q 1550 -151 1565 -196 q 1580 -242 1580 -308 l 1580 -308 q 1580 -389 1559 -426 q 1538 -464 1505 -464 l 1505 -464 q 1491 -464 1482 -458 q 1472 -453 1466 -444 l 1466 -444 q 1459 -432 1456 -415 q 1453 -399 1453 -365 l 1453 -365 l 1453 -266 l 1298 -266 l 1298 -347 q 1298 -385 1295 -407 q 1292 -430 1284 -442 l 1284 -442 q 1277 -454 1266 -459 q 1255 -464 1243 -464 l 1243 -464 q 1212 -464 1195 -440 q 1178 -417 1178 -382 l 1178 -382 q 1178 -353 1183 -330 q 1187 -308 1192 -290 l 1192 -290 l 1042 -257 q 1032 -286 1027 -320 q 1022 -355 1022 -384 l 1022 -384 q 1022 -435 1044 -478 q 1065 -522 1111 -549 q 1156 -577 1227 -577 l 1227 -577 q 1283 -577 1320 -560 q 1356 -543 1383 -513 l 1383 -513 l 1365 -513 q 1394 -548 1432 -562 q 1469 -577 1518 -577 z"},"ഉ":{"ha":715,"x_min":33,"x_max":681,"o":"m 355 -577 l 355 -577 q 444 -577 506 -554 q 568 -531 607 -491 q 646 -451 664 -401 q 681 -351 681 -296 l 681 -296 q 681 -220 660 -164 q 638 -108 595 -73 l 595 -73 q 562 -46 522 -30 q 481 -14 428 -7 q 375 0 306 0 l 306 0 l 290 0 q 258 0 243 2 q 227 4 217 9 l 217 9 q 206 14 201 23 q 196 31 196 42 l 196 42 q 196 53 200 61 q 204 69 213 75 l 213 75 q 223 82 241 85 q 259 88 299 88 l 299 88 l 663 88 l 663 203 l 289 203 q 225 203 182 196 q 138 188 108 171 l 108 171 q 75 152 57 121 q 38 90 38 48 l 38 48 q 38 7 55 -24 q 71 -56 102 -76 l 102 -76 q 132 -96 173 -104 q 214 -113 276 -113 l 276 -113 l 281 -113 q 339 -113 378 -118 q 416 -124 441 -135 q 465 -147 481 -164 l 481 -164 q 504 -188 513 -221 q 522 -255 522 -294 l 522 -294 q 522 -329 512 -359 q 502 -389 481 -413 q 459 -437 425 -450 q 391 -464 344 -464 l 344 -464 q 310 -464 282 -459 q 254 -454 231 -444 q 208 -434 192 -418 q 176 -403 167 -382 l 167 -382 q 164 -376 165 -369 q 165 -363 164 -356 l 164 -356 q 163 -348 162 -336 q 161 -325 161 -309 l 161 -309 q 161 -271 176 -250 q 190 -230 215 -230 l 215 -230 q 240 -230 251 -246 q 262 -262 262 -286 l 262 -286 q 262 -303 257 -315 q 251 -327 240 -333 q 229 -340 213 -340 l 213 -340 q 190 -340 170 -332 q 150 -325 129 -313 l 129 -313 l 63 -338 q 82 -360 112 -381 q 141 -402 177 -415 q 212 -429 248 -429 l 248 -429 q 302 -429 337 -410 q 371 -391 388 -358 q 404 -326 404 -285 l 404 -285 q 404 -244 387 -208 q 369 -173 328 -151 q 287 -130 220 -130 l 220 -130 q 165 -130 123 -152 q 81 -174 57 -217 q 33 -261 33 -324 l 33 -324 q 33 -375 54 -421 q 75 -467 116 -502 q 156 -538 216 -557 q 276 -577 355 -577 z"},"ഊ":{"ha":1495,"x_min":33,"x_max":1460,"o":"m 355 -577 l 355 -577 q 444 -577 506 -554 q 568 -531 607 -491 q 646 -451 664 -401 q 681 -351 681 -296 l 681 -296 q 681 -220 660 -164 q 638 -108 595 -73 l 595 -73 q 562 -46 522 -30 q 481 -14 428 -7 q 375 0 306 0 l 306 0 l 290 0 q 258 0 243 2 q 227 4 217 9 l 217 9 q 206 14 201 23 q 196 31 196 42 l 196 42 q 196 53 200 61 q 204 69 213 75 l 213 75 q 223 82 241 85 q 259 88 299 88 l 299 88 l 663 88 l 663 203 l 289 203 q 225 203 182 196 q 138 188 108 171 l 108 171 q 75 152 57 121 q 38 90 38 48 l 38 48 q 38 7 55 -24 q 71 -56 102 -76 l 102 -76 q 132 -96 173 -104 q 214 -113 276 -113 l 276 -113 l 281 -113 q 339 -113 378 -118 q 416 -124 441 -135 q 465 -147 481 -164 l 481 -164 q 504 -188 513 -221 q 522 -255 522 -294 l 522 -294 q 522 -329 512 -359 q 502 -389 481 -413 q 459 -437 425 -450 q 391 -464 344 -464 l 344 -464 q 310 -464 282 -459 q 254 -454 231 -444 q 208 -434 192 -418 q 176 -403 167 -382 l 167 -382 q 164 -376 165 -369 q 165 -363 164 -356 l 164 -356 q 163 -348 162 -336 q 161 -325 161 -309 l 161 -309 q 161 -271 176 -250 q 190 -230 215 -230 l 215 -230 q 240 -230 251 -246 q 262 -262 262 -286 l 262 -286 q 262 -303 257 -315 q 251 -327 240 -333 q 229 -340 213 -340 l 213 -340 q 190 -340 170 -332 q 150 -325 129 -313 l 129 -313 l 63 -338 q 82 -360 112 -381 q 141 -402 177 -415 q 212 -429 248 -429 l 248 -429 q 302 -429 337 -410 q 371 -391 388 -358 q 404 -326 404 -285 l 404 -285 q 404 -244 387 -208 q 369 -173 328 -151 q 287 -130 220 -130 l 220 -130 q 165 -130 123 -152 q 81 -174 57 -217 q 33 -261 33 -324 l 33 -324 q 33 -375 54 -421 q 75 -467 116 -502 q 156 -538 216 -557 q 276 -577 355 -577 z m 1239 -577 l 1239 -577 q 1308 -577 1358 -544 q 1407 -512 1434 -452 q 1460 -393 1460 -310 l 1460 -310 q 1460 -207 1427 -135 q 1394 -63 1328 -25 q 1261 12 1160 12 l 1160 12 q 1086 12 1031 -1 q 975 -14 924 -40 l 924 -40 l 981 -145 q 1023 -125 1061 -114 q 1099 -104 1145 -104 l 1145 -104 q 1203 -104 1237 -127 q 1271 -151 1286 -196 q 1301 -242 1301 -308 l 1301 -308 q 1301 -389 1280 -426 q 1259 -464 1226 -464 l 1226 -464 q 1212 -464 1203 -458 q 1193 -453 1187 -444 l 1187 -444 q 1180 -432 1177 -415 q 1174 -399 1174 -365 l 1174 -365 l 1174 -266 l 1019 -266 l 1019 -347 q 1019 -385 1016 -407 q 1013 -430 1005 -442 l 1005 -442 q 998 -454 987 -459 q 976 -464 964 -464 l 964 -464 q 933 -464 916 -440 q 899 -417 899 -382 l 899 -382 q 899 -353 904 -330 q 908 -308 913 -290 l 913 -290 l 763 -257 q 753 -286 748 -320 q 743 -355 743 -384 l 743 -384 q 743 -435 765 -478 q 786 -522 832 -549 q 877 -577 948 -577 l 948 -577 q 1004 -577 1041 -560 q 1077 -543 1104 -513 l 1104 -513 l 1086 -513 q 1115 -548 1153 -562 q 1190 -577 1239 -577 z"},"ഋ":{"ha":953,"x_min":31,"x_max":922,"o":"m 702 -577 l 702 -577 q 804 -577 863 -516 q 922 -456 922 -345 l 922 -345 q 922 -275 897 -223 q 871 -171 825 -136 l 825 -136 q 779 -99 718 -81 q 656 -63 579 -63 l 579 -63 l 379 -63 q 328 -63 284 -70 q 239 -78 202 -93 q 164 -109 134 -134 l 134 -134 q 85 -169 58 -222 q 31 -275 31 -346 l 31 -346 q 31 -417 59 -468 q 86 -520 137 -548 q 187 -577 258 -577 l 258 -577 q 322 -577 367 -553 q 411 -530 433 -489 q 455 -449 455 -399 l 455 -399 q 455 -339 433 -300 q 410 -261 368 -243 q 325 -225 267 -225 l 267 -225 q 228 -225 192 -240 q 155 -256 127 -279 q 98 -302 79 -324 l 79 -324 l 117 -421 q 135 -394 153 -373 q 170 -352 191 -339 q 211 -327 239 -327 l 239 -327 q 267 -327 286 -344 q 305 -361 305 -403 l 305 -403 q 305 -435 289 -452 q 273 -470 249 -470 l 249 -470 q 227 -470 210 -457 q 193 -444 184 -419 q 175 -395 175 -357 l 175 -357 q 175 -339 177 -323 q 179 -307 183 -293 l 183 -293 l 180 -269 q 194 -237 222 -217 q 250 -198 288 -187 q 326 -177 368 -173 q 410 -169 451 -169 l 451 -169 l 503 -169 q 541 -169 583 -172 q 625 -175 664 -185 q 702 -196 732 -216 q 761 -236 774 -269 l 774 -269 l 772 -293 q 775 -306 777 -322 q 779 -338 779 -357 l 779 -357 q 779 -395 770 -419 q 761 -444 745 -457 q 729 -470 707 -470 l 707 -470 q 681 -470 666 -452 q 650 -434 650 -400 l 650 -400 q 650 -360 668 -343 q 686 -327 714 -327 l 714 -327 q 743 -327 764 -339 q 784 -352 802 -373 q 819 -394 837 -421 l 837 -421 l 875 -324 q 857 -302 828 -279 q 799 -256 763 -240 q 727 -225 685 -225 l 685 -225 q 628 -225 586 -243 q 544 -261 522 -299 q 499 -337 499 -396 l 499 -396 q 499 -448 523 -489 q 546 -530 592 -553 q 637 -577 702 -577 z m 481 255 l 481 255 q 357 255 272 235 q 187 214 144 169 q 100 124 100 51 l 100 51 q 100 0 126 -34 q 152 -69 197 -90 q 241 -111 297 -120 q 352 -129 412 -129 l 412 -129 l 540 -129 q 601 -129 658 -120 q 714 -111 758 -90 q 802 -69 828 -34 q 853 0 853 52 l 853 52 q 853 120 813 165 q 773 210 691 233 q 608 255 481 255 z m 479 137 l 479 137 q 554 137 601 127 q 648 116 671 95 q 693 74 693 41 l 693 41 q 693 11 677 -7 q 660 -25 631 -35 q 602 -46 566 -50 q 529 -54 488 -54 l 488 -54 l 467 -54 q 410 -54 363 -46 q 315 -38 288 -17 q 261 3 261 40 l 261 40 q 261 74 284 96 q 306 117 354 127 q 402 137 479 137 z"},"ഌ":{"ha":1221,"x_min":35,"x_max":1187,"o":"m 378 -577 l 378 -577 q 461 -577 518 -553 q 575 -530 622 -478 l 622 -478 l 648 -394 l 672 -241 l 672 0 l 515 0 l 515 -280 q 515 -350 505 -382 q 495 -415 475 -433 l 475 -433 q 459 -447 436 -455 q 412 -463 376 -463 l 376 -463 q 321 -463 276 -438 q 230 -414 203 -365 q 176 -316 176 -242 l 176 -242 l 176 -236 q 176 -180 186 -150 q 195 -120 211 -108 q 227 -96 246 -96 l 246 -96 q 263 -96 274 -104 q 285 -112 291 -128 q 297 -144 297 -170 l 297 -170 q 297 -208 283 -226 q 269 -245 240 -245 l 240 -245 q 210 -245 183 -226 q 156 -207 122 -166 l 122 -166 l 104 -272 q 135 -303 180 -327 q 224 -352 281 -352 l 281 -352 q 336 -352 374 -330 q 411 -308 430 -269 q 448 -230 448 -178 l 448 -178 q 448 -118 426 -75 q 403 -33 359 -10 q 315 12 251 12 l 251 12 q 192 12 143 -13 q 94 -39 65 -95 q 35 -152 35 -244 l 35 -244 q 35 -353 80 -427 q 125 -502 203 -539 q 281 -577 378 -577 z m 957 12 l 957 12 q 882 12 836 -17 q 790 -47 769 -96 q 748 -146 748 -205 l 748 -205 q 748 -300 796 -354 q 843 -409 933 -409 l 933 -409 q 987 -409 1028 -380 q 1068 -352 1093 -307 q 1118 -263 1124 -214 l 1124 -214 l 1064 -212 q 1059 -236 1047 -256 q 1034 -277 1016 -290 q 997 -304 971 -304 l 971 -304 q 934 -304 917 -278 q 899 -253 899 -202 l 899 -202 q 899 -169 907 -146 q 914 -124 928 -112 q 942 -101 963 -101 l 963 -101 q 986 -101 1002 -114 q 1018 -128 1026 -158 q 1034 -188 1034 -237 l 1034 -237 q 1034 -253 1033 -271 q 1031 -290 1029 -307 l 1029 -307 q 1028 -311 1030 -318 q 1031 -325 1029 -329 l 1029 -329 q 1024 -364 1000 -394 q 976 -424 935 -443 q 893 -462 835 -462 l 835 -462 q 797 -462 772 -455 q 746 -448 725 -432 l 725 -432 q 706 -418 695 -396 q 683 -375 678 -342 q 672 -309 672 -259 l 672 -259 l 672 -187 l 565 -459 q 594 -494 631 -520 q 667 -547 717 -562 q 767 -577 837 -577 l 837 -577 q 924 -577 990 -550 q 1055 -524 1099 -477 q 1143 -430 1165 -368 q 1187 -307 1187 -237 l 1187 -237 q 1187 -152 1160 -96 q 1133 -41 1082 -14 q 1031 12 957 12 z"},"എ":{"ha":1305,"x_min":28,"x_max":1266,"o":"m 254 -367 l 254 -367 q 333 -367 382 -338 q 431 -310 454 -266 q 476 -223 476 -176 l 476 -176 q 476 -147 468 -120 q 459 -93 449 -73 l 449 -73 l 442 -114 l 878 -114 l 873 0 l 348 0 l 296 -64 q 306 -82 316 -107 q 325 -132 325 -166 l 325 -166 q 325 -203 309 -228 q 292 -254 255 -254 l 255 -254 q 231 -254 215 -242 q 199 -231 191 -211 q 183 -192 183 -167 l 183 -167 q 183 -126 196 -98 q 209 -70 225 -43 l 225 -43 l 101 12 q 68 -28 48 -72 q 28 -117 28 -174 l 28 -174 q 28 -233 56 -276 q 84 -319 135 -343 q 186 -367 254 -367 z m 920 -577 l 920 -577 q 1008 -577 1073 -549 q 1138 -522 1181 -469 q 1224 -417 1245 -342 q 1266 -268 1266 -175 l 1266 -175 q 1266 -90 1249 -19 q 1232 51 1203 112 q 1174 173 1135 228 l 1135 228 l 1010 163 q 1042 112 1063 61 q 1084 9 1095 -49 q 1105 -107 1105 -175 l 1105 -175 q 1105 -236 1095 -289 q 1085 -342 1063 -381 q 1041 -420 1006 -442 q 971 -464 920 -464 l 920 -464 q 851 -464 807 -424 q 762 -385 740 -314 q 718 -243 718 -146 l 718 -146 q 718 -122 719 -101 q 720 -80 721 -61 l 721 -61 q 721 -54 721 -48 q 720 -42 720 -35 l 720 -35 q 723 18 733 52 q 742 85 759 101 q 776 117 798 117 l 798 117 q 814 117 822 108 l 822 108 q 827 103 829 95 q 830 86 830 69 l 830 69 l 830 -383 l 987 -383 l 987 31 q 987 93 974 128 q 961 163 937 186 l 937 186 q 915 206 883 217 q 850 228 805 228 l 805 228 q 728 228 674 190 q 619 151 591 69 q 562 -14 562 -145 l 562 -145 q 562 -238 584 -316 q 605 -395 650 -453 q 694 -512 762 -544 q 829 -577 920 -577 z"},"ഏ":{"ha":1321,"x_min":28,"x_max":1293,"o":"m 254 -367 l 254 -367 q 333 -367 382 -338 q 431 -310 454 -266 q 476 -223 476 -176 l 476 -176 q 476 -147 468 -120 q 459 -93 449 -73 l 449 -73 l 437 -114 l 875 -114 l 873 0 l 349 0 l 296 -64 q 306 -82 316 -107 q 326 -132 326 -166 l 326 -166 q 326 -203 309 -228 q 292 -254 256 -254 l 256 -254 q 231 -254 215 -242 q 199 -231 192 -211 q 184 -192 184 -167 l 184 -167 q 184 -126 197 -98 q 209 -70 225 -43 l 225 -43 l 102 12 q 68 -28 48 -72 q 28 -117 28 -174 l 28 -174 q 28 -233 57 -276 q 85 -319 136 -343 q 187 -367 254 -367 z m 966 -577 l 966 -577 q 1053 -577 1114 -557 q 1174 -538 1212 -504 q 1249 -470 1267 -427 q 1284 -384 1284 -338 l 1284 -338 q 1284 -286 1269 -248 q 1254 -211 1230 -185 q 1205 -159 1177 -141 l 1177 -141 l 1177 -157 q 1231 -130 1262 -86 q 1293 -43 1293 26 l 1293 26 q 1293 97 1267 142 q 1241 186 1194 207 q 1147 228 1084 228 l 1084 228 q 1063 228 1038 226 q 1013 224 997 220 l 997 220 l 1015 108 q 1024 111 1036 113 q 1047 114 1054 114 l 1054 114 q 1085 114 1103 103 q 1120 92 1128 71 q 1135 50 1135 20 l 1135 20 q 1135 -25 1110 -54 q 1084 -83 1033 -84 l 1033 -84 l 1033 -196 q 1062 -205 1083 -221 q 1103 -237 1115 -262 q 1126 -288 1126 -326 l 1126 -326 q 1126 -365 1109 -396 q 1091 -427 1055 -444 q 1018 -462 960 -462 l 960 -462 q 875 -462 822 -421 q 768 -381 744 -310 q 719 -239 719 -146 l 719 -146 q 719 -122 720 -101 q 720 -80 721 -61 l 721 -61 q 721 -54 721 -47 q 720 -41 720 -35 l 720 -35 q 723 18 733 52 q 743 85 760 101 q 776 117 799 117 l 799 117 q 815 117 823 108 l 823 108 q 827 103 829 95 q 831 86 831 69 l 831 69 l 831 -383 l 987 -383 l 987 31 q 987 93 975 128 q 962 163 937 186 l 937 186 q 915 206 883 217 q 851 228 805 228 l 805 228 q 728 228 674 190 q 619 151 591 69 q 562 -14 562 -147 l 562 -147 q 562 -242 587 -320 q 612 -399 663 -456 q 713 -514 789 -545 q 865 -577 966 -577 z"},"ഐ":{"ha":2052,"x_min":35,"x_max":2013,"o":"m 252 12 l 252 12 q 193 12 144 -13 q 94 -39 65 -95 q 35 -151 35 -241 l 35 -241 q 35 -315 59 -376 q 83 -438 129 -483 q 175 -528 242 -552 q 309 -577 394 -577 l 394 -577 q 480 -577 541 -553 q 601 -529 639 -488 q 677 -447 695 -394 q 712 -342 712 -285 l 712 -285 q 712 -219 694 -165 q 676 -112 646 -69 q 615 -26 574 13 l 574 13 l 461 -60 q 488 -93 509 -126 q 529 -160 541 -198 q 552 -236 552 -283 l 552 -283 q 552 -337 534 -377 q 515 -418 477 -440 q 439 -462 381 -462 l 381 -462 q 320 -462 274 -433 q 227 -405 202 -354 q 176 -304 176 -239 l 176 -239 q 176 -182 186 -151 q 195 -120 211 -108 q 227 -96 246 -96 l 246 -96 q 263 -96 274 -104 q 285 -112 291 -128 q 297 -144 297 -169 l 297 -169 q 297 -207 283 -226 q 269 -245 240 -245 l 240 -245 q 210 -245 183 -226 q 156 -207 122 -166 l 122 -166 l 104 -272 q 135 -303 179 -327 q 222 -352 280 -352 l 280 -352 q 336 -352 373 -330 q 410 -308 429 -269 q 448 -230 448 -177 l 448 -177 q 448 -118 426 -76 q 403 -34 360 -11 q 316 12 252 12 z m 1001 -367 l 1001 -367 q 1080 -367 1129 -338 q 1178 -310 1201 -266 q 1223 -223 1223 -176 l 1223 -176 q 1223 -147 1215 -120 q 1206 -93 1196 -73 l 1196 -73 l 1189 -114 l 1625 -114 l 1620 0 l 1095 0 l 1043 -64 q 1053 -82 1063 -107 q 1072 -132 1072 -166 l 1072 -166 q 1072 -203 1056 -228 q 1039 -254 1002 -254 l 1002 -254 q 978 -254 962 -242 q 946 -231 938 -211 q 930 -192 930 -167 l 930 -167 q 930 -126 943 -98 q 956 -70 972 -43 l 972 -43 l 848 12 q 815 -28 795 -72 q 775 -117 775 -174 l 775 -174 q 775 -233 803 -276 q 831 -319 882 -343 q 933 -367 1001 -367 z m 1667 -577 l 1667 -577 q 1755 -577 1820 -549 q 1885 -522 1928 -469 q 1971 -417 1992 -342 q 2013 -268 2013 -175 l 2013 -175 q 2013 -90 1996 -19 q 1979 51 1950 112 q 1921 173 1882 228 l 1882 228 l 1757 163 q 1789 112 1810 61 q 1831 9 1842 -49 q 1852 -107 1852 -175 l 1852 -175 q 1852 -236 1842 -289 q 1832 -342 1810 -381 q 1788 -420 1753 -442 q 1718 -464 1667 -464 l 1667 -464 q 1598 -464 1554 -424 q 1509 -385 1487 -314 q 1465 -243 1465 -146 l 1465 -146 q 1465 -122 1466 -101 q 1467 -80 1468 -61 l 1468 -61 q 1468 -54 1468 -48 q 1467 -42 1467 -35 l 1467 -35 q 1470 18 1480 52 q 1489 85 1506 101 q 1523 117 1545 117 l 1545 117 q 1561 117 1569 108 l 1569 108 q 1574 103 1576 95 q 1577 86 1577 69 l 1577 69 l 1577 -383 l 1734 -383 l 1734 31 q 1734 93 1721 128 q 1708 163 1684 186 l 1684 186 q 1662 206 1630 217 q 1597 228 1552 228 l 1552 228 q 1475 228 1421 190 q 1366 151 1338 69 q 1309 -14 1309 -145 l 1309 -145 q 1309 -238 1331 -316 q 1352 -395 1397 -453 q 1441 -512 1509 -544 q 1576 -577 1667 -577 z"},"ഒ":{"ha":789,"x_min":34,"x_max":759,"o":"m 465 -577 l 465 -577 q 572 -577 634 -554 q 696 -532 723 -494 q 749 -456 749 -410 l 749 -410 q 749 -381 740 -356 q 731 -332 712 -313 q 692 -294 659 -278 l 659 -278 l 659 -285 q 709 -267 734 -231 q 759 -195 759 -146 l 759 -146 q 759 -71 709 -29 q 659 12 561 12 l 561 12 q 528 12 502 9 q 475 5 454 0 l 454 0 l 475 -110 q 487 -106 503 -104 q 518 -102 534 -102 l 534 -102 q 570 -102 586 -115 q 602 -129 602 -159 l 602 -159 q 602 -174 597 -185 q 591 -197 579 -206 l 579 -206 q 567 -215 548 -219 q 529 -224 494 -224 l 494 -224 l 483 -224 l 483 -335 l 492 -335 q 528 -335 545 -339 q 562 -344 575 -354 l 575 -354 q 584 -362 588 -372 q 592 -382 592 -394 l 592 -394 q 592 -430 558 -446 q 524 -462 454 -462 l 454 -462 q 401 -462 352 -449 q 302 -437 263 -411 q 223 -385 200 -345 q 176 -305 176 -249 l 176 -249 l 176 -234 q 176 -179 186 -149 q 195 -119 211 -107 q 227 -96 246 -96 l 246 -96 q 262 -96 274 -104 q 285 -112 291 -128 q 297 -144 297 -170 l 297 -170 q 297 -208 283 -226 q 269 -245 240 -245 l 240 -245 q 209 -245 182 -225 q 154 -206 120 -165 l 120 -165 l 101 -270 q 131 -302 176 -327 q 221 -352 279 -352 l 279 -352 q 335 -352 373 -330 q 410 -308 429 -269 q 448 -230 448 -177 l 448 -177 q 448 -118 425 -75 q 402 -33 359 -10 q 315 12 251 12 l 251 12 q 191 12 142 -14 q 92 -40 63 -94 q 34 -149 34 -235 l 34 -235 q 34 -320 66 -383 q 97 -447 155 -490 q 213 -534 292 -555 q 371 -577 465 -577 z"},"ഓ":{"ha":1331,"x_min":34,"x_max":1294,"o":"m 465 -577 l 465 -577 q 572 -577 634 -554 q 696 -532 723 -494 q 749 -456 749 -410 l 749 -410 q 749 -381 740 -356 q 731 -332 712 -313 q 692 -294 659 -278 l 659 -278 l 659 -285 q 709 -267 734 -231 q 759 -195 759 -146 l 759 -146 q 759 -71 709 -29 q 659 12 561 12 l 561 12 q 528 12 502 9 q 475 5 454 0 l 454 0 l 475 -110 q 487 -106 503 -104 q 518 -102 534 -102 l 534 -102 q 570 -102 586 -115 q 602 -129 602 -159 l 602 -159 q 602 -174 597 -185 q 591 -197 579 -206 l 579 -206 q 567 -215 548 -219 q 529 -224 494 -224 l 494 -224 l 483 -224 l 483 -335 l 492 -335 q 528 -335 545 -339 q 562 -344 575 -354 l 575 -354 q 584 -362 588 -372 q 592 -382 592 -394 l 592 -394 q 592 -430 558 -446 q 524 -462 454 -462 l 454 -462 q 401 -462 352 -449 q 302 -437 263 -411 q 223 -385 200 -345 q 176 -305 176 -249 l 176 -249 l 176 -234 q 176 -179 186 -149 q 195 -119 211 -107 q 227 -96 246 -96 l 246 -96 q 262 -96 274 -104 q 285 -112 291 -128 q 297 -144 297 -170 l 297 -170 q 297 -208 283 -226 q 269 -245 240 -245 l 240 -245 q 209 -245 182 -225 q 154 -206 120 -165 l 120 -165 l 101 -270 q 131 -302 176 -327 q 221 -352 279 -352 l 279 -352 q 335 -352 373 -330 q 410 -308 429 -269 q 448 -230 448 -177 l 448 -177 q 448 -118 425 -75 q 402 -33 359 -10 q 315 12 251 12 l 251 12 q 191 12 142 -14 q 92 -40 63 -94 q 34 -149 34 -235 l 34 -235 q 34 -320 66 -383 q 97 -447 155 -490 q 213 -534 292 -555 q 371 -577 465 -577 z m 1294 -285 l 1294 -285 q 1294 -221 1282 -167 q 1270 -113 1242 -72 q 1213 -32 1165 -10 q 1117 12 1043 12 l 1043 12 q 978 12 935 -5 q 891 -23 865 -51 q 838 -80 824 -114 q 809 -149 802 -184 l 802 -184 l 961 -212 q 968 -183 977 -157 q 986 -132 1003 -116 q 1019 -101 1046 -101 l 1046 -101 q 1077 -101 1097 -122 q 1116 -144 1125 -185 q 1133 -226 1133 -284 l 1133 -284 q 1133 -341 1125 -381 q 1116 -421 1097 -442 q 1078 -464 1048 -464 l 1048 -464 q 1023 -464 1007 -449 q 990 -434 980 -409 q 970 -385 964 -354 l 964 -354 l 804 -382 q 815 -418 832 -453 q 849 -488 877 -516 q 905 -544 948 -560 q 991 -577 1053 -577 l 1053 -577 q 1123 -577 1170 -554 q 1216 -531 1244 -491 q 1271 -451 1283 -398 q 1294 -345 1294 -285 z"},"ഔ":{"ha":1567,"x_min":34,"x_max":1533,"o":"m 465 -577 l 465 -577 q 572 -577 634 -554 q 696 -532 723 -494 q 749 -456 749 -410 l 749 -410 q 749 -381 740 -356 q 731 -332 712 -313 q 692 -294 659 -278 l 659 -278 l 659 -285 q 709 -267 734 -231 q 759 -195 759 -146 l 759 -146 q 759 -71 709 -29 q 659 12 561 12 l 561 12 q 528 12 502 9 q 475 5 454 0 l 454 0 l 475 -110 q 487 -106 503 -104 q 518 -102 534 -102 l 534 -102 q 570 -102 586 -115 q 602 -129 602 -159 l 602 -159 q 602 -174 597 -185 q 591 -197 579 -206 l 579 -206 q 567 -215 548 -219 q 529 -224 494 -224 l 494 -224 l 483 -224 l 483 -335 l 492 -335 q 528 -335 545 -339 q 562 -344 575 -354 l 575 -354 q 584 -362 588 -372 q 592 -382 592 -394 l 592 -394 q 592 -430 558 -446 q 524 -462 454 -462 l 454 -462 q 401 -462 352 -449 q 302 -437 263 -411 q 223 -385 200 -345 q 176 -305 176 -249 l 176 -249 l 176 -234 q 176 -179 186 -149 q 195 -119 211 -107 q 227 -96 246 -96 l 246 -96 q 262 -96 274 -104 q 285 -112 291 -128 q 297 -144 297 -170 l 297 -170 q 297 -208 283 -226 q 269 -245 240 -245 l 240 -245 q 209 -245 182 -225 q 154 -206 120 -165 l 120 -165 l 101 -270 q 131 -302 176 -327 q 221 -352 279 -352 l 279 -352 q 335 -352 373 -330 q 410 -308 429 -269 q 448 -230 448 -177 l 448 -177 q 448 -118 425 -75 q 402 -33 359 -10 q 315 12 251 12 l 251 12 q 191 12 142 -14 q 92 -40 63 -94 q 34 -149 34 -235 l 34 -235 q 34 -320 66 -383 q 97 -447 155 -490 q 213 -534 292 -555 q 371 -577 465 -577 z m 1312 -577 l 1312 -577 q 1381 -577 1431 -544 q 1480 -512 1507 -452 q 1533 -393 1533 -310 l 1533 -310 q 1533 -207 1500 -135 q 1467 -63 1401 -25 q 1334 12 1233 12 l 1233 12 q 1159 12 1104 -1 q 1048 -14 997 -40 l 997 -40 l 1054 -145 q 1096 -125 1134 -114 q 1172 -104 1218 -104 l 1218 -104 q 1276 -104 1310 -127 q 1344 -151 1359 -196 q 1374 -242 1374 -308 l 1374 -308 q 1374 -389 1353 -426 q 1332 -464 1299 -464 l 1299 -464 q 1285 -464 1276 -458 q 1266 -453 1260 -444 l 1260 -444 q 1253 -432 1250 -415 q 1247 -399 1247 -365 l 1247 -365 l 1247 -266 l 1092 -266 l 1092 -347 q 1092 -385 1089 -407 q 1086 -430 1078 -442 l 1078 -442 q 1071 -454 1060 -459 q 1049 -464 1037 -464 l 1037 -464 q 1006 -464 989 -440 q 972 -417 972 -382 l 972 -382 q 972 -353 977 -330 q 981 -308 986 -290 l 986 -290 l 836 -257 q 826 -286 821 -320 q 816 -355 816 -384 l 816 -384 q 816 -435 838 -478 q 859 -522 905 -549 q 950 -577 1021 -577 l 1021 -577 q 1077 -577 1114 -560 q 1150 -543 1177 -513 l 1177 -513 l 1159 -513 q 1188 -548 1226 -562 q 1263 -577 1312 -577 z"},"ക":{"ha":1082,"x_min":28,"x_max":1055,"o":"m 225 12 l 225 12 q 130 12 79 -34 q 28 -81 28 -163 l 28 -163 q 28 -216 52 -252 q 75 -289 113 -311 l 113 -311 q 139 -326 171 -335 q 202 -344 245 -348 q 288 -352 350 -352 l 350 -352 l 751 -352 q 835 -352 888 -342 q 940 -333 979 -308 l 979 -308 q 1014 -286 1035 -250 q 1055 -215 1055 -162 l 1055 -162 q 1055 -76 1002 -32 q 948 12 863 12 l 863 12 q 841 12 820 9 q 798 6 776 1 l 776 1 l 801 -108 q 811 -105 822 -103 q 832 -102 843 -102 l 843 -102 q 873 -102 888 -117 q 903 -133 903 -162 l 903 -162 q 903 -183 895 -197 q 887 -211 874 -219 l 874 -219 q 856 -231 831 -234 q 806 -238 757 -238 l 757 -238 l 308 -238 q 268 -238 244 -234 q 220 -230 204 -219 l 204 -219 q 192 -210 184 -197 q 176 -184 176 -165 l 176 -165 q 176 -145 184 -130 q 191 -115 207 -108 q 223 -101 248 -101 l 248 -101 q 274 -101 298 -110 q 322 -120 349 -142 l 349 -142 l 414 -42 q 383 -21 354 -9 q 325 3 294 8 q 263 12 225 12 z m 543 -577 l 543 -577 q 636 -577 693 -540 q 750 -504 776 -438 q 802 -373 802 -285 l 802 -285 q 802 -187 773 -121 q 743 -55 686 -21 q 628 12 544 12 l 544 12 q 477 12 428 -9 q 378 -30 347 -70 l 347 -70 q 314 -110 299 -165 q 283 -220 283 -287 l 283 -287 q 283 -425 350 -501 q 417 -577 543 -577 z m 543 -464 l 543 -464 q 488 -464 463 -419 q 437 -375 437 -282 l 437 -282 q 437 -223 449 -182 q 460 -142 483 -122 q 506 -102 543 -102 l 543 -102 q 578 -102 602 -121 q 625 -141 637 -181 q 649 -222 649 -284 l 649 -284 q 649 -345 638 -385 q 626 -425 603 -444 q 579 -464 543 -464 z"},"ഖ":{"ha":1040,"x_min":34,"x_max":983,"o":"m 394 -577 l 394 -577 q 480 -577 541 -553 q 601 -530 639 -490 q 676 -450 694 -398 q 711 -347 711 -292 l 711 -292 q 711 -233 697 -188 q 682 -144 656 -105 q 630 -67 596 -27 l 596 -27 l 574 0 l 522 0 l 472 -68 q 494 -98 512 -130 q 530 -162 541 -200 q 552 -238 552 -285 l 552 -285 q 552 -340 533 -379 q 514 -419 477 -440 q 439 -462 383 -462 l 383 -462 q 325 -462 278 -435 q 230 -408 203 -359 q 176 -310 176 -243 l 176 -243 l 176 -236 q 176 -180 186 -149 q 195 -119 211 -107 q 227 -96 246 -96 l 246 -96 q 262 -96 274 -104 q 285 -112 291 -128 q 297 -144 297 -169 l 297 -169 q 297 -207 283 -226 q 269 -245 240 -245 l 240 -245 q 209 -245 182 -225 q 154 -206 121 -165 l 121 -165 l 101 -270 q 132 -302 177 -327 q 221 -352 280 -352 l 280 -352 q 335 -352 373 -330 q 410 -308 429 -269 q 448 -230 448 -178 l 448 -178 q 448 -118 426 -75 q 403 -33 360 -10 q 316 12 252 12 l 252 12 q 192 12 143 -14 q 94 -40 64 -95 q 34 -151 34 -242 l 34 -242 q 34 -345 79 -420 q 123 -495 204 -536 q 285 -577 394 -577 z m 827 -565 l 983 -565 l 983 0 l 556 0 l 619 -114 l 827 -114 l 827 -565 z"},"ഗ":{"ha":916,"x_min":35,"x_max":881,"o":"m 621 -577 l 621 -577 q 703 -577 761 -543 q 819 -510 850 -448 q 881 -386 881 -303 l 881 -303 q 881 -239 866 -184 q 851 -130 824 -82 q 796 -34 756 12 l 756 12 l 637 -60 q 666 -101 685 -139 q 704 -177 713 -215 q 722 -254 722 -298 l 722 -298 q 722 -357 708 -393 q 694 -430 671 -446 q 648 -462 620 -462 l 620 -462 q 599 -462 585 -455 q 570 -449 560 -436 l 560 -436 q 547 -419 542 -391 q 537 -364 537 -316 l 537 -316 l 537 -251 q 537 -204 531 -165 q 524 -127 511 -97 q 497 -68 474 -46 l 474 -46 q 444 -17 401 -2 q 357 12 295 12 l 295 12 q 213 12 155 -22 q 97 -56 66 -118 q 35 -180 35 -263 l 35 -263 q 35 -329 50 -383 q 65 -437 94 -484 q 122 -532 160 -578 l 160 -578 l 278 -505 q 250 -465 231 -427 q 212 -390 203 -351 q 194 -312 194 -268 l 194 -268 q 194 -207 208 -171 q 221 -135 244 -119 q 267 -103 294 -103 l 294 -103 q 316 -103 331 -109 q 346 -116 356 -130 l 356 -130 q 369 -146 374 -173 q 378 -200 378 -246 l 378 -246 l 378 -315 q 378 -388 395 -438 q 411 -488 447 -520 l 447 -520 q 476 -547 517 -562 q 557 -577 621 -577 z"},"ഘ":{"ha":1370,"x_min":28,"x_max":1314,"o":"m 254 -577 l 254 -577 q 333 -577 382 -549 q 431 -521 454 -477 q 476 -434 476 -388 l 476 -388 q 476 -359 468 -332 q 459 -305 449 -284 l 449 -284 l 443 -325 l 649 -325 l 661 -212 l 348 -212 l 296 -276 q 306 -292 316 -317 q 325 -343 325 -378 l 325 -378 q 325 -414 309 -439 q 292 -464 255 -464 l 255 -464 q 231 -464 215 -453 q 199 -442 191 -422 q 183 -403 183 -378 l 183 -378 q 183 -338 196 -309 q 209 -281 224 -254 l 224 -254 l 101 -199 q 67 -240 48 -284 q 28 -328 28 -385 l 28 -385 q 28 -444 56 -487 q 84 -530 135 -553 q 186 -577 254 -577 z m 1158 -565 l 1314 -565 l 1314 0 l 546 0 l 546 -304 q 546 -385 564 -432 q 582 -480 614 -512 l 614 -512 q 645 -543 693 -560 q 740 -577 803 -577 l 803 -577 q 867 -577 914 -560 q 961 -543 992 -511 l 992 -511 q 1028 -475 1044 -426 q 1059 -378 1059 -303 l 1059 -303 l 1059 -212 l 702 -212 l 702 -114 l 1158 -114 l 1158 -565 z m 802 -464 l 802 -464 q 748 -464 725 -428 q 702 -393 702 -334 l 702 -334 l 702 -325 l 903 -325 l 903 -334 q 903 -395 878 -429 q 853 -464 802 -464 z"},"ങ":{"ha":1104,"x_min":35,"x_max":1073,"o":"m 378 -577 l 378 -577 q 461 -577 518 -553 q 575 -530 622 -477 l 622 -477 l 647 -390 l 672 -234 l 672 0 l 515 0 l 515 -280 q 515 -350 505 -382 q 495 -415 475 -433 l 475 -433 q 459 -447 436 -455 q 412 -463 376 -463 l 376 -463 q 321 -463 276 -438 q 230 -414 203 -365 q 176 -316 176 -242 l 176 -242 l 176 -236 q 176 -180 186 -150 q 195 -120 211 -108 q 227 -96 246 -96 l 246 -96 q 263 -96 274 -104 q 285 -112 291 -128 q 297 -144 297 -170 l 297 -170 q 297 -208 283 -226 q 269 -245 240 -245 l 240 -245 q 210 -245 183 -226 q 156 -207 122 -166 l 122 -166 l 104 -272 q 135 -303 180 -327 q 224 -352 281 -352 l 281 -352 q 336 -352 374 -330 q 411 -308 430 -269 q 448 -230 448 -178 l 448 -178 q 448 -118 426 -75 q 403 -33 359 -10 q 315 12 251 12 l 251 12 q 192 12 143 -13 q 94 -39 65 -95 q 35 -152 35 -244 l 35 -244 q 35 -353 80 -427 q 125 -502 203 -539 q 281 -577 378 -577 z m 838 -577 l 838 -577 q 914 -577 964 -555 q 1014 -534 1039 -497 q 1064 -461 1064 -416 l 1064 -416 q 1064 -384 1055 -359 q 1046 -334 1026 -314 q 1006 -295 973 -279 l 973 -279 l 974 -285 q 1023 -267 1048 -231 q 1073 -195 1073 -146 l 1073 -146 q 1073 -71 1024 -29 q 974 12 875 12 l 875 12 q 842 12 815 8 q 787 4 767 0 l 767 0 l 787 -110 q 802 -106 817 -104 q 831 -102 848 -102 l 848 -102 q 884 -102 901 -115 q 917 -128 917 -159 l 917 -159 q 917 -174 911 -185 q 905 -197 894 -206 l 894 -206 q 882 -215 864 -219 q 845 -224 813 -224 l 813 -224 l 785 -224 l 785 -335 l 810 -335 q 839 -335 858 -340 q 877 -345 888 -356 l 888 -356 q 898 -363 903 -374 q 907 -386 907 -400 l 907 -400 q 907 -430 887 -447 q 866 -464 827 -464 l 827 -464 q 788 -464 761 -452 q 734 -440 715 -417 l 715 -417 q 698 -397 689 -371 q 679 -346 676 -312 q 672 -278 672 -232 l 672 -232 l 672 -124 l 531 -130 l 528 -268 l 538 -373 q 558 -435 598 -481 q 637 -527 697 -552 q 757 -577 838 -577 z"},"ച":{"ha":943,"x_min":20,"x_max":887,"o":"m 730 -565 l 887 -565 l 887 0 l 20 0 l 20 -114 l 437 -114 l 362 -93 q 385 -110 401 -138 q 417 -167 417 -204 l 417 -204 q 417 -238 403 -259 q 389 -280 357 -280 l 357 -280 q 325 -280 310 -259 q 295 -238 295 -204 l 295 -204 q 295 -193 296 -185 q 296 -177 297 -169 l 297 -169 l 145 -157 q 143 -169 142 -184 q 140 -200 140 -214 l 140 -214 q 140 -297 195 -344 q 250 -392 357 -392 l 357 -392 q 420 -392 461 -375 q 502 -359 526 -333 q 549 -307 558 -276 q 567 -246 567 -217 l 567 -217 q 567 -193 562 -171 q 556 -149 546 -129 q 535 -110 521 -92 l 521 -92 l 497 -114 l 730 -114 l 730 -565 z"},"ഛ":{"ha":1374,"x_min":20,"x_max":1340,"o":"m 357 -392 l 357 -392 q 420 -392 461 -375 q 502 -359 526 -333 q 549 -307 558 -276 q 567 -246 567 -217 l 567 -217 q 567 -193 562 -171 q 556 -149 546 -129 q 535 -110 521 -92 l 521 -92 l 497 -114 l 735 -114 l 806 0 l 20 0 l 20 -114 l 437 -114 l 362 -93 q 385 -110 401 -138 q 417 -167 417 -204 l 417 -204 q 417 -238 403 -259 q 389 -280 357 -280 l 357 -280 q 325 -280 310 -259 q 295 -238 295 -204 l 295 -204 q 295 -193 296 -185 q 296 -177 297 -169 l 297 -169 l 145 -157 q 143 -169 142 -184 q 140 -200 140 -214 l 140 -214 q 140 -297 195 -344 q 250 -392 357 -392 z m 977 -577 l 977 -577 q 1069 -577 1138 -550 q 1206 -524 1251 -477 q 1296 -430 1318 -368 q 1340 -306 1340 -236 l 1340 -236 q 1340 -152 1314 -96 q 1287 -41 1236 -14 q 1184 12 1110 12 l 1110 12 q 1035 12 989 -17 q 943 -47 922 -96 q 900 -146 900 -205 l 900 -205 q 900 -300 948 -354 q 996 -409 1086 -409 l 1086 -409 q 1141 -409 1181 -380 q 1221 -352 1246 -307 q 1271 -263 1277 -214 l 1277 -214 l 1217 -212 q 1212 -236 1200 -256 q 1187 -277 1169 -290 q 1150 -304 1124 -304 l 1124 -304 q 1087 -304 1070 -278 q 1052 -253 1052 -202 l 1052 -202 q 1052 -169 1059 -146 q 1066 -124 1081 -112 q 1095 -101 1116 -101 l 1116 -101 q 1138 -101 1154 -114 q 1170 -128 1179 -158 q 1187 -188 1187 -237 l 1187 -237 q 1187 -254 1186 -272 q 1184 -290 1182 -306 l 1182 -306 q 1181 -311 1181 -318 q 1181 -326 1180 -330 l 1180 -330 q 1174 -365 1150 -395 q 1126 -425 1086 -443 q 1045 -462 989 -462 l 989 -462 q 924 -462 882 -440 q 839 -419 819 -379 q 798 -339 798 -284 l 798 -284 q 798 -241 808 -204 q 818 -168 837 -134 q 855 -101 878 -70 l 878 -70 l 822 0 l 767 0 l 744 -43 q 714 -77 690 -114 q 666 -151 652 -195 q 638 -239 638 -293 l 638 -293 q 638 -348 657 -399 q 676 -450 717 -490 q 758 -530 823 -553 q 887 -577 977 -577 z"},"ജ":{"ha":950,"x_min":29,"x_max":915,"o":"m 300 -577 l 300 -577 q 358 -577 399 -567 q 440 -558 470 -541 q 499 -525 523 -504 l 523 -504 l 491 -504 q 528 -544 575 -560 q 622 -577 680 -577 l 680 -577 q 765 -577 816 -546 q 867 -516 891 -468 q 915 -421 915 -368 l 915 -368 q 915 -325 904 -291 q 892 -257 869 -231 q 846 -206 812 -187 l 812 -187 l 617 -157 l 495 -148 q 465 -145 430 -144 q 394 -143 364 -143 l 364 -143 l 233 -143 q 208 -143 196 -141 q 183 -139 176 -133 l 176 -133 q 172 -130 170 -125 q 168 -121 168 -115 l 168 -115 q 168 -106 173 -100 q 177 -94 188 -90 q 198 -87 215 -87 l 215 -87 q 239 -87 263 -90 q 286 -93 315 -100 q 344 -108 383 -120 l 383 -120 q 412 -128 441 -136 q 470 -145 498 -151 q 525 -158 550 -163 q 574 -168 593 -171 l 593 -171 q 612 -178 631 -188 q 650 -199 669 -209 q 687 -220 705 -227 q 723 -234 739 -234 l 739 -234 q 776 -234 811 -223 q 845 -212 868 -186 q 890 -160 890 -113 l 890 -113 q 890 -52 848 -20 q 806 12 726 12 l 726 12 q 662 12 625 -7 q 588 -26 572 -56 q 556 -87 556 -120 l 556 -120 q 556 -160 576 -187 q 595 -214 615 -226 l 615 -226 l 741 -218 q 729 -211 714 -198 q 699 -185 688 -167 q 677 -150 677 -127 l 677 -127 q 677 -104 688 -91 q 698 -78 721 -78 l 721 -78 q 744 -78 755 -88 q 765 -99 765 -115 l 765 -115 q 765 -128 761 -136 q 756 -145 747 -150 q 737 -155 722 -155 l 722 -155 q 702 -155 685 -145 q 668 -136 645 -116 l 645 -116 l 642 -136 q 629 -124 607 -108 q 585 -93 555 -76 q 524 -60 483 -45 l 483 -45 q 428 -25 382 -12 q 336 1 294 7 q 251 12 203 12 l 203 12 q 154 12 114 0 q 74 -12 52 -39 q 29 -67 29 -113 l 29 -113 q 29 -148 44 -172 q 58 -197 83 -211 l 83 -211 q 110 -227 148 -233 q 185 -239 248 -239 l 248 -239 l 539 -239 q 584 -239 616 -241 q 647 -243 670 -248 q 692 -253 709 -262 l 709 -262 q 738 -276 752 -300 q 765 -324 765 -361 l 765 -361 q 765 -391 754 -414 q 742 -438 720 -452 q 698 -466 664 -466 l 664 -466 q 643 -466 629 -460 q 614 -455 605 -445 l 605 -445 q 590 -431 585 -406 q 579 -382 579 -339 l 579 -339 l 579 -266 l 438 -266 l 438 -307 q 438 -357 432 -390 q 425 -424 400 -447 l 400 -447 q 385 -461 360 -470 q 335 -480 297 -480 l 297 -480 q 264 -480 229 -474 q 194 -468 175 -452 l 175 -452 q 172 -450 170 -443 q 168 -437 166 -433 l 166 -433 q 160 -425 158 -413 q 155 -402 155 -388 l 155 -388 q 155 -357 168 -345 q 180 -333 197 -333 l 197 -333 q 212 -333 221 -339 q 230 -345 234 -355 q 238 -365 238 -377 l 238 -377 q 238 -399 226 -411 q 214 -423 193 -423 l 193 -423 q 177 -423 162 -419 q 147 -415 133 -409 l 133 -409 l 82 -433 q 110 -458 150 -468 q 189 -479 230 -479 l 230 -479 q 268 -479 298 -467 q 327 -455 344 -430 q 360 -406 360 -368 l 360 -368 q 360 -337 345 -308 q 330 -280 295 -262 q 260 -245 200 -245 l 200 -245 q 126 -245 81 -282 q 35 -319 35 -391 l 35 -391 q 35 -447 66 -489 q 96 -531 155 -554 q 213 -577 300 -577 z"},"ഝ":{"ha":1702,"x_min":35,"x_max":1667,"o":"m 698 -577 l 698 -577 q 764 -577 815 -563 q 866 -549 904 -519 l 904 -519 q 951 -484 975 -429 q 998 -374 998 -283 l 998 -283 l 998 -238 q 998 -203 1003 -175 q 1007 -148 1020 -131 l 1020 -131 q 1030 -118 1045 -110 q 1059 -103 1079 -103 l 1079 -103 q 1099 -103 1113 -109 q 1126 -115 1137 -126 l 1137 -126 q 1151 -142 1157 -168 q 1162 -194 1162 -239 l 1162 -239 l 1162 -566 l 1318 -566 l 1318 -242 q 1318 -193 1323 -167 q 1328 -142 1342 -126 l 1342 -126 q 1351 -115 1367 -109 q 1382 -103 1397 -103 l 1397 -103 q 1426 -103 1452 -120 q 1477 -137 1493 -174 q 1508 -211 1508 -270 l 1508 -270 q 1508 -311 1499 -349 q 1490 -388 1472 -426 q 1453 -464 1423 -505 l 1423 -505 l 1542 -577 q 1582 -531 1610 -483 q 1637 -436 1652 -382 q 1667 -329 1667 -264 l 1667 -264 q 1667 -184 1637 -122 q 1606 -60 1550 -24 q 1494 12 1414 12 l 1414 12 q 1355 12 1312 -6 q 1269 -24 1230 -63 l 1230 -63 l 1247 -67 q 1226 -44 1201 -26 q 1176 -9 1144 2 q 1111 12 1068 12 l 1068 12 q 1013 12 972 -3 q 931 -19 902 -47 l 902 -47 q 880 -69 866 -97 q 852 -126 846 -162 q 839 -198 839 -243 l 839 -243 l 839 -270 q 839 -310 834 -341 q 829 -373 818 -396 q 807 -419 789 -434 l 789 -434 q 772 -449 748 -458 q 723 -467 688 -467 l 688 -467 q 665 -467 646 -464 q 626 -461 608 -455 l 608 -455 l 588 -450 q 548 -432 519 -398 q 490 -364 475 -320 q 460 -276 460 -227 l 460 -227 q 460 -178 470 -150 q 479 -123 495 -112 q 511 -102 529 -102 l 529 -102 q 548 -102 564 -112 q 580 -123 590 -150 q 599 -177 599 -225 l 599 -225 q 599 -276 585 -320 q 570 -364 543 -397 q 516 -430 480 -448 l 480 -448 l 456 -456 q 439 -462 421 -464 q 402 -467 384 -467 l 384 -467 q 317 -467 275 -443 q 233 -420 214 -379 q 194 -338 194 -285 l 194 -285 q 194 -240 205 -202 q 215 -165 235 -130 q 255 -96 284 -61 l 284 -61 l 170 12 q 131 -26 101 -69 q 70 -113 53 -166 q 35 -220 35 -288 l 35 -288 q 35 -338 52 -389 q 68 -440 106 -482 q 144 -525 209 -551 q 273 -577 370 -577 l 370 -577 q 428 -577 475 -566 q 521 -555 564 -532 l 564 -532 l 589 -510 q 667 -465 712 -396 q 756 -327 756 -225 l 756 -225 q 756 -145 730 -92 q 704 -40 654 -14 q 603 12 529 12 l 529 12 q 457 12 407 -15 q 356 -43 330 -96 q 303 -150 303 -226 l 303 -226 q 303 -289 323 -340 q 343 -392 382 -433 q 420 -475 474 -507 l 474 -507 l 503 -531 q 549 -555 596 -566 q 643 -577 698 -577 z"},"ഞ":{"ha":1517,"x_min":35,"x_max":1482,"o":"m 378 -577 l 378 -577 q 461 -577 519 -553 q 576 -529 623 -477 l 623 -477 l 625 -425 l 672 -218 l 672 0 l 515 0 l 515 -280 q 515 -349 505 -382 q 495 -415 475 -433 l 475 -433 q 459 -447 436 -455 q 412 -463 376 -463 l 376 -463 q 321 -463 276 -438 q 230 -414 203 -365 q 176 -316 176 -242 l 176 -242 l 176 -236 q 176 -180 186 -149 q 195 -119 211 -107 q 227 -96 246 -96 l 246 -96 q 263 -96 274 -104 q 285 -112 291 -128 q 297 -144 297 -170 l 297 -170 q 297 -208 283 -226 q 269 -245 240 -245 l 240 -245 q 210 -245 183 -226 q 156 -207 122 -166 l 122 -166 l 104 -272 q 135 -303 180 -327 q 224 -352 281 -352 l 281 -352 q 336 -352 374 -330 q 411 -308 430 -269 q 448 -230 448 -178 l 448 -178 q 448 -118 426 -75 q 403 -33 359 -10 q 315 12 251 12 l 251 12 q 192 12 143 -13 q 94 -39 65 -95 q 35 -152 35 -244 l 35 -244 q 35 -353 80 -427 q 125 -502 203 -539 q 281 -577 378 -577 z m 833 -577 l 833 -577 q 884 -577 930 -566 q 975 -556 1018 -532 l 1018 -532 l 1042 -510 q 1121 -465 1166 -396 q 1210 -327 1210 -225 l 1210 -225 q 1210 -145 1184 -92 q 1158 -40 1107 -14 q 1056 12 983 12 l 983 12 q 910 12 860 -15 q 809 -43 783 -96 q 757 -150 757 -226 l 757 -226 q 757 -289 778 -340 q 798 -392 837 -433 q 876 -475 930 -507 l 930 -507 l 959 -530 q 1002 -553 1052 -565 q 1102 -577 1162 -577 l 1162 -577 q 1253 -577 1315 -552 q 1377 -527 1414 -485 q 1450 -443 1466 -391 q 1482 -339 1482 -285 l 1482 -285 q 1482 -219 1465 -165 q 1447 -112 1417 -69 q 1386 -26 1345 12 l 1345 12 l 1233 -61 q 1260 -93 1280 -126 q 1300 -160 1312 -198 q 1323 -236 1323 -281 l 1323 -281 q 1323 -338 1304 -379 q 1285 -421 1247 -444 q 1209 -467 1152 -467 l 1152 -467 q 1125 -467 1104 -464 q 1082 -462 1064 -455 l 1064 -455 l 1044 -450 q 1002 -431 973 -396 q 943 -362 928 -318 q 913 -274 913 -227 l 913 -227 q 913 -178 923 -150 q 932 -123 948 -112 q 964 -102 983 -102 l 983 -102 q 1002 -102 1018 -112 q 1034 -123 1044 -150 q 1053 -177 1053 -225 l 1053 -225 q 1053 -276 1038 -320 q 1023 -364 996 -397 q 969 -430 933 -448 l 933 -448 l 910 -456 q 899 -460 886 -462 q 872 -465 858 -466 q 844 -467 829 -467 l 829 -467 q 790 -467 765 -457 q 740 -448 723 -436 l 723 -436 q 695 -412 684 -373 q 672 -335 672 -265 l 672 -265 l 672 -22 l 530 -22 l 530 -262 l 569 -470 q 597 -499 632 -523 q 666 -548 715 -562 q 764 -577 833 -577 z"},"ട":{"ha":577,"x_min":12,"x_max":558,"o":"m 284 -577 l 284 -577 q 370 -577 439 -559 q 507 -542 558 -516 l 558 -516 l 494 -414 q 445 -437 399 -449 q 352 -462 291 -462 l 291 -462 q 253 -462 230 -453 q 206 -445 196 -431 q 185 -418 185 -401 l 185 -401 q 185 -388 189 -378 q 193 -369 201 -362 l 201 -362 q 214 -352 236 -348 q 258 -344 292 -344 l 292 -344 l 311 -344 q 384 -344 430 -330 q 475 -316 504 -287 l 504 -287 q 527 -266 539 -237 q 550 -209 550 -170 l 550 -170 q 550 -118 522 -76 q 494 -35 436 -11 q 378 12 286 12 l 286 12 q 206 12 138 -4 q 70 -20 12 -50 l 12 -50 l 75 -155 q 110 -137 141 -126 q 172 -115 206 -109 q 239 -104 277 -104 l 277 -104 q 319 -104 344 -112 q 368 -120 380 -135 q 391 -150 391 -169 l 391 -169 q 391 -183 387 -194 q 382 -205 371 -212 l 371 -212 q 359 -221 342 -224 q 324 -228 286 -228 l 286 -228 l 272 -228 q 202 -228 150 -242 q 98 -256 67 -287 l 67 -287 q 47 -306 37 -333 q 26 -361 26 -397 l 26 -397 q 26 -449 54 -489 q 82 -530 140 -553 q 197 -577 284 -577 z"},"ഠ":{"ha":674,"x_min":35,"x_max":639,"o":"m 336 -577 l 336 -577 q 432 -577 500 -541 q 568 -506 604 -439 q 639 -373 639 -282 l 639 -282 q 639 -191 604 -125 q 568 -60 501 -24 q 433 12 337 12 l 337 12 q 235 12 168 -26 q 101 -65 68 -132 q 35 -199 35 -284 l 35 -284 q 35 -375 71 -440 q 107 -506 174 -541 q 241 -577 336 -577 z m 337 -104 l 337 -104 q 384 -104 416 -125 q 447 -147 463 -187 q 479 -228 479 -283 l 479 -283 q 479 -338 464 -378 q 448 -418 417 -440 q 385 -462 337 -462 l 337 -462 q 269 -462 232 -416 q 195 -371 195 -283 l 195 -283 q 195 -199 232 -151 q 268 -104 337 -104 z"},"ഡ":{"ha":1245,"x_min":35,"x_max":1210,"o":"m 608 12 l 608 12 q 555 12 515 -3 q 474 -18 443 -46 l 443 -46 q 421 -68 407 -95 q 392 -123 385 -160 q 378 -198 378 -247 l 378 -247 l 378 -317 q 378 -365 374 -392 q 369 -419 356 -436 l 356 -436 q 346 -449 331 -455 q 316 -462 294 -462 l 294 -462 q 267 -462 244 -446 q 221 -431 208 -394 q 194 -358 194 -297 l 194 -297 q 194 -254 203 -215 q 212 -176 231 -138 q 250 -100 278 -60 l 278 -60 l 160 13 q 122 -33 94 -81 q 65 -129 50 -183 q 35 -237 35 -302 l 35 -302 q 35 -385 66 -447 q 97 -509 156 -543 q 214 -577 296 -577 l 296 -577 q 357 -577 401 -562 q 444 -548 473 -519 l 473 -519 q 496 -498 510 -468 q 524 -438 531 -400 q 537 -362 537 -314 l 537 -314 l 537 -253 q 537 -201 542 -174 q 546 -147 559 -130 l 559 -130 q 569 -117 584 -110 q 599 -103 621 -103 l 621 -103 q 639 -103 655 -109 q 670 -115 679 -126 l 679 -126 q 694 -142 700 -167 q 705 -193 705 -239 l 705 -239 l 705 -565 l 862 -565 l 862 -242 q 862 -192 867 -167 q 871 -142 885 -125 l 885 -125 q 895 -115 910 -109 q 925 -103 940 -103 l 940 -103 q 969 -103 995 -120 q 1020 -137 1036 -174 q 1051 -211 1051 -269 l 1051 -269 q 1051 -311 1042 -349 q 1033 -387 1015 -425 q 996 -464 966 -504 l 966 -504 l 1085 -577 q 1125 -531 1153 -483 q 1180 -435 1195 -381 q 1210 -328 1210 -263 l 1210 -263 q 1210 -183 1180 -121 q 1150 -59 1094 -23 q 1037 12 957 12 l 957 12 q 899 12 856 -5 q 813 -23 773 -63 l 773 -63 l 791 -67 q 755 -29 714 -8 q 673 12 608 12 z"},"ഢ":{"ha":1377,"x_min":35,"x_max":1342,"o":"m 608 12 l 608 12 q 555 12 515 -3 q 474 -18 443 -46 l 443 -46 q 421 -68 407 -96 q 392 -124 385 -161 q 378 -199 378 -248 l 378 -248 l 378 -317 q 378 -365 374 -392 q 369 -419 356 -436 l 356 -436 q 346 -450 331 -456 q 316 -462 294 -462 l 294 -462 q 267 -462 244 -446 q 221 -431 208 -395 q 194 -359 194 -298 l 194 -298 q 194 -255 203 -215 q 212 -176 231 -138 q 249 -101 278 -60 l 278 -60 l 160 13 q 122 -34 94 -81 q 65 -129 50 -183 q 35 -237 35 -303 l 35 -303 q 35 -386 66 -447 q 97 -509 156 -543 q 214 -578 296 -578 l 296 -578 q 357 -578 401 -563 q 444 -548 473 -520 l 473 -520 q 496 -498 510 -468 q 524 -439 531 -400 q 537 -362 537 -314 l 537 -314 l 537 -254 q 537 -201 542 -174 q 546 -147 559 -130 l 559 -130 q 569 -117 584 -110 q 599 -103 621 -103 l 621 -103 q 639 -103 654 -109 q 669 -116 679 -126 l 679 -126 q 694 -142 700 -168 q 705 -194 705 -239 l 705 -239 l 705 -566 l 862 -566 l 862 -287 l 791 -67 q 756 -30 715 -9 q 673 12 608 12 z m 1125 -577 l 1125 -577 q 1185 -577 1234 -551 q 1283 -526 1313 -470 q 1342 -415 1342 -322 l 1342 -322 q 1342 -214 1297 -139 q 1252 -64 1175 -26 q 1097 12 999 12 l 999 12 q 916 12 859 -12 q 801 -36 754 -88 l 754 -88 l 721 -282 l 721 -523 l 862 -523 l 862 -285 q 862 -217 872 -183 q 881 -150 902 -132 l 902 -132 q 918 -118 942 -110 q 966 -102 1001 -102 l 1001 -102 q 1057 -102 1102 -126 q 1147 -151 1174 -200 q 1200 -250 1200 -324 l 1200 -324 l 1200 -330 q 1200 -385 1191 -415 q 1182 -445 1166 -457 q 1150 -469 1130 -469 l 1130 -469 q 1114 -469 1103 -461 q 1091 -453 1085 -437 q 1079 -421 1079 -395 l 1079 -395 q 1079 -358 1094 -339 q 1108 -320 1136 -320 l 1136 -320 q 1167 -320 1194 -339 q 1221 -359 1255 -399 l 1255 -399 l 1273 -293 q 1242 -262 1198 -238 q 1153 -214 1096 -214 l 1096 -214 q 1041 -214 1004 -236 q 966 -258 948 -297 q 929 -336 929 -387 l 929 -387 q 929 -448 952 -490 q 974 -533 1018 -555 q 1061 -577 1125 -577 z"},"ണ":{"ha":1387,"x_min":35,"x_max":1352,"o":"m 378 -577 l 378 -577 q 461 -577 518 -553 q 575 -529 622 -477 l 622 -477 l 580 -496 q 613 -537 658 -557 q 702 -577 759 -577 l 759 -577 q 815 -577 856 -558 q 897 -540 932 -499 l 932 -499 l 915 -503 q 955 -542 998 -559 q 1040 -577 1099 -577 l 1099 -577 q 1179 -577 1236 -541 q 1292 -506 1322 -444 q 1352 -383 1352 -302 l 1352 -302 q 1352 -237 1337 -183 q 1321 -129 1294 -81 q 1266 -33 1228 13 l 1228 13 l 1108 -60 q 1137 -101 1156 -139 q 1175 -178 1184 -216 q 1193 -255 1193 -296 l 1193 -296 q 1193 -356 1178 -392 q 1162 -429 1137 -446 q 1111 -463 1081 -463 l 1081 -463 q 1066 -463 1052 -456 q 1037 -450 1027 -439 l 1027 -439 q 1013 -423 1008 -398 q 1003 -373 1003 -323 l 1003 -323 l 1003 0 l 847 0 l 847 -324 q 847 -371 842 -397 q 836 -423 821 -440 l 821 -440 q 811 -451 796 -457 q 781 -463 759 -463 l 759 -463 q 739 -463 724 -456 q 709 -449 698 -438 l 698 -438 q 684 -421 678 -395 q 672 -369 672 -317 l 672 -317 l 672 0 l 515 0 l 515 -280 q 515 -349 505 -382 q 495 -415 475 -433 l 475 -433 q 459 -447 436 -455 q 412 -463 376 -463 l 376 -463 q 321 -463 276 -438 q 230 -414 203 -365 q 176 -316 176 -242 l 176 -242 l 176 -236 q 176 -180 186 -150 q 195 -120 211 -108 q 227 -96 246 -96 l 246 -96 q 263 -96 274 -104 q 285 -112 291 -128 q 297 -144 297 -170 l 297 -170 q 297 -208 283 -226 q 269 -245 240 -245 l 240 -245 q 210 -245 183 -226 q 156 -207 122 -166 l 122 -166 l 104 -272 q 135 -303 180 -327 q 224 -352 281 -352 l 281 -352 q 336 -352 374 -330 q 411 -308 430 -269 q 448 -230 448 -177 l 448 -177 q 448 -117 426 -75 q 403 -33 359 -10 q 315 12 251 12 l 251 12 q 192 12 143 -13 q 94 -39 65 -95 q 35 -152 35 -244 l 35 -244 q 35 -353 80 -427 q 125 -502 203 -539 q 281 -577 378 -577 z"},"ത":{"ha":1063,"x_min":35,"x_max":1029,"o":"m 529 12 l 529 12 q 457 12 407 -15 q 356 -43 330 -96 q 303 -150 303 -226 l 303 -226 q 303 -289 324 -340 q 344 -392 383 -433 q 422 -475 476 -507 l 476 -507 l 506 -530 q 548 -553 598 -565 q 647 -577 708 -577 l 708 -577 q 800 -577 862 -552 q 923 -527 960 -485 q 997 -443 1013 -391 q 1029 -339 1029 -285 l 1029 -285 q 1029 -219 1011 -165 q 993 -112 963 -69 q 932 -26 891 12 l 891 12 l 779 -61 q 806 -93 826 -126 q 846 -160 858 -198 q 869 -236 869 -281 l 869 -281 q 869 -338 850 -379 q 831 -421 794 -444 q 756 -467 698 -467 l 698 -467 q 671 -467 650 -464 q 628 -461 610 -455 l 610 -455 l 590 -450 q 548 -431 519 -397 q 490 -363 475 -318 q 460 -274 460 -227 l 460 -227 q 460 -178 470 -150 q 479 -123 495 -112 q 511 -102 529 -102 l 529 -102 q 548 -102 564 -112 q 580 -123 590 -150 q 599 -177 599 -225 l 599 -225 q 599 -276 585 -320 q 570 -364 543 -397 q 516 -430 480 -448 l 480 -448 l 456 -456 q 440 -462 421 -464 q 402 -467 384 -467 l 384 -467 q 317 -467 275 -443 q 233 -420 214 -379 q 194 -338 194 -285 l 194 -285 q 194 -240 205 -202 q 215 -165 235 -130 q 255 -96 284 -61 l 284 -61 l 170 12 q 131 -26 101 -69 q 70 -113 53 -166 q 35 -220 35 -288 l 35 -288 q 35 -338 52 -389 q 68 -440 106 -482 q 144 -525 209 -551 q 273 -577 369 -577 l 369 -577 q 427 -577 474 -566 q 521 -555 564 -532 l 564 -532 l 589 -510 q 667 -465 712 -396 q 756 -327 756 -225 l 756 -225 q 756 -145 730 -92 q 704 -40 654 -14 q 603 12 529 12 z"},"ഥ":{"ha":917,"x_min":56,"x_max":865,"o":"m 56 -565 l 213 -565 l 213 -114 l 390 -114 l 390 0 l 56 0 l 56 -565 z m 600 -577 l 600 -577 q 664 -577 713 -560 q 761 -544 794 -512 l 794 -512 q 833 -476 849 -426 q 865 -377 865 -297 l 865 -297 l 865 0 l 334 0 l 334 -292 q 334 -349 341 -389 q 348 -429 364 -458 q 380 -488 405 -512 l 405 -512 q 438 -544 487 -560 q 535 -577 600 -577 z m 601 -463 l 601 -463 q 574 -463 555 -455 q 535 -447 522 -433 l 522 -433 q 505 -414 498 -383 q 490 -353 490 -294 l 490 -294 l 490 -114 l 709 -114 l 709 -288 q 709 -351 702 -382 q 694 -414 678 -433 l 678 -433 q 665 -447 646 -455 q 627 -463 601 -463 z"},"ദ":{"ha":669,"x_min":40,"x_max":638,"o":"m 396 -577 l 396 -577 q 476 -577 528 -555 q 579 -534 604 -497 q 629 -461 629 -416 l 629 -416 q 629 -369 609 -336 q 589 -303 539 -279 l 539 -279 l 539 -285 q 588 -267 613 -230 q 638 -194 638 -146 l 638 -146 q 638 -71 588 -29 q 537 12 436 12 l 436 12 q 402 12 371 8 q 340 4 315 -1 l 315 -1 l 335 -111 q 355 -107 373 -104 q 390 -102 409 -102 l 409 -102 q 448 -102 465 -115 q 482 -129 482 -159 l 482 -159 q 482 -174 476 -185 q 470 -197 459 -206 l 459 -206 q 447 -215 429 -219 q 410 -224 377 -224 l 377 -224 l 337 -224 l 337 -335 l 374 -335 q 404 -335 423 -340 q 441 -345 453 -356 l 453 -356 q 463 -363 468 -374 q 472 -385 472 -400 l 472 -400 q 472 -430 452 -447 q 431 -464 390 -464 l 390 -464 q 327 -464 285 -433 q 242 -402 220 -347 q 198 -292 198 -218 l 198 -218 q 198 -168 205 -118 q 211 -68 223 -25 l 223 -25 l 75 4 q 59 -46 50 -108 q 40 -170 40 -224 l 40 -224 q 40 -334 80 -412 q 120 -491 199 -534 q 278 -577 396 -577 z"},"ധ":{"ha":931,"x_min":35,"x_max":896,"o":"m 634 12 l 634 12 q 595 12 565 4 q 535 -4 510 -20 q 485 -36 459 -60 l 459 -60 l 474 -62 q 435 -23 393 -5 q 350 12 290 12 l 290 12 q 209 12 152 -23 q 95 -59 65 -121 q 35 -184 35 -263 l 35 -263 q 35 -327 50 -381 q 64 -436 93 -484 q 121 -532 160 -578 l 160 -578 l 279 -505 q 250 -465 231 -427 q 212 -389 203 -350 q 194 -312 194 -269 l 194 -269 q 194 -210 210 -173 q 226 -136 252 -119 q 278 -103 308 -103 l 308 -103 q 328 -103 342 -109 q 355 -116 363 -125 l 363 -125 q 377 -140 382 -164 q 387 -189 387 -232 l 387 -232 l 387 -565 l 544 -565 l 544 -233 q 544 -188 549 -164 q 553 -140 566 -124 l 566 -124 q 575 -115 589 -109 q 602 -103 623 -103 l 623 -103 q 651 -103 677 -119 q 703 -135 720 -171 q 737 -208 737 -267 l 737 -267 q 737 -309 728 -348 q 719 -388 701 -426 q 682 -465 652 -505 l 652 -505 l 771 -578 q 812 -530 839 -482 q 866 -434 881 -381 q 896 -328 896 -266 l 896 -266 q 896 -187 866 -124 q 836 -61 778 -24 q 719 12 634 12 z"},"ന":{"ha":931,"x_min":35,"x_max":896,"o":"m 296 -577 l 296 -577 q 337 -577 367 -569 q 396 -562 421 -546 q 446 -530 472 -506 l 472 -506 l 457 -504 q 495 -542 538 -559 q 581 -577 641 -577 l 641 -577 q 722 -577 779 -541 q 835 -506 866 -444 q 896 -383 896 -302 l 896 -302 q 896 -238 881 -184 q 866 -130 838 -82 q 810 -34 771 13 l 771 13 l 652 -60 q 681 -101 700 -139 q 719 -177 728 -215 q 737 -253 737 -296 l 737 -296 q 737 -355 721 -392 q 705 -429 679 -446 q 653 -463 623 -463 l 623 -463 q 603 -463 590 -456 q 576 -450 567 -441 l 567 -441 q 554 -426 549 -401 q 543 -377 543 -333 l 543 -333 l 543 0 l 387 0 l 387 -332 q 387 -377 382 -401 q 377 -425 364 -441 l 364 -441 q 356 -450 343 -456 q 329 -463 308 -463 l 308 -463 q 280 -463 254 -446 q 228 -430 211 -394 q 194 -358 194 -298 l 194 -298 q 194 -256 203 -216 q 212 -177 231 -139 q 249 -101 279 -60 l 279 -60 l 160 13 q 120 -35 92 -83 q 64 -131 50 -184 q 35 -238 35 -300 l 35 -300 q 35 -379 65 -441 q 95 -504 153 -540 q 211 -577 296 -577 z"},"ഩ":{"ha":1059,"x_min":35,"x_max":1024,"o":"m 378 -577 l 378 -577 q 461 -577 518 -553 q 575 -529 622 -477 l 622 -477 l 580 -498 q 617 -540 663 -558 q 709 -577 769 -577 l 769 -577 q 850 -577 907 -541 q 964 -506 994 -444 q 1024 -383 1024 -302 l 1024 -302 q 1024 -237 1009 -183 q 994 -129 966 -81 q 938 -34 899 13 l 899 13 l 780 -60 q 809 -101 828 -139 q 847 -177 856 -215 q 865 -253 865 -296 l 865 -296 q 865 -355 849 -392 q 833 -429 807 -446 q 781 -463 751 -463 l 751 -463 q 731 -463 718 -456 q 705 -450 696 -441 l 696 -441 q 682 -426 677 -401 q 672 -377 672 -334 l 672 -334 l 672 0 l 515 0 l 515 -280 q 515 -349 505 -382 q 495 -415 475 -433 l 475 -433 q 459 -447 436 -455 q 412 -463 376 -463 l 376 -463 q 321 -463 276 -438 q 230 -414 203 -365 q 176 -316 176 -242 l 176 -242 l 176 -236 q 176 -180 186 -150 q 195 -120 211 -108 q 227 -96 246 -96 l 246 -96 q 263 -96 274 -104 q 285 -112 291 -128 q 297 -144 297 -170 l 297 -170 q 297 -208 283 -226 q 269 -245 240 -245 l 240 -245 q 210 -245 183 -226 q 156 -207 122 -166 l 122 -166 l 104 -272 q 135 -303 180 -327 q 224 -352 281 -352 l 281 -352 q 336 -352 374 -330 q 411 -308 430 -269 q 448 -230 448 -178 l 448 -178 q 448 -118 426 -75 q 403 -33 359 -10 q 315 12 251 12 l 251 12 q 192 12 143 -13 q 94 -39 65 -95 q 35 -152 35 -244 l 35 -244 q 35 -353 80 -427 q 125 -502 203 -539 q 281 -577 378 -577 z"},"പ":{"ha":910,"x_min":28,"x_max":853,"o":"m 254 -367 l 254 -367 q 333 -367 382 -338 q 431 -310 454 -266 q 476 -223 476 -176 l 476 -176 q 476 -147 468 -120 q 459 -93 449 -73 l 449 -73 l 443 -114 l 697 -114 l 697 -565 l 853 -565 l 853 0 l 348 0 l 296 -64 q 306 -82 316 -107 q 325 -132 325 -166 l 325 -166 q 325 -202 309 -228 q 292 -254 255 -254 l 255 -254 q 231 -254 215 -242 q 199 -231 191 -211 q 183 -191 183 -167 l 183 -167 q 183 -126 196 -98 q 209 -70 225 -43 l 225 -43 l 101 12 q 68 -28 48 -72 q 28 -117 28 -174 l 28 -174 q 28 -233 56 -276 q 84 -319 135 -343 q 186 -367 254 -367 z"},"ഫ":{"ha":1160,"x_min":28,"x_max":1107,"o":"m 254 -367 l 254 -367 q 333 -367 382 -338 q 431 -310 454 -266 q 476 -223 476 -176 l 476 -176 q 476 -147 468 -120 q 459 -93 449 -73 l 449 -73 l 441 -114 l 680 -114 l 680 0 l 348 0 l 296 -64 q 306 -82 316 -107 q 325 -132 325 -166 l 325 -166 q 325 -202 309 -228 q 292 -254 255 -254 l 255 -254 q 231 -254 215 -242 q 199 -231 191 -211 q 183 -191 183 -167 l 183 -167 q 183 -126 196 -98 q 209 -70 225 -43 l 225 -43 l 101 12 q 68 -28 48 -72 q 28 -117 28 -174 l 28 -174 q 28 -233 56 -276 q 84 -319 135 -343 q 186 -367 254 -367 z m 842 -577 l 842 -577 q 906 -577 955 -560 q 1004 -544 1037 -512 l 1037 -512 q 1075 -476 1091 -426 q 1107 -377 1107 -297 l 1107 -297 l 1107 0 l 576 0 l 576 -292 q 576 -349 584 -389 q 591 -429 607 -458 q 622 -488 647 -512 l 647 -512 q 680 -544 729 -560 q 778 -577 842 -577 z m 843 -463 l 843 -463 q 816 -463 797 -455 q 778 -447 764 -433 l 764 -433 q 748 -414 740 -383 q 732 -353 732 -294 l 732 -294 l 732 -114 l 951 -114 l 951 -288 q 951 -351 944 -382 q 936 -414 920 -433 l 920 -433 q 907 -447 888 -455 q 869 -463 843 -463 z"},"ബ":{"ha":1351,"x_min":35,"x_max":1295,"o":"m 378 -577 l 378 -577 q 461 -577 518 -553 q 575 -529 623 -477 l 623 -477 l 649 -402 l 672 -280 l 672 0 l 515 0 l 515 -280 q 515 -349 505 -382 q 495 -415 475 -433 l 475 -433 q 459 -447 436 -455 q 412 -463 376 -463 l 376 -463 q 321 -463 276 -438 q 230 -414 203 -365 q 176 -316 176 -242 l 176 -242 l 176 -236 q 176 -180 186 -150 q 195 -120 211 -108 q 227 -96 246 -96 l 246 -96 q 263 -96 274 -104 q 285 -112 291 -128 q 297 -144 297 -170 l 297 -170 q 297 -208 283 -226 q 269 -245 240 -245 l 240 -245 q 210 -245 183 -226 q 156 -207 122 -166 l 122 -166 l 104 -272 q 135 -303 180 -327 q 224 -352 281 -352 l 281 -352 q 336 -352 374 -330 q 411 -308 430 -269 q 448 -230 448 -178 l 448 -178 q 448 -118 426 -75 q 403 -33 359 -10 q 315 12 251 12 l 251 12 q 192 12 143 -13 q 94 -39 65 -95 q 35 -152 35 -244 l 35 -244 q 35 -353 80 -427 q 125 -502 203 -539 q 281 -577 378 -577 z m 1138 -565 l 1295 -565 l 1295 0 l 838 0 l 785 -65 q 814 -110 832 -147 q 849 -185 857 -220 q 864 -256 864 -296 l 864 -296 q 864 -355 849 -392 q 833 -429 807 -446 q 781 -463 751 -463 l 751 -463 q 731 -463 718 -456 q 705 -450 696 -441 l 696 -441 q 682 -426 677 -401 q 672 -377 672 -334 l 672 -334 l 672 -5 l 525 -5 l 525 -237 l 568 -423 l 580 -498 q 617 -540 663 -558 q 708 -577 769 -577 l 769 -577 q 849 -577 906 -541 q 963 -506 993 -444 q 1023 -382 1023 -302 l 1023 -302 q 1023 -260 1016 -224 q 1009 -188 996 -156 q 983 -124 963 -94 l 963 -94 l 930 -114 l 1138 -114 l 1138 -565 z"},"ഭ":{"ha":703,"x_min":40,"x_max":675,"o":"m 425 -577 l 425 -577 q 503 -577 559 -559 q 614 -542 645 -507 q 675 -473 675 -423 l 675 -423 q 675 -394 667 -372 q 658 -350 641 -335 l 641 -335 q 621 -317 590 -309 q 558 -301 507 -301 l 507 -301 l 484 -301 q 464 -301 454 -299 q 444 -298 437 -295 l 437 -295 q 432 -291 429 -286 q 426 -282 426 -275 l 426 -275 q 426 -259 443 -255 q 460 -251 486 -251 l 486 -251 l 500 -251 q 550 -251 582 -243 q 613 -235 634 -218 l 634 -218 q 654 -202 664 -179 q 674 -157 674 -126 l 674 -126 q 674 -87 654 -55 q 634 -24 589 -6 q 544 12 470 12 l 470 12 q 430 12 396 9 q 362 5 332 -2 q 302 -9 273 -20 l 273 -20 l 319 -121 q 355 -110 388 -104 q 420 -98 457 -98 l 457 -98 q 499 -98 515 -105 q 530 -112 530 -125 l 530 -125 q 530 -138 520 -143 q 509 -149 488 -149 l 488 -149 l 477 -149 q 409 -149 371 -159 q 333 -170 312 -192 l 312 -192 q 299 -207 291 -227 q 282 -248 282 -274 l 282 -274 q 282 -303 293 -326 q 303 -349 323 -365 l 323 -365 q 346 -383 380 -392 q 413 -402 467 -402 l 467 -402 l 486 -402 q 509 -402 519 -407 q 528 -412 528 -425 l 528 -425 q 528 -446 500 -455 q 472 -464 424 -464 l 424 -464 q 344 -464 294 -434 q 244 -404 221 -349 q 198 -294 198 -218 l 198 -218 q 198 -168 205 -118 q 211 -68 223 -25 l 223 -25 l 75 4 q 59 -46 50 -108 q 40 -170 40 -224 l 40 -224 q 40 -334 81 -412 q 122 -491 208 -534 q 293 -577 425 -577 z"},"മ":{"ha":770,"x_min":51,"x_max":720,"o":"m 376 -577 l 376 -577 q 464 -577 527 -557 q 590 -538 632 -503 l 632 -503 q 662 -477 682 -444 q 701 -411 711 -365 q 720 -319 720 -254 l 720 -254 l 720 0 l 51 0 l 51 -254 q 51 -319 61 -365 q 70 -412 90 -446 q 110 -480 139 -504 l 139 -504 q 180 -540 238 -558 q 295 -577 376 -577 z m 299 -460 l 299 -460 q 277 -460 260 -447 q 243 -435 231 -414 l 231 -414 q 219 -393 213 -360 q 206 -328 206 -273 l 206 -273 l 206 -67 l 168 -69 q 217 -118 258 -171 q 299 -224 323 -279 q 347 -335 347 -390 l 347 -390 q 347 -411 343 -426 q 338 -442 328 -451 q 317 -460 299 -460 z m 501 -364 l 501 -364 q 501 -318 486 -274 q 471 -231 443 -189 q 415 -147 378 -104 l 378 -104 l 359 -109 q 380 -112 404 -112 q 428 -113 445 -113 l 445 -113 l 564 -113 l 564 -261 q 564 -324 553 -364 q 542 -405 519 -430 q 496 -455 458 -471 l 458 -471 l 460 -477 q 477 -458 489 -430 q 501 -402 501 -364 z"},"യ":{"ha":1073,"x_min":34,"x_max":1036,"o":"m 688 12 l 688 12 q 632 12 587 1 q 542 -10 496 -33 l 496 -33 q 489 -37 481 -43 q 472 -50 466 -55 l 466 -55 q 412 -89 378 -134 q 343 -179 327 -231 q 310 -284 310 -339 l 310 -339 q 310 -378 318 -409 q 326 -440 339 -464 l 339 -464 l 357 -486 q 376 -520 406 -540 q 435 -560 471 -568 q 507 -577 544 -577 l 544 -577 q 654 -577 715 -516 q 775 -456 775 -339 l 775 -339 q 775 -244 732 -172 q 688 -101 619 -56 l 619 -56 q 610 -50 603 -44 q 595 -39 585 -34 l 585 -34 q 541 -11 492 1 q 443 12 386 12 l 386 12 q 297 12 231 -13 q 165 -39 121 -85 q 77 -131 56 -193 q 34 -256 34 -330 l 34 -330 q 34 -403 61 -459 q 88 -515 143 -546 q 197 -577 278 -577 l 278 -577 q 340 -577 391 -552 q 441 -527 475 -472 l 475 -472 l 358 -411 q 341 -439 322 -451 q 302 -464 279 -464 l 279 -464 q 251 -464 232 -448 q 212 -433 202 -403 q 191 -374 191 -332 l 191 -332 q 191 -261 216 -208 q 241 -156 286 -127 q 331 -98 393 -98 l 393 -98 q 417 -98 437 -101 q 457 -105 475 -110 l 475 -110 q 484 -114 493 -115 q 501 -116 509 -120 l 509 -120 q 541 -139 566 -172 q 590 -206 604 -249 q 617 -292 617 -340 l 617 -340 q 617 -387 607 -414 q 596 -441 579 -452 q 562 -464 543 -464 l 543 -464 q 522 -464 505 -452 q 487 -440 477 -412 q 467 -385 467 -340 l 467 -340 q 467 -294 480 -252 q 492 -210 515 -176 q 537 -143 568 -122 l 568 -122 q 577 -117 586 -116 q 594 -115 604 -111 l 604 -111 q 619 -106 641 -102 q 662 -98 685 -98 l 685 -98 q 745 -98 788 -122 q 831 -146 854 -194 q 877 -242 877 -313 l 877 -313 q 877 -361 864 -410 q 850 -460 817 -511 l 817 -511 l 944 -577 q 991 -515 1014 -449 q 1036 -383 1036 -314 l 1036 -314 q 1036 -252 1020 -194 q 1003 -136 964 -89 q 925 -43 857 -15 q 789 12 688 12 z"},"ര":{"ha":772,"x_min":35,"x_max":738,"o":"m 375 -577 l 375 -577 q 468 -577 537 -550 q 605 -524 650 -477 q 694 -430 716 -368 q 738 -306 738 -236 l 738 -236 q 738 -152 712 -96 q 685 -41 634 -14 q 582 12 508 12 l 508 12 q 433 12 387 -17 q 341 -47 320 -96 q 298 -146 298 -205 l 298 -205 q 298 -300 346 -354 q 394 -409 484 -409 l 484 -409 q 539 -409 579 -380 q 619 -352 644 -307 q 669 -263 675 -214 l 675 -214 l 615 -212 q 610 -236 598 -256 q 586 -277 567 -290 q 548 -304 522 -304 l 522 -304 q 486 -304 468 -278 q 450 -253 450 -202 l 450 -202 q 450 -169 458 -146 q 465 -124 479 -112 q 493 -101 514 -101 l 514 -101 q 537 -101 553 -114 q 568 -128 577 -158 q 585 -188 585 -237 l 585 -237 q 585 -254 584 -272 q 582 -290 580 -306 l 580 -306 q 579 -311 580 -318 q 580 -326 578 -330 l 578 -330 q 572 -365 548 -395 q 524 -425 484 -443 q 443 -462 387 -462 l 387 -462 q 322 -462 280 -440 q 237 -419 216 -379 q 195 -339 195 -284 l 195 -284 q 195 -239 206 -201 q 216 -164 237 -129 q 257 -95 285 -60 l 285 -60 l 171 13 q 132 -26 101 -70 q 70 -114 53 -167 q 35 -221 35 -287 l 35 -287 q 35 -343 54 -395 q 73 -447 114 -488 q 154 -529 219 -553 q 284 -577 375 -577 z"},"റ":{"ha":697,"x_min":35,"x_max":662,"o":"m 349 -577 l 349 -577 q 436 -577 496 -552 q 556 -528 593 -486 q 629 -445 646 -393 q 662 -341 662 -286 l 662 -286 q 662 -220 645 -167 q 627 -114 596 -70 q 565 -26 524 13 l 524 13 l 410 -61 q 437 -94 458 -127 q 478 -161 490 -199 q 501 -238 501 -285 l 501 -285 q 501 -338 483 -378 q 464 -418 431 -440 q 397 -462 351 -462 l 351 -462 q 305 -462 270 -441 q 235 -420 216 -380 q 196 -341 196 -286 l 196 -286 q 196 -240 207 -202 q 217 -164 237 -130 q 257 -96 287 -61 l 287 -61 l 171 13 q 132 -26 101 -69 q 70 -113 53 -167 q 35 -221 35 -287 l 35 -287 q 35 -339 52 -390 q 68 -441 106 -483 q 143 -526 203 -551 q 263 -577 349 -577 z"},"ല":{"ha":877,"x_min":52,"x_max":821,"o":"m 664 -565 l 821 -565 l 821 0 l 52 0 l 52 -304 q 52 -385 71 -432 q 89 -480 121 -512 l 121 -512 q 152 -543 200 -560 q 247 -577 310 -577 l 310 -577 q 374 -577 421 -560 q 468 -543 499 -511 l 499 -511 q 534 -475 550 -426 q 566 -378 566 -303 l 566 -303 l 566 -212 l 208 -212 l 208 -114 l 664 -114 l 664 -565 z m 309 -464 l 309 -464 q 255 -464 232 -428 q 208 -393 208 -334 l 208 -334 l 208 -325 l 410 -325 l 410 -334 q 410 -395 385 -429 q 360 -464 309 -464 z"},"ള":{"ha":741,"x_min":33,"x_max":710,"o":"m 387 -465 l 387 -465 q 345 -465 309 -459 q 272 -454 244 -443 q 215 -432 196 -416 q 176 -400 168 -378 l 168 -378 q 164 -372 165 -367 q 166 -362 165 -355 l 165 -355 q 163 -348 162 -336 q 161 -324 161 -308 l 161 -308 q 161 -270 176 -250 q 190 -230 215 -230 l 215 -230 q 240 -230 251 -246 q 262 -262 262 -286 l 262 -286 q 262 -303 257 -315 q 251 -327 240 -333 q 229 -340 213 -340 l 213 -340 q 191 -340 172 -333 q 153 -326 130 -313 l 130 -313 l 65 -338 q 84 -360 114 -380 q 143 -401 179 -415 q 214 -429 250 -429 l 250 -429 q 303 -429 338 -410 q 372 -391 388 -358 q 404 -326 404 -285 l 404 -285 q 404 -243 387 -208 q 369 -173 329 -151 q 288 -130 220 -130 l 220 -130 q 165 -130 123 -152 q 81 -174 57 -217 q 33 -261 33 -322 l 33 -322 q 33 -372 54 -417 q 74 -463 118 -499 q 162 -535 232 -556 q 302 -577 402 -577 l 402 -577 q 501 -577 568 -557 q 634 -537 668 -499 q 701 -461 701 -407 l 701 -407 q 701 -363 678 -331 q 654 -300 608 -282 q 562 -264 497 -257 l 497 -257 l 455 -316 l 455 -339 l 462 -339 q 484 -339 500 -342 q 515 -345 526 -353 l 526 -353 q 536 -359 540 -369 q 544 -379 544 -393 l 544 -393 q 544 -417 529 -432 q 513 -448 479 -456 q 444 -465 387 -465 z m 710 -158 l 710 -158 q 710 -118 696 -89 q 681 -60 657 -40 l 657 -40 q 637 -25 612 -16 q 587 -8 551 -4 q 515 0 462 0 l 462 0 l 300 0 q 261 0 244 2 q 227 4 217 9 l 217 9 q 206 15 201 23 q 196 31 196 42 l 196 42 q 196 53 200 61 q 204 69 213 75 l 213 75 q 223 82 241 85 q 259 88 299 88 l 299 88 l 693 88 l 693 203 l 289 203 q 225 203 182 196 q 138 188 108 171 l 108 171 q 75 152 57 121 q 38 90 38 48 l 38 48 q 38 7 55 -24 q 71 -55 102 -75 l 102 -75 q 122 -89 147 -97 q 171 -105 206 -109 q 240 -113 290 -113 l 290 -113 l 446 -113 q 483 -113 503 -116 q 523 -119 535 -128 l 535 -128 q 544 -135 549 -145 q 554 -156 554 -170 l 554 -170 q 554 -186 548 -197 q 542 -209 530 -216 l 530 -216 q 520 -222 505 -224 q 490 -227 463 -227 l 463 -227 l 455 -227 l 455 -330 l 578 -304 q 646 -283 678 -246 q 710 -209 710 -158 z"},"ഴ":{"ha":698,"x_min":31,"x_max":668,"o":"m 259 -414 l 259 -414 q 259 -487 310 -532 q 360 -577 457 -577 l 457 -577 q 534 -577 580 -550 q 626 -523 647 -481 q 668 -439 668 -393 l 668 -393 q 668 -324 636 -271 q 603 -218 540 -187 q 477 -157 383 -157 l 383 -157 l 337 -157 q 240 -157 172 -186 q 103 -216 67 -271 q 31 -327 31 -403 l 31 -403 q 31 -446 46 -490 q 60 -535 88 -578 l 88 -578 l 217 -520 q 204 -491 196 -464 q 188 -438 188 -407 l 188 -407 q 188 -357 208 -324 q 228 -291 264 -274 q 299 -258 345 -258 l 345 -258 l 374 -258 q 420 -258 451 -275 q 482 -293 498 -325 q 513 -358 513 -400 l 513 -400 q 513 -431 501 -451 q 488 -471 460 -471 l 460 -471 q 444 -471 433 -463 q 421 -455 416 -441 q 410 -427 410 -409 l 410 -409 q 410 -376 422 -344 q 434 -313 450 -281 q 466 -249 479 -213 q 491 -178 491 -137 l 491 -137 q 491 -100 476 -65 q 460 -31 420 -9 q 380 12 309 12 l 309 12 q 264 12 220 5 q 176 -2 132 -20 l 132 -20 l 178 -125 q 207 -112 231 -107 q 255 -103 280 -103 l 280 -103 q 316 -103 329 -119 q 342 -136 342 -153 l 342 -153 q 342 -181 330 -210 q 317 -240 301 -272 q 284 -305 272 -340 q 259 -375 259 -414 z"},"വ":{"ha":988,"x_min":35,"x_max":932,"o":"m 349 -577 l 349 -577 q 435 -577 495 -553 q 554 -529 591 -488 q 627 -447 644 -396 q 660 -346 660 -293 l 660 -293 q 660 -234 646 -189 q 631 -145 605 -106 q 578 -68 543 -28 l 543 -28 l 581 -114 l 775 -114 l 775 -565 l 932 -565 l 932 0 l 478 0 l 419 -73 q 442 -101 461 -132 q 479 -163 490 -200 q 501 -238 501 -285 l 501 -285 q 501 -338 483 -378 q 464 -418 431 -440 q 397 -462 351 -462 l 351 -462 q 305 -462 270 -441 q 235 -420 216 -380 q 196 -341 196 -286 l 196 -286 q 196 -240 207 -202 q 217 -164 237 -129 q 257 -95 287 -60 l 287 -60 l 171 13 q 132 -25 101 -69 q 70 -113 53 -167 q 35 -221 35 -287 l 35 -287 q 35 -339 52 -390 q 68 -441 106 -483 q 143 -526 203 -551 q 263 -577 349 -577 z"},"ശ":{"ha":1076,"x_min":35,"x_max":1042,"o":"m 687 -577 l 687 -577 q 773 -577 840 -551 q 906 -526 951 -480 q 996 -434 1019 -372 q 1042 -310 1042 -236 l 1042 -236 q 1042 -152 1016 -96 q 989 -41 938 -14 q 886 12 812 12 l 812 12 q 737 12 691 -17 q 645 -47 624 -96 q 602 -146 602 -205 l 602 -205 q 602 -300 650 -354 q 698 -409 788 -409 l 788 -409 q 842 -409 883 -380 q 923 -352 948 -307 q 973 -263 979 -214 l 979 -214 l 918 -212 q 914 -236 902 -256 q 889 -277 870 -290 q 851 -304 826 -304 l 826 -304 q 789 -304 772 -278 q 754 -253 754 -202 l 754 -202 q 754 -169 761 -146 q 768 -124 783 -112 q 797 -101 818 -101 l 818 -101 q 840 -101 856 -114 q 872 -128 881 -158 q 889 -188 889 -237 l 889 -237 q 889 -254 888 -272 q 887 -290 884 -306 l 884 -306 q 883 -311 885 -318 q 886 -326 884 -329 l 884 -329 q 879 -364 855 -394 q 831 -424 791 -443 q 750 -462 694 -462 l 694 -462 q 654 -462 628 -454 q 602 -447 582 -431 l 582 -431 q 553 -406 543 -365 q 532 -325 532 -262 l 532 -262 l 532 -241 q 532 -176 518 -127 q 503 -79 470 -46 l 470 -46 q 440 -18 397 -3 q 353 12 293 12 l 293 12 q 211 12 154 -22 q 96 -56 66 -118 q 35 -180 35 -263 l 35 -263 q 35 -329 50 -383 q 65 -437 94 -484 q 122 -532 160 -578 l 160 -578 l 278 -505 q 250 -465 231 -427 q 212 -390 203 -351 q 194 -312 194 -268 l 194 -268 q 194 -207 207 -171 q 220 -135 243 -119 q 266 -103 292 -103 l 292 -103 q 313 -103 328 -110 q 343 -117 352 -130 l 352 -130 q 363 -146 368 -170 q 372 -194 372 -234 l 372 -234 l 372 -278 q 372 -368 397 -424 q 421 -481 464 -514 l 464 -514 q 506 -548 559 -562 q 612 -577 687 -577 z"},"ഷ":{"ha":1208,"x_min":28,"x_max":1151,"o":"m 254 -367 l 254 -367 q 333 -367 382 -338 q 431 -310 454 -266 q 476 -223 476 -176 l 476 -176 q 476 -147 468 -120 q 459 -93 449 -73 l 449 -73 l 443 -114 l 698 -114 l 729 0 l 348 0 l 296 -64 q 306 -82 316 -107 q 325 -132 325 -166 l 325 -166 q 325 -202 309 -228 q 292 -254 255 -254 l 255 -254 q 231 -254 215 -242 q 199 -231 191 -211 q 183 -191 183 -167 l 183 -167 q 183 -126 196 -98 q 209 -70 225 -43 l 225 -43 l 101 12 q 68 -28 48 -72 q 28 -117 28 -174 l 28 -174 q 28 -233 56 -276 q 84 -319 135 -343 q 186 -367 254 -367 z m 1151 0 l 675 0 l 675 -396 q 675 -417 673 -430 q 671 -444 666 -452 l 666 -452 q 662 -458 655 -461 q 648 -465 638 -465 l 638 -465 q 619 -465 607 -451 q 595 -437 595 -409 l 595 -409 q 595 -389 602 -372 q 609 -355 630 -345 q 651 -335 691 -335 l 691 -335 l 741 -335 q 792 -335 832 -356 q 872 -377 903 -411 q 933 -446 956 -486 q 979 -527 998 -565 l 998 -565 l 1151 -565 l 1151 0 z m 641 -577 l 641 -577 q 684 -577 717 -567 q 749 -557 772 -538 l 772 -538 q 800 -515 814 -477 q 828 -440 828 -380 l 828 -380 l 828 -114 l 997 -114 l 997 -283 q 997 -305 998 -324 q 999 -344 1001 -361 q 1003 -379 1004 -391 l 1004 -391 l 1007 -378 q 979 -327 938 -293 q 897 -259 851 -242 q 804 -226 758 -226 l 758 -226 l 693 -226 q 604 -226 551 -251 q 497 -277 474 -319 q 451 -361 451 -411 l 451 -411 q 451 -455 473 -492 q 494 -530 537 -553 q 579 -577 641 -577 z"},"സ":{"ha":1245,"x_min":35,"x_max":1210,"o":"m 637 -577 l 637 -577 q 690 -577 731 -562 q 772 -548 802 -519 l 802 -519 q 825 -498 839 -470 q 853 -442 860 -404 q 867 -367 867 -318 l 867 -318 l 867 -249 q 867 -200 872 -173 q 876 -146 889 -130 l 889 -130 q 899 -116 914 -109 q 929 -103 951 -103 l 951 -103 q 979 -103 1002 -119 q 1024 -135 1038 -171 q 1051 -207 1051 -268 l 1051 -268 q 1051 -312 1042 -351 q 1033 -390 1015 -427 q 996 -465 967 -505 l 967 -505 l 1085 -578 q 1124 -532 1152 -484 q 1180 -437 1195 -383 q 1210 -329 1210 -263 l 1210 -263 q 1210 -180 1179 -118 q 1148 -56 1090 -22 q 1031 12 949 12 l 949 12 q 888 12 845 -2 q 802 -17 772 -46 l 772 -46 q 749 -68 735 -97 q 721 -127 715 -165 q 708 -204 708 -251 l 708 -251 l 708 -312 q 708 -364 704 -391 q 699 -418 686 -435 l 686 -435 q 676 -449 661 -455 q 646 -462 624 -462 l 624 -462 q 606 -462 591 -456 q 575 -450 565 -439 l 565 -439 q 551 -423 546 -397 q 540 -372 540 -327 l 540 -327 l 540 0 l 383 0 l 383 -323 q 383 -373 379 -398 q 375 -424 360 -440 l 360 -440 q 350 -451 335 -457 q 320 -463 305 -463 l 305 -463 q 275 -463 250 -445 q 225 -428 210 -391 q 194 -355 194 -296 l 194 -296 q 194 -255 203 -216 q 212 -178 231 -140 q 249 -102 279 -61 l 279 -61 l 160 12 q 120 -35 92 -83 q 64 -131 50 -185 q 35 -239 35 -302 l 35 -302 q 35 -383 65 -444 q 95 -506 152 -541 q 208 -577 288 -577 l 288 -577 q 347 -577 390 -559 q 432 -542 471 -502 l 471 -502 l 454 -499 q 489 -536 531 -556 q 572 -577 637 -577 z"},"ഹ":{"ha":1225,"x_min":28,"x_max":1190,"o":"m 254 -367 l 254 -367 q 333 -367 382 -338 q 431 -310 454 -266 q 476 -223 476 -176 l 476 -176 q 476 -147 468 -120 q 459 -93 449 -73 l 449 -73 l 443 -114 l 687 -114 l 730 0 l 348 0 l 296 -64 q 306 -82 316 -107 q 325 -132 325 -166 l 325 -166 q 325 -202 309 -228 q 292 -254 255 -254 l 255 -254 q 231 -254 215 -242 q 199 -231 191 -211 q 183 -191 183 -167 l 183 -167 q 183 -126 196 -98 q 209 -70 225 -43 l 225 -43 l 101 12 q 68 -28 48 -72 q 28 -117 28 -174 l 28 -174 q 28 -233 56 -276 q 84 -319 135 -343 q 186 -367 254 -367 z m 877 -577 l 877 -577 q 963 -577 1023 -552 q 1083 -528 1120 -486 q 1157 -445 1174 -393 q 1190 -341 1190 -286 l 1190 -286 q 1190 -220 1173 -167 q 1155 -114 1124 -70 q 1093 -26 1052 13 l 1052 13 l 937 -60 q 965 -93 986 -126 q 1006 -160 1017 -199 q 1028 -238 1028 -285 l 1028 -285 q 1028 -338 1010 -378 q 992 -418 959 -440 q 925 -462 879 -462 l 879 -462 q 832 -462 798 -441 q 763 -420 744 -380 q 724 -341 724 -286 l 724 -286 q 724 -241 734 -204 q 744 -168 762 -136 q 780 -104 805 -73 l 805 -73 l 747 0 l 701 0 l 669 -41 q 639 -77 615 -113 q 591 -150 578 -193 q 564 -236 564 -291 l 564 -291 q 564 -342 581 -392 q 598 -443 635 -484 q 671 -526 731 -551 q 790 -577 877 -577 z"},"ഺ":{"ha":718,"x_min":17,"x_max":699,"o":"m 189 -114 l 699 -114 l 699 0 l 470 0 l 470 202 l 314 202 l 314 0 l 91 0 l 17 -93 l 197 -570 l 346 -521 l 189 -114 z"},"഻":{"ha":0,"x_min":-331,"x_max":-226,"o":"m -331 -599 l -331 -864 l -226 -864 l -226 -599 l -331 -599 z"},"഼":{"ha":0,"x_min":-279,"x_max":17,"o":"m -279 -728 l -279 -728 q -279 -787 -240 -825 q -201 -864 -132 -864 l -132 -864 q -62 -864 -22 -826 q 17 -788 17 -728 l 17 -728 q 17 -670 -22 -631 q -61 -592 -131 -592 l -131 -592 q -202 -592 -240 -630 q -279 -669 -279 -728 z m -176 -729 l -176 -729 q -176 -707 -164 -693 q -153 -679 -132 -679 l -132 -679 q -109 -679 -97 -693 q -86 -707 -86 -729 l -86 -729 q -86 -751 -98 -764 q -110 -777 -132 -777 l -132 -777 q -153 -777 -164 -764 q -176 -751 -176 -729 z"},"ഽ":{"ha":498,"x_min":-77,"x_max":576,"o":"m 381 -802 l 381 -802 q 440 -802 479 -780 q 517 -758 540 -722 q 563 -687 576 -645 l 576 -645 l 433 -616 q 428 -641 421 -657 q 414 -673 404 -681 q 394 -689 380 -689 l 380 -689 q 368 -689 359 -684 q 349 -679 343 -670 l 343 -670 q 335 -658 332 -635 q 329 -613 329 -569 l 329 -569 l 329 -40 q 329 47 317 101 q 305 154 268 190 l 268 190 q 243 215 206 230 q 169 244 118 244 l 118 244 q 59 244 20 222 q -19 200 -41 164 q -64 128 -77 86 l -77 86 l 65 57 q 71 82 78 99 q 85 115 95 123 q 105 130 119 130 l 119 130 q 132 130 141 125 q 150 120 155 111 l 155 111 q 165 97 168 74 q 170 51 170 10 l 170 10 l 170 -518 q 170 -603 182 -658 q 194 -713 231 -748 l 231 -748 q 256 -774 293 -788 q 329 -802 381 -802 z"},"ാ":{"ha":546,"x_min":17,"x_max":509,"o":"m 509 -285 l 509 -285 q 509 -221 497 -167 q 485 -113 457 -72 q 428 -32 380 -10 q 332 12 258 12 l 258 12 q 193 12 150 -5 q 106 -23 80 -51 q 53 -80 39 -114 q 24 -149 17 -184 l 17 -184 l 176 -212 q 183 -183 192 -157 q 201 -132 218 -116 q 234 -101 261 -101 l 261 -101 q 292 -101 312 -122 q 331 -144 340 -185 q 348 -226 348 -284 l 348 -284 q 348 -341 340 -381 q 331 -421 312 -442 q 293 -464 263 -464 l 263 -464 q 238 -464 222 -449 q 205 -434 195 -409 q 185 -385 179 -354 l 179 -354 l 19 -382 q 30 -418 47 -453 q 64 -488 92 -516 q 120 -544 163 -560 q 206 -577 268 -577 l 268 -577 q 338 -577 385 -554 q 431 -531 459 -491 q 486 -451 498 -398 q 509 -345 509 -285 z"},"ി":{"ha":270,"x_min":-234,"x_max":213,"o":"m -17 -852 l -17 -852 q 28 -852 64 -842 q 100 -832 126 -812 l 126 -812 q 159 -789 178 -756 q 196 -724 205 -677 q 213 -630 213 -562 l 213 -562 l 213 0 l 56 0 l 56 -539 q 56 -588 54 -622 q 52 -657 46 -680 q 40 -703 30 -716 l 30 -716 q 21 -727 10 -732 q -2 -738 -20 -738 l -20 -738 q -36 -738 -49 -731 q -63 -724 -70 -710 q -77 -696 -77 -677 l -77 -677 q -77 -667 -75 -656 q -74 -646 -72 -639 l -72 -639 l -226 -621 q -229 -633 -231 -647 q -234 -662 -234 -679 l -234 -679 q -234 -737 -206 -775 q -179 -813 -130 -832 q -81 -852 -17 -852 z"},"ീ":{"ha":270,"x_min":-279,"x_max":213,"o":"m -84 -852 l -84 -852 q -24 -852 22 -839 q 68 -827 108 -800 l 108 -800 q 168 -759 191 -692 q 213 -626 213 -520 l 213 -520 l 213 0 l 56 0 l 56 -513 q 56 -582 51 -627 q 45 -673 32 -701 q 18 -730 -7 -745 l -7 -745 q -25 -754 -48 -758 q -72 -762 -100 -762 l -100 -762 q -116 -762 -131 -757 q -146 -753 -155 -742 q -164 -731 -164 -712 l -164 -712 q -164 -696 -154 -685 q -145 -674 -127 -674 l -127 -674 q -104 -674 -96 -687 q -88 -700 -88 -720 l -88 -720 q -88 -744 -101 -763 q -114 -782 -134 -796 l -134 -796 l -4 -779 q 5 -769 12 -749 q 18 -730 18 -708 l 18 -708 q 18 -674 3 -644 q -13 -615 -45 -597 q -77 -579 -129 -579 l -129 -579 q -176 -579 -210 -594 q -244 -610 -261 -639 q -279 -668 -279 -710 l -279 -710 q -279 -751 -258 -783 q -238 -815 -195 -833 q -152 -852 -84 -852 z"},"ു":{"ha":367,"x_min":-29,"x_max":375,"o":"m 173 238 l 173 238 q 77 238 24 186 q -29 134 -29 53 l -29 53 q -29 -2 -5 -43 q 19 -85 64 -108 q 109 -132 172 -132 l 172 -132 q 235 -132 281 -109 q 326 -86 351 -44 q 375 -3 375 54 l 375 54 q 375 110 351 152 q 326 193 281 216 q 236 238 173 238 z m 173 132 l 173 132 q 202 132 220 113 q 238 93 238 53 l 238 53 q 238 14 221 -6 q 203 -26 173 -26 l 173 -26 q 144 -26 126 -6 q 108 13 108 53 l 108 53 q 108 92 126 112 q 144 132 173 132 z m 141 -577 l 141 -577 q 204 -577 242 -553 q 280 -529 297 -490 q 313 -451 313 -405 l 313 -405 q 313 -328 296 -257 q 279 -186 253 -101 l 253 -101 l 108 -116 q 130 -190 143 -256 q 155 -322 155 -379 l 155 -379 q 155 -414 143 -438 q 130 -462 95 -462 l 95 -462 q 83 -462 71 -460 q 59 -459 46 -455 l 46 -455 l 23 -564 q 47 -569 75 -573 q 103 -577 141 -577 z"},"ൂ":{"ha":367,"x_min":-29,"x_max":375,"o":"m 174 238 l 174 238 q 77 238 24 186 q -29 134 -29 53 l -29 53 q -29 -2 -5 -43 q 19 -85 64 -108 q 109 -132 172 -132 l 172 -132 q 235 -132 281 -109 q 326 -86 351 -44 q 375 -3 375 54 l 375 54 q 375 110 351 152 q 326 193 281 216 q 236 238 174 238 z m 173 -38 l 173 -38 q 136 -38 109 -16 q 82 6 82 54 l 82 54 q 82 101 109 123 q 135 145 174 145 l 174 145 q 211 145 238 124 q 264 102 264 53 l 264 53 q 264 6 239 -16 q 213 -38 173 -38 z m 174 101 l 174 101 q 121 101 95 69 q 68 37 68 -16 l 68 -16 q 68 -34 79 -55 q 89 -77 107 -101 l 107 -101 l 155 -77 q 139 -68 130 -55 q 120 -43 120 -29 l 120 -29 q 120 -14 127 -3 q 134 7 147 12 q 159 17 175 17 l 175 17 q 192 17 205 11 q 217 5 223 -5 q 229 -15 229 -28 l 229 -28 q 229 -40 221 -52 q 213 -64 196 -72 l 196 -72 l 243 -101 q 264 -77 273 -57 q 281 -37 281 -15 l 281 -15 q 281 15 271 42 q 261 68 238 85 q 214 101 174 101 z m 141 -577 l 141 -577 q 204 -577 242 -553 q 280 -529 297 -490 q 313 -451 313 -405 l 313 -405 q 313 -328 296 -257 q 279 -186 253 -101 l 253 -101 l 108 -116 q 130 -190 143 -256 q 155 -322 155 -379 l 155 -379 q 155 -414 143 -438 q 130 -462 95 -462 l 95 -462 q 83 -462 71 -460 q 59 -459 46 -455 l 46 -455 l 23 -564 q 47 -569 75 -573 q 103 -577 141 -577 z"},"ൃ":{"ha":290,"x_min":-146,"x_max":289,"o":"m 56 335 l 56 335 q -8 335 -53 317 q -99 299 -122 263 q -146 227 -146 173 l -146 173 q -146 106 -99 64 q -52 22 36 22 l 36 22 q 78 22 115 35 q 152 47 196 79 l 196 79 l 158 169 q 133 149 109 139 q 84 129 54 129 l 54 129 q 28 129 14 141 q 0 153 0 176 l 0 176 q 0 199 15 211 q 30 222 55 222 l 55 222 q 83 222 101 212 q 118 202 128 180 q 137 158 137 122 l 137 122 q 137 102 133 75 q 128 48 117 13 q 106 -23 89 -69 l 89 -69 q 66 -129 51 -188 q 36 -247 36 -308 l 36 -308 q 36 -382 57 -446 q 77 -510 107 -565 l 107 -565 l 267 -565 q 242 -517 226 -475 q 209 -434 201 -396 q 193 -358 193 -317 l 193 -317 q 193 -268 204 -221 q 215 -175 236 -117 l 236 -117 q 254 -65 266 -24 q 278 16 284 51 q 289 85 289 120 l 289 120 q 289 196 258 244 q 226 291 173 313 q 120 335 56 335 z"},"ൄ":{"ha":290,"x_min":-282,"x_max":288,"o":"m -24 335 l -24 335 q -108 335 -165 314 q -223 293 -252 253 q -282 213 -282 156 l -282 156 q -282 97 -246 61 q -211 24 -155 24 l -155 24 q -121 24 -99 38 q -78 51 -62 72 l -62 72 l -78 71 q -62 50 -41 37 q -21 24 7 24 l 7 24 q 41 24 62 36 q 82 48 93 67 q 103 86 107 107 q 110 128 110 146 l 110 146 l 110 177 l 22 177 l 22 160 q 22 142 18 132 q 13 121 -2 121 l -2 121 q -17 121 -22 132 q -27 143 -27 159 l -27 159 l -27 177 l -113 177 l -113 159 q -113 140 -119 131 q -125 121 -138 121 l -138 121 q -152 121 -158 131 q -165 140 -165 155 l -165 155 q -165 189 -131 207 q -97 224 -24 224 l -24 224 q 50 224 91 199 q 132 174 132 115 l 132 115 q 132 91 128 66 q 123 40 114 8 q 105 -25 89 -68 l 89 -68 q 67 -128 52 -186 q 36 -244 36 -308 l 36 -308 q 36 -382 57 -446 q 77 -510 107 -565 l 107 -565 l 267 -565 q 242 -517 226 -475 q 209 -434 201 -396 q 193 -358 193 -317 l 193 -317 q 193 -268 205 -221 q 216 -174 236 -115 l 236 -115 q 254 -65 266 -26 q 277 13 283 47 q 288 81 288 117 l 288 117 q 288 182 256 231 q 223 279 155 307 q 86 335 -24 335 z"},"െ":{"ha":747,"x_min":35,"x_max":712,"o":"m 252 12 l 252 12 q 193 12 144 -13 q 94 -39 65 -95 q 35 -151 35 -241 l 35 -241 q 35 -315 59 -376 q 83 -438 129 -483 q 175 -528 242 -552 q 309 -577 394 -577 l 394 -577 q 480 -577 541 -553 q 601 -529 639 -488 q 677 -447 695 -394 q 712 -342 712 -285 l 712 -285 q 712 -219 694 -165 q 676 -112 646 -69 q 615 -26 574 13 l 574 13 l 461 -60 q 488 -93 509 -126 q 529 -160 541 -198 q 552 -236 552 -283 l 552 -283 q 552 -337 534 -377 q 515 -418 477 -440 q 439 -462 381 -462 l 381 -462 q 320 -462 274 -433 q 227 -405 202 -354 q 176 -304 176 -239 l 176 -239 q 176 -182 186 -151 q 195 -120 211 -108 q 227 -96 246 -96 l 246 -96 q 263 -96 274 -104 q 285 -112 291 -128 q 297 -144 297 -169 l 297 -169 q 297 -207 283 -226 q 269 -245 240 -245 l 240 -245 q 210 -245 183 -226 q 156 -207 122 -166 l 122 -166 l 104 -272 q 135 -303 179 -327 q 222 -352 280 -352 l 280 -352 q 336 -352 373 -330 q 410 -308 429 -269 q 448 -230 448 -177 l 448 -177 q 448 -118 426 -76 q 403 -34 360 -11 q 316 12 252 12 z"},"േ":{"ha":623,"x_min":33,"x_max":590,"o":"m 369 12 l 369 12 q 297 12 236 -5 q 174 -22 129 -58 q 83 -94 58 -150 q 33 -207 33 -286 l 33 -286 q 33 -361 59 -416 q 85 -471 132 -506 q 178 -542 241 -559 q 303 -577 376 -577 l 376 -577 q 456 -577 503 -556 q 550 -536 570 -501 q 590 -467 590 -427 l 590 -427 q 590 -381 570 -350 q 550 -320 514 -304 q 477 -289 427 -289 l 427 -289 q 365 -289 330 -307 q 295 -326 281 -356 q 266 -387 266 -422 l 266 -422 q 266 -443 273 -463 q 279 -483 286 -496 l 286 -496 l 416 -510 q 400 -496 390 -476 q 380 -456 380 -432 l 380 -432 q 380 -409 390 -397 q 400 -385 420 -385 l 420 -385 q 441 -385 451 -395 q 460 -406 460 -424 l 460 -424 q 460 -448 444 -461 q 427 -475 397 -475 l 397 -475 q 382 -475 367 -475 q 352 -475 341 -473 l 341 -473 q 292 -471 258 -447 q 224 -423 206 -381 q 187 -340 187 -285 l 187 -285 q 187 -230 203 -188 q 218 -146 251 -121 q 284 -96 335 -92 l 335 -92 q 345 -91 360 -90 q 375 -90 389 -90 l 389 -90 q 411 -90 426 -97 q 440 -104 447 -115 q 453 -126 453 -141 l 453 -141 q 453 -160 445 -171 q 436 -182 417 -182 l 417 -182 q 396 -182 386 -169 q 375 -156 375 -133 l 375 -133 q 375 -110 384 -91 q 392 -72 409 -57 l 409 -57 l 276 -75 q 271 -87 266 -105 q 260 -124 260 -144 l 260 -144 q 260 -178 275 -208 q 290 -239 325 -258 q 360 -277 422 -277 l 422 -277 q 471 -277 508 -261 q 544 -246 564 -215 q 584 -184 584 -137 l 584 -137 q 584 -97 563 -63 q 541 -29 494 -8 q 447 12 369 12 z"},"ൈ":{"ha":1494,"x_min":35,"x_max":1459,"o":"m 252 12 l 252 12 q 193 12 144 -13 q 94 -39 65 -95 q 35 -151 35 -241 l 35 -241 q 35 -315 59 -376 q 83 -438 129 -483 q 175 -528 242 -552 q 309 -577 394 -577 l 394 -577 q 480 -577 541 -553 q 601 -529 639 -488 q 677 -447 695 -394 q 712 -342 712 -285 l 712 -285 q 712 -219 694 -165 q 676 -112 646 -69 q 615 -26 574 13 l 574 13 l 461 -60 q 488 -93 509 -126 q 529 -160 541 -198 q 552 -236 552 -283 l 552 -283 q 552 -337 534 -377 q 515 -418 477 -440 q 439 -462 381 -462 l 381 -462 q 320 -462 274 -433 q 227 -405 202 -354 q 176 -304 176 -239 l 176 -239 q 176 -182 186 -151 q 195 -120 211 -108 q 227 -96 246 -96 l 246 -96 q 263 -96 274 -104 q 285 -112 291 -128 q 297 -144 297 -169 l 297 -169 q 297 -207 283 -226 q 269 -245 240 -245 l 240 -245 q 210 -245 183 -226 q 156 -207 122 -166 l 122 -166 l 104 -272 q 135 -303 179 -327 q 222 -352 280 -352 l 280 -352 q 336 -352 373 -330 q 410 -308 429 -269 q 448 -230 448 -177 l 448 -177 q 448 -118 426 -76 q 403 -34 360 -11 q 316 12 252 12 z m 999 12 l 999 12 q 940 12 891 -13 q 841 -39 812 -95 q 782 -151 782 -241 l 782 -241 q 782 -315 806 -376 q 830 -438 876 -483 q 922 -528 989 -552 q 1056 -577 1141 -577 l 1141 -577 q 1227 -577 1288 -553 q 1348 -529 1386 -488 q 1424 -447 1442 -394 q 1459 -342 1459 -285 l 1459 -285 q 1459 -219 1441 -165 q 1423 -112 1393 -69 q 1362 -26 1321 13 l 1321 13 l 1208 -60 q 1235 -93 1256 -126 q 1276 -160 1288 -198 q 1299 -236 1299 -283 l 1299 -283 q 1299 -337 1281 -377 q 1262 -418 1224 -440 q 1186 -462 1128 -462 l 1128 -462 q 1067 -462 1021 -433 q 974 -405 949 -354 q 923 -304 923 -239 l 923 -239 q 923 -182 933 -151 q 942 -120 958 -108 q 974 -96 993 -96 l 993 -96 q 1010 -96 1021 -104 q 1032 -112 1038 -128 q 1044 -144 1044 -169 l 1044 -169 q 1044 -207 1030 -226 q 1016 -245 987 -245 l 987 -245 q 957 -245 930 -226 q 903 -207 869 -166 l 869 -166 l 851 -272 q 882 -303 926 -327 q 969 -352 1027 -352 l 1027 -352 q 1083 -352 1120 -330 q 1157 -308 1176 -269 q 1195 -230 1195 -177 l 1195 -177 q 1195 -118 1173 -76 q 1150 -34 1107 -11 q 1063 12 999 12 z"},"ൊ":{"ha":1493,"x_min":35,"x_max":1456,"o":"m 252 12 l 252 12 q 193 12 144 -13 q 94 -39 65 -95 q 35 -151 35 -241 l 35 -241 q 35 -315 59 -376 q 83 -438 129 -483 q 175 -528 242 -552 q 309 -577 394 -577 l 394 -577 q 480 -577 541 -553 q 601 -529 639 -488 q 677 -447 695 -394 q 712 -342 712 -285 l 712 -285 q 712 -219 694 -165 q 676 -112 646 -69 q 615 -26 574 13 l 574 13 l 461 -60 q 488 -93 509 -126 q 529 -160 541 -198 q 552 -236 552 -283 l 552 -283 q 552 -337 534 -377 q 515 -418 477 -440 q 439 -462 381 -462 l 381 -462 q 320 -462 274 -433 q 227 -405 202 -354 q 176 -304 176 -239 l 176 -239 q 176 -182 186 -151 q 195 -120 211 -108 q 227 -96 246 -96 l 246 -96 q 263 -96 274 -104 q 285 -112 291 -128 q 297 -144 297 -169 l 297 -169 q 297 -207 283 -226 q 269 -245 240 -245 l 240 -245 q 210 -245 183 -226 q 156 -207 122 -166 l 122 -166 l 104 -272 q 135 -303 179 -327 q 222 -352 280 -352 l 280 -352 q 336 -352 373 -330 q 410 -308 429 -269 q 448 -230 448 -177 l 448 -177 q 448 -118 426 -76 q 403 -34 360 -11 q 316 12 252 12 z m 856 -208 l 856 -208 q 817 -208 792 -229 q 766 -251 766 -296 l 766 -296 q 766 -342 792 -363 q 817 -384 856 -384 l 856 -384 q 895 -384 920 -363 q 945 -342 945 -296 l 945 -296 q 945 -251 920 -229 q 895 -208 856 -208 z m 1456 -285 l 1456 -285 q 1456 -221 1444 -167 q 1432 -113 1404 -72 q 1375 -32 1327 -10 q 1279 12 1205 12 l 1205 12 q 1140 12 1097 -5 q 1053 -23 1027 -51 q 1000 -80 986 -114 q 971 -149 964 -184 l 964 -184 l 1123 -212 q 1130 -183 1139 -157 q 1148 -132 1165 -116 q 1181 -101 1208 -101 l 1208 -101 q 1239 -101 1259 -122 q 1278 -144 1287 -185 q 1295 -226 1295 -284 l 1295 -284 q 1295 -341 1287 -381 q 1278 -421 1259 -442 q 1240 -464 1210 -464 l 1210 -464 q 1185 -464 1169 -449 q 1152 -434 1142 -409 q 1132 -385 1126 -354 l 1126 -354 l 966 -382 q 977 -418 994 -453 q 1011 -488 1039 -516 q 1067 -544 1110 -560 q 1153 -577 1215 -577 l 1215 -577 q 1285 -577 1332 -554 q 1378 -531 1406 -491 q 1433 -451 1445 -398 q 1456 -345 1456 -285 z"},"ോ":{"ha":1347,"x_min":33,"x_max":1310,"o":"m 369 12 l 369 12 q 297 12 236 -5 q 174 -22 129 -58 q 83 -94 58 -150 q 33 -207 33 -286 l 33 -286 q 33 -361 59 -416 q 85 -471 132 -506 q 178 -542 241 -559 q 303 -577 376 -577 l 376 -577 q 456 -577 503 -556 q 550 -536 570 -501 q 590 -467 590 -427 l 590 -427 q 590 -381 570 -350 q 550 -320 514 -304 q 477 -289 427 -289 l 427 -289 q 365 -289 330 -307 q 295 -326 281 -356 q 266 -387 266 -422 l 266 -422 q 266 -443 273 -463 q 279 -483 286 -496 l 286 -496 l 416 -510 q 400 -496 390 -476 q 380 -456 380 -432 l 380 -432 q 380 -409 390 -397 q 400 -385 420 -385 l 420 -385 q 441 -385 451 -395 q 460 -406 460 -424 l 460 -424 q 460 -448 444 -461 q 427 -475 397 -475 l 397 -475 q 382 -475 367 -475 q 352 -475 341 -473 l 341 -473 q 292 -471 258 -447 q 224 -423 206 -381 q 187 -340 187 -285 l 187 -285 q 187 -230 203 -188 q 218 -146 251 -121 q 284 -96 335 -92 l 335 -92 q 345 -91 360 -90 q 375 -90 389 -90 l 389 -90 q 411 -90 426 -97 q 440 -104 447 -115 q 453 -126 453 -141 l 453 -141 q 453 -160 445 -171 q 436 -182 417 -182 l 417 -182 q 396 -182 386 -169 q 375 -156 375 -133 l 375 -133 q 375 -110 384 -91 q 392 -72 409 -57 l 409 -57 l 276 -75 q 271 -87 266 -105 q 260 -124 260 -144 l 260 -144 q 260 -178 275 -208 q 290 -239 325 -258 q 360 -277 422 -277 l 422 -277 q 471 -277 508 -261 q 544 -246 564 -215 q 584 -184 584 -137 l 584 -137 q 584 -97 563 -63 q 541 -29 494 -8 q 447 12 369 12 z m 710 -208 l 710 -208 q 671 -208 646 -229 q 620 -251 620 -296 l 620 -296 q 620 -342 646 -363 q 671 -384 710 -384 l 710 -384 q 749 -384 774 -363 q 799 -342 799 -296 l 799 -296 q 799 -251 774 -229 q 749 -208 710 -208 z m 1310 -285 l 1310 -285 q 1310 -221 1298 -167 q 1286 -113 1258 -72 q 1229 -32 1181 -10 q 1133 12 1059 12 l 1059 12 q 994 12 951 -5 q 907 -23 881 -51 q 854 -80 840 -114 q 825 -149 818 -184 l 818 -184 l 977 -212 q 984 -183 993 -157 q 1002 -132 1019 -116 q 1035 -101 1062 -101 l 1062 -101 q 1093 -101 1113 -122 q 1132 -144 1141 -185 q 1149 -226 1149 -284 l 1149 -284 q 1149 -341 1141 -381 q 1132 -421 1113 -442 q 1094 -464 1064 -464 l 1064 -464 q 1039 -464 1023 -449 q 1006 -434 996 -409 q 986 -385 980 -354 l 980 -354 l 820 -382 q 831 -418 848 -453 q 865 -488 893 -516 q 921 -544 964 -560 q 1007 -577 1069 -577 l 1069 -577 q 1139 -577 1186 -554 q 1232 -531 1260 -491 q 1287 -451 1299 -398 q 1310 -345 1310 -285 z"},"ൌ":{"ha":1747,"x_min":35,"x_max":1712,"o":"m 252 12 l 252 12 q 193 12 144 -13 q 94 -39 65 -95 q 35 -151 35 -241 l 35 -241 q 35 -315 59 -376 q 83 -438 129 -483 q 175 -528 242 -552 q 309 -577 394 -577 l 394 -577 q 480 -577 541 -553 q 601 -529 639 -488 q 677 -447 695 -394 q 712 -342 712 -285 l 712 -285 q 712 -219 694 -165 q 676 -112 646 -69 q 615 -26 574 13 l 574 13 l 461 -60 q 488 -93 509 -126 q 529 -160 541 -198 q 552 -236 552 -283 l 552 -283 q 552 -337 534 -377 q 515 -418 477 -440 q 439 -462 381 -462 l 381 -462 q 320 -462 274 -433 q 227 -405 202 -354 q 176 -304 176 -239 l 176 -239 q 176 -182 186 -151 q 195 -120 211 -108 q 227 -96 246 -96 l 246 -96 q 263 -96 274 -104 q 285 -112 291 -128 q 297 -144 297 -169 l 297 -169 q 297 -207 283 -226 q 269 -245 240 -245 l 240 -245 q 210 -245 183 -226 q 156 -207 122 -166 l 122 -166 l 104 -272 q 135 -303 179 -327 q 222 -352 280 -352 l 280 -352 q 336 -352 373 -330 q 410 -308 429 -269 q 448 -230 448 -177 l 448 -177 q 448 -118 426 -76 q 403 -34 360 -11 q 316 12 252 12 z m 856 -208 l 856 -208 q 817 -208 792 -229 q 766 -251 766 -296 l 766 -296 q 766 -342 792 -363 q 817 -384 856 -384 l 856 -384 q 895 -384 920 -363 q 945 -342 945 -296 l 945 -296 q 945 -251 920 -229 q 895 -208 856 -208 z m 1491 -577 l 1491 -577 q 1560 -577 1610 -544 q 1659 -512 1686 -452 q 1712 -393 1712 -310 l 1712 -310 q 1712 -207 1679 -135 q 1646 -63 1580 -25 q 1513 12 1412 12 l 1412 12 q 1338 12 1283 -1 q 1227 -14 1176 -40 l 1176 -40 l 1233 -145 q 1275 -125 1313 -114 q 1351 -104 1397 -104 l 1397 -104 q 1455 -104 1489 -127 q 1523 -151 1538 -196 q 1553 -242 1553 -308 l 1553 -308 q 1553 -389 1532 -426 q 1511 -464 1478 -464 l 1478 -464 q 1464 -464 1455 -458 q 1445 -453 1439 -444 l 1439 -444 q 1432 -432 1429 -415 q 1426 -399 1426 -365 l 1426 -365 l 1426 -266 l 1271 -266 l 1271 -347 q 1271 -385 1268 -407 q 1265 -430 1257 -442 l 1257 -442 q 1250 -454 1239 -459 q 1228 -464 1216 -464 l 1216 -464 q 1185 -464 1168 -440 q 1151 -417 1151 -382 l 1151 -382 q 1151 -353 1156 -330 q 1160 -308 1165 -290 l 1165 -290 l 1015 -257 q 1005 -286 1000 -320 q 995 -355 995 -384 l 995 -384 q 995 -435 1017 -478 q 1038 -522 1084 -549 q 1129 -577 1200 -577 l 1200 -577 q 1256 -577 1293 -560 q 1329 -543 1356 -513 l 1356 -513 l 1338 -513 q 1367 -548 1405 -562 q 1442 -577 1491 -577 z"},"്":{"ha":0,"x_min":-318,"x_max":85,"o":"m -117 -597 l -117 -597 q -189 -597 -233 -618 q -277 -639 -297 -676 q -318 -714 -318 -763 l -318 -763 q -318 -785 -314 -803 q -310 -822 -304 -835 l -304 -835 l -169 -812 q -172 -803 -173 -791 q -175 -780 -175 -769 l -175 -769 q -175 -745 -168 -730 q -161 -716 -147 -710 q -133 -704 -115 -704 l -115 -704 q -96 -704 -82 -710 q -68 -716 -60 -730 q -52 -745 -52 -769 l -52 -769 q -52 -780 -53 -791 q -55 -803 -57 -812 l -57 -812 l 73 -835 q 78 -822 82 -803 q 85 -785 85 -763 l 85 -763 q 85 -714 65 -676 q 45 -639 1 -618 q -44 -597 -117 -597 z"},"ൎ":{"ha":0,"x_min":-358,"x_max":-189,"o":"m -358 -836 l -189 -836 l -199 -637 l -349 -637 l -358 -836 z"},"൏":{"ha":1283,"x_min":40,"x_max":1246,"o":"m 606 -577 l 606 -577 q 689 -577 747 -553 q 804 -529 851 -477 l 851 -477 l 808 -498 q 846 -540 892 -558 q 937 -577 995 -577 l 995 -577 q 1078 -577 1134 -536 q 1190 -495 1218 -419 q 1246 -343 1246 -241 l 1246 -241 q 1246 -83 1184 26 q 1121 135 987 192 q 853 248 641 248 l 641 248 q 500 248 398 223 q 296 198 227 152 q 157 106 117 45 q 76 -16 58 -87 q 40 -159 40 -236 l 40 -236 q 40 -312 61 -395 q 81 -478 118 -557 l 118 -557 l 246 -506 q 215 -440 201 -370 q 186 -301 186 -235 l 186 -235 q 186 -174 198 -119 q 210 -65 239 -20 q 267 25 319 58 q 370 91 449 109 q 528 127 641 127 l 641 127 q 778 127 866 100 q 953 73 1001 24 q 1049 -26 1068 -94 q 1087 -162 1087 -245 l 1087 -245 q 1087 -319 1073 -367 q 1058 -415 1034 -439 q 1010 -463 979 -463 l 979 -463 q 960 -463 947 -456 q 933 -450 924 -441 l 924 -441 q 911 -426 906 -401 q 900 -377 900 -334 l 900 -334 l 900 0 l 744 0 l 744 -280 q 744 -349 734 -382 q 724 -415 703 -433 l 703 -433 q 687 -447 664 -455 q 640 -463 604 -463 l 604 -463 q 549 -463 504 -438 q 459 -414 432 -365 q 405 -316 405 -242 l 405 -242 l 405 -236 q 405 -180 415 -150 q 424 -120 440 -108 q 456 -96 475 -96 l 475 -96 q 491 -96 503 -104 q 514 -112 520 -128 q 526 -144 526 -170 l 526 -170 q 526 -208 512 -226 q 497 -245 469 -245 l 469 -245 q 438 -245 411 -226 q 384 -207 351 -166 l 351 -166 l 332 -272 q 363 -303 408 -327 q 452 -352 509 -352 l 509 -352 q 565 -352 602 -330 q 639 -308 658 -269 q 677 -230 677 -178 l 677 -178 q 677 -118 654 -75 q 631 -33 588 -10 q 544 12 480 12 l 480 12 q 421 12 372 -13 q 322 -39 293 -95 q 263 -152 263 -244 l 263 -244 q 263 -353 308 -427 q 353 -502 431 -539 q 509 -577 606 -577 z"},"ൔ":{"ha":673,"x_min":51,"x_max":660,"o":"m 208 -801 l 208 -801 q 246 -801 274 -792 q 302 -783 318 -768 l 318 -768 q 345 -745 356 -711 q 366 -677 366 -626 l 366 -626 l 366 -502 q 366 -466 371 -432 q 376 -398 395 -363 q 413 -329 451 -292 l 451 -292 l 479 -269 q 511 -235 557 -192 q 603 -149 660 -101 l 660 -101 l 610 0 l 51 0 l 51 -254 q 51 -319 61 -365 q 70 -412 90 -446 q 110 -480 139 -504 l 139 -504 q 178 -538 234 -557 q 290 -576 354 -576 l 354 -576 q 419 -576 471 -553 q 523 -531 554 -487 q 584 -444 584 -379 l 584 -379 q 584 -322 558 -279 q 531 -237 493 -202 l 493 -202 l 464 -185 q 444 -167 420 -147 q 396 -127 370 -108 q 344 -89 318 -73 l 318 -73 l 332 -105 q 356 -108 380 -109 q 403 -111 414 -111 l 414 -111 l 430 -111 q 443 -111 463 -110 q 483 -109 503 -108 q 522 -107 535 -105 l 535 -105 l 529 -61 q 487 -96 455 -123 q 423 -151 397 -179 l 397 -179 l 360 -211 q 307 -259 277 -306 q 246 -354 234 -406 q 222 -459 222 -519 l 222 -519 l 222 -613 q 222 -641 218 -654 q 213 -668 205 -675 l 205 -675 q 199 -681 189 -684 q 178 -688 164 -688 l 164 -688 q 149 -688 135 -685 q 120 -683 108 -680 l 108 -680 l 82 -784 q 107 -792 140 -796 q 172 -801 208 -801 z m 206 -261 l 206 -67 l 161 -77 q 202 -107 240 -139 q 278 -172 312 -205 q 345 -238 369 -269 l 369 -269 l 402 -296 q 416 -317 426 -337 q 435 -358 435 -384 l 435 -384 q 435 -413 423 -432 q 410 -451 388 -460 q 365 -470 335 -470 l 335 -470 q 298 -470 271 -454 q 244 -438 230 -412 l 230 -412 q 222 -397 217 -378 q 212 -359 209 -331 q 206 -304 206 -261 l 206 -261 z"},"ൕ":{"ha":1071,"x_min":34,"x_max":1038,"o":"m 707 12 l 707 12 q 661 12 625 7 q 589 2 559 -8 q 529 -18 497 -33 l 497 -33 q 491 -37 483 -43 q 474 -50 467 -55 l 467 -55 q 413 -89 379 -134 q 344 -179 328 -231 q 311 -284 311 -339 l 311 -339 q 311 -378 319 -409 q 326 -440 339 -464 l 339 -464 l 357 -486 q 376 -520 406 -540 q 435 -560 471 -568 q 507 -577 544 -577 l 544 -577 q 654 -577 715 -516 q 775 -456 775 -339 l 775 -339 q 775 -275 755 -222 q 735 -169 700 -127 q 664 -85 619 -56 l 619 -56 q 611 -50 603 -44 q 595 -39 585 -34 l 585 -34 q 541 -11 492 1 q 443 12 386 12 l 386 12 q 297 12 231 -13 q 165 -39 122 -85 q 78 -131 56 -193 q 34 -256 34 -330 l 34 -330 q 34 -403 61 -459 q 88 -515 143 -546 q 197 -577 278 -577 l 278 -577 q 340 -577 391 -552 q 442 -527 475 -472 l 475 -472 l 358 -411 q 341 -439 322 -451 q 302 -464 279 -464 l 279 -464 q 251 -464 232 -448 q 212 -433 202 -403 q 191 -374 191 -332 l 191 -332 q 191 -261 216 -208 q 241 -156 286 -127 q 331 -98 393 -98 l 393 -98 q 417 -98 437 -101 q 457 -105 475 -110 l 475 -110 q 484 -114 493 -115 q 502 -116 509 -120 l 509 -120 q 541 -139 566 -172 q 590 -206 604 -249 q 618 -292 618 -340 l 618 -340 q 618 -387 607 -414 q 596 -441 580 -452 q 563 -464 544 -464 l 544 -464 q 522 -464 505 -452 q 487 -440 477 -412 q 467 -385 467 -340 l 467 -340 q 467 -295 480 -252 q 492 -210 516 -176 q 539 -143 571 -122 l 571 -122 q 580 -117 588 -116 q 596 -115 606 -111 l 606 -111 q 622 -106 645 -102 q 667 -98 704 -98 l 704 -98 q 762 -98 801 -118 q 840 -138 860 -173 q 879 -209 879 -255 l 879 -255 q 879 -286 872 -315 q 864 -345 847 -379 q 829 -414 799 -459 l 799 -459 q 771 -504 753 -537 q 734 -570 725 -599 q 716 -628 716 -661 l 716 -661 q 716 -699 734 -730 q 751 -762 788 -781 q 825 -801 884 -801 l 884 -801 q 927 -801 957 -796 q 987 -791 1006 -785 l 1006 -785 l 981 -678 q 969 -682 954 -685 q 938 -688 920 -688 l 920 -688 q 895 -688 883 -677 q 871 -666 871 -646 l 871 -646 q 871 -631 877 -616 q 882 -601 896 -578 q 909 -555 935 -517 l 935 -517 q 969 -465 992 -421 q 1015 -378 1027 -337 q 1038 -296 1038 -250 l 1038 -250 q 1038 -215 1029 -178 q 1019 -141 997 -107 q 975 -74 937 -47 q 898 -20 842 -4 q 785 12 707 12 z"},"ൖ":{"ha":786,"x_min":31,"x_max":756,"o":"m 283 -183 l 283 -183 q 283 -158 292 -139 q 301 -121 319 -111 q 337 -102 364 -102 l 364 -102 q 400 -102 416 -117 q 431 -132 431 -158 l 431 -158 q 431 -186 421 -212 q 410 -238 397 -267 q 383 -296 372 -330 q 361 -364 361 -407 l 361 -407 q 361 -457 385 -495 q 409 -534 451 -555 q 493 -577 546 -577 l 546 -577 q 622 -577 668 -550 q 714 -524 735 -482 q 756 -440 756 -395 l 756 -395 q 756 -326 723 -272 q 690 -218 622 -187 q 554 -157 447 -157 l 447 -157 l 391 -157 q 349 -157 312 -162 q 275 -167 238 -178 l 238 -178 l 192 -186 q 146 -204 110 -233 q 73 -262 52 -304 q 31 -347 31 -403 l 31 -403 q 31 -446 46 -490 q 60 -535 88 -578 l 88 -578 l 215 -521 q 201 -493 193 -465 q 185 -438 185 -407 l 185 -407 q 185 -375 194 -352 q 202 -329 213 -311 l 213 -311 l 265 -284 q 291 -272 326 -265 q 360 -258 392 -258 l 392 -258 l 438 -258 q 496 -258 532 -276 q 568 -294 585 -326 q 601 -359 601 -400 l 601 -400 q 601 -431 589 -451 q 576 -471 548 -471 l 548 -471 q 533 -471 522 -463 q 510 -455 504 -441 q 498 -427 498 -409 l 498 -409 q 498 -376 511 -344 q 523 -313 539 -280 q 555 -248 568 -213 q 580 -179 580 -140 l 580 -140 q 580 -112 571 -85 q 561 -58 538 -36 q 515 -14 473 -1 q 431 12 366 12 l 366 12 q 302 12 253 -8 q 203 -28 175 -70 q 147 -113 147 -180 l 147 -180 q 147 -222 160 -266 q 173 -311 196 -360 q 218 -410 245 -465 l 245 -465 q 267 -509 281 -539 q 295 -570 302 -594 q 308 -618 308 -638 l 308 -638 q 308 -661 295 -674 q 282 -688 252 -688 l 252 -688 q 236 -688 221 -685 q 206 -683 194 -680 l 194 -680 l 168 -784 q 193 -792 229 -796 q 264 -801 299 -801 l 299 -801 q 366 -801 401 -779 q 436 -758 449 -726 q 462 -694 462 -663 l 462 -663 q 462 -637 457 -612 q 451 -587 439 -558 q 427 -529 408 -491 q 388 -454 361 -404 l 361 -404 q 335 -357 320 -323 q 304 -290 297 -265 q 289 -241 286 -221 q 283 -202 283 -183 z"},"ൗ":{"ha":781,"x_min":29,"x_max":746,"o":"m 525 -577 l 525 -577 q 594 -577 644 -544 q 693 -512 720 -452 q 746 -393 746 -310 l 746 -310 q 746 -207 713 -135 q 680 -63 614 -25 q 547 12 446 12 l 446 12 q 372 12 317 -1 q 261 -14 210 -40 l 210 -40 l 267 -145 q 309 -125 347 -114 q 385 -104 431 -104 l 431 -104 q 489 -104 523 -127 q 557 -151 572 -196 q 587 -242 587 -308 l 587 -308 q 587 -389 566 -426 q 545 -464 512 -464 l 512 -464 q 498 -464 489 -458 q 479 -453 473 -444 l 473 -444 q 466 -432 463 -415 q 460 -399 460 -365 l 460 -365 l 460 -266 l 305 -266 l 305 -347 q 305 -385 302 -407 q 299 -430 291 -442 l 291 -442 q 284 -454 273 -459 q 262 -464 250 -464 l 250 -464 q 219 -464 202 -440 q 185 -417 185 -382 l 185 -382 q 185 -353 190 -330 q 194 -308 199 -290 l 199 -290 l 49 -257 q 39 -286 34 -320 q 29 -355 29 -384 l 29 -384 q 29 -435 51 -478 q 72 -522 118 -549 q 163 -577 234 -577 l 234 -577 q 290 -577 327 -560 q 363 -543 390 -513 l 390 -513 l 372 -513 q 401 -548 439 -562 q 476 -577 525 -577 z"},"൘":{"ha":1245,"x_min":35,"x_max":1207,"o":"m 615 12 l 615 12 q 560 12 518 -8 q 476 -28 442 -68 l 442 -68 l 461 -60 q 424 -23 386 -5 q 347 12 289 12 l 289 12 q 207 12 150 -25 q 93 -62 64 -124 q 35 -187 35 -266 l 35 -266 q 35 -328 50 -381 q 64 -434 92 -482 q 119 -530 159 -577 l 159 -577 l 278 -504 q 249 -465 230 -426 q 211 -388 203 -348 q 194 -309 194 -267 l 194 -267 q 194 -208 210 -172 q 226 -136 251 -119 q 275 -103 300 -103 l 300 -103 q 320 -103 333 -109 q 346 -115 353 -125 l 353 -125 q 366 -141 370 -164 q 374 -188 374 -231 l 374 -231 l 374 -565 l 531 -565 l 531 -247 q 531 -195 537 -169 q 543 -144 556 -128 l 556 -128 q 567 -116 582 -109 q 597 -103 615 -103 l 615 -103 q 635 -103 650 -109 q 664 -115 673 -126 l 673 -126 q 687 -142 693 -168 q 698 -194 698 -241 l 698 -241 l 698 -565 l 855 -565 l 855 -260 l 784 -65 q 749 -25 709 -6 q 669 12 615 12 z m 949 12 l 949 12 q 890 12 849 -6 q 807 -24 768 -64 l 768 -64 l 708 -253 l 708 -555 l 855 -555 l 855 -243 q 855 -194 860 -168 q 864 -142 879 -125 l 879 -125 q 888 -115 902 -109 q 916 -103 936 -103 l 936 -103 q 970 -103 995 -129 q 1020 -155 1034 -204 q 1047 -254 1047 -321 l 1047 -321 q 1047 -388 1036 -449 q 1025 -510 999 -561 q 972 -613 927 -651 q 881 -689 814 -709 q 746 -730 652 -730 l 652 -730 q 585 -730 521 -721 q 457 -713 410 -702 l 410 -702 l 389 -820 q 433 -830 475 -836 q 516 -843 561 -846 q 606 -849 659 -849 l 659 -849 q 780 -849 871 -823 q 962 -797 1026 -749 q 1090 -702 1130 -637 q 1170 -572 1189 -493 q 1207 -415 1207 -327 l 1207 -327 q 1207 -218 1178 -142 q 1148 -66 1091 -27 q 1033 12 949 12 z"},"൙":{"ha":1173,"x_min":35,"x_max":1154,"o":"m 375 -577 l 375 -577 q 468 -577 537 -550 q 605 -523 650 -475 q 694 -428 716 -366 q 738 -304 738 -234 l 738 -234 q 738 -148 711 -93 q 684 -39 633 -13 q 582 12 510 12 l 510 12 q 434 12 390 -13 q 346 -38 327 -77 q 308 -117 308 -161 l 308 -161 q 308 -214 330 -252 q 351 -290 388 -313 l 388 -313 q 411 -327 440 -335 q 468 -344 506 -348 q 544 -352 595 -352 l 595 -352 l 781 -352 l 781 -238 l 597 -238 q 551 -238 527 -234 q 503 -230 487 -219 l 487 -219 q 474 -210 467 -195 q 460 -181 460 -161 l 460 -161 q 460 -137 473 -119 q 486 -101 515 -101 l 515 -101 q 535 -101 551 -114 q 567 -127 576 -155 q 584 -183 584 -232 l 584 -232 q 584 -248 583 -264 q 582 -281 580 -293 l 580 -293 l 576 -322 q 569 -360 546 -392 q 522 -424 483 -443 q 444 -462 387 -462 l 387 -462 q 322 -462 280 -440 q 237 -419 216 -379 q 195 -339 195 -284 l 195 -284 q 195 -239 206 -201 q 216 -164 237 -129 q 257 -95 285 -60 l 285 -60 l 171 13 q 132 -26 101 -70 q 70 -114 53 -167 q 35 -221 35 -287 l 35 -287 q 35 -343 54 -395 q 73 -447 114 -488 q 154 -529 219 -553 q 284 -577 375 -577 z m 967 -565 l 967 -565 q 1035 -565 1076 -543 q 1117 -521 1136 -485 q 1154 -449 1154 -408 l 1154 -408 q 1154 -363 1138 -330 q 1122 -298 1093 -278 l 1093 -278 q 1071 -263 1046 -254 q 1020 -245 986 -241 q 952 -238 905 -238 l 905 -238 l 673 -238 l 674 -352 l 915 -352 q 949 -352 966 -355 q 982 -358 991 -363 l 991 -363 q 1002 -370 1008 -380 q 1013 -390 1013 -407 l 1013 -407 q 1013 -428 1001 -441 q 989 -454 967 -454 l 967 -454 q 942 -454 929 -438 q 916 -422 916 -396 l 916 -396 q 916 -365 928 -343 q 939 -322 955 -304 l 955 -304 l 817 -298 q 802 -318 791 -349 q 780 -380 780 -408 l 780 -408 q 780 -460 805 -495 q 829 -530 872 -547 q 914 -565 967 -565 z"},"൚":{"ha":1104,"x_min":35,"x_max":1053,"o":"m 709 -577 l 709 -577 q 798 -577 861 -557 q 924 -538 966 -503 l 966 -503 q 996 -477 1015 -444 q 1034 -411 1044 -365 q 1053 -319 1053 -254 l 1053 -254 l 1053 0 l 539 0 l 539 -106 q 578 -149 610 -195 q 642 -242 662 -291 q 681 -340 681 -390 l 681 -390 q 681 -411 677 -426 q 672 -442 662 -451 q 651 -460 633 -460 l 633 -460 q 611 -460 594 -447 q 577 -435 565 -414 l 565 -414 q 554 -393 549 -360 q 543 -328 543 -281 l 543 -281 l 543 -230 l 387 -230 l 387 -332 q 387 -377 382 -401 q 377 -425 364 -441 l 364 -441 q 356 -450 343 -456 q 329 -463 308 -463 l 308 -463 q 280 -463 254 -446 q 228 -430 211 -394 q 194 -358 194 -298 l 194 -298 q 194 -256 203 -217 q 212 -178 231 -139 q 249 -101 279 -60 l 279 -60 l 160 13 q 120 -35 92 -83 q 64 -131 50 -184 q 35 -238 35 -300 l 35 -300 q 35 -379 65 -441 q 95 -504 154 -540 q 212 -577 298 -577 l 298 -577 q 339 -577 373 -568 q 406 -560 435 -542 q 463 -524 490 -496 l 490 -496 l 458 -486 q 487 -516 525 -536 q 562 -556 608 -566 q 654 -577 709 -577 z m 835 -364 l 835 -364 q 835 -318 820 -274 q 804 -231 777 -189 q 749 -147 712 -104 l 712 -104 l 693 -109 q 713 -112 738 -112 q 762 -113 778 -113 l 778 -113 l 898 -113 l 898 -261 q 898 -324 887 -364 q 876 -405 853 -430 q 830 -455 792 -471 l 792 -471 l 794 -477 q 811 -458 823 -430 q 835 -402 835 -364 z"},"൛":{"ha":988,"x_min":56,"x_max":953,"o":"m 639 12 l 639 12 q 553 12 494 -12 q 434 -37 398 -78 q 361 -119 345 -169 q 328 -219 328 -272 l 328 -272 q 328 -331 343 -376 q 357 -421 384 -459 q 410 -497 445 -537 l 445 -537 l 407 -452 l 213 -452 l 213 0 l 56 0 l 56 -565 l 510 -565 l 569 -492 q 547 -465 529 -433 q 510 -402 499 -364 q 487 -327 487 -280 l 487 -280 q 487 -227 506 -187 q 524 -147 558 -125 q 591 -103 637 -103 l 637 -103 q 683 -103 718 -124 q 753 -146 773 -185 q 792 -225 792 -279 l 792 -279 q 792 -326 782 -363 q 771 -401 751 -436 q 731 -471 701 -505 l 701 -505 l 817 -578 q 857 -541 888 -497 q 918 -453 936 -399 q 953 -345 953 -278 l 953 -278 q 953 -226 936 -175 q 919 -124 882 -81 q 845 -39 785 -13 q 725 12 639 12 z"},"൜":{"ha":1553,"x_min":35,"x_max":1518,"o":"m 936 -577 l 936 -577 q 998 -577 1042 -561 q 1086 -545 1115 -517 l 1115 -517 q 1135 -496 1149 -467 q 1162 -439 1169 -402 q 1175 -366 1175 -318 l 1175 -318 l 1175 -248 q 1175 -200 1180 -173 q 1184 -146 1197 -130 l 1197 -130 q 1207 -116 1223 -109 q 1238 -103 1259 -103 l 1259 -103 q 1287 -103 1310 -119 q 1332 -135 1346 -171 q 1359 -207 1359 -268 l 1359 -268 q 1359 -312 1350 -351 q 1341 -390 1323 -427 q 1304 -465 1275 -505 l 1275 -505 l 1393 -578 q 1432 -532 1460 -484 q 1488 -437 1503 -383 q 1518 -329 1518 -263 l 1518 -263 q 1518 -180 1487 -118 q 1456 -56 1398 -22 q 1339 12 1257 12 l 1257 12 q 1196 12 1153 -2 q 1110 -17 1080 -46 l 1080 -46 q 1058 -68 1044 -97 q 1029 -127 1023 -165 q 1016 -204 1016 -252 l 1016 -252 l 1016 -314 q 1016 -364 1012 -391 q 1008 -418 995 -435 l 995 -435 q 987 -448 973 -455 q 958 -462 936 -462 l 936 -462 q 915 -462 900 -455 q 885 -448 876 -433 l 876 -433 q 865 -416 861 -389 q 856 -362 856 -316 l 856 -316 l 856 -247 q 856 -200 850 -163 q 843 -126 830 -98 q 816 -70 795 -48 l 795 -48 q 767 -20 723 -4 q 679 12 617 12 l 617 12 q 554 12 511 -4 q 467 -20 438 -48 l 438 -48 q 418 -70 405 -98 q 391 -126 385 -163 q 378 -200 378 -247 l 378 -247 l 378 -317 q 378 -364 374 -391 q 369 -419 356 -436 l 356 -436 q 346 -449 331 -455 q 316 -462 294 -462 l 294 -462 q 267 -462 244 -446 q 221 -431 208 -394 q 194 -358 194 -297 l 194 -297 q 194 -254 203 -215 q 212 -176 231 -138 q 250 -100 278 -60 l 278 -60 l 160 13 q 122 -33 94 -81 q 65 -129 50 -183 q 35 -237 35 -302 l 35 -302 q 35 -385 66 -447 q 97 -509 156 -543 q 214 -577 296 -577 l 296 -577 q 357 -577 401 -562 q 444 -548 473 -519 l 473 -519 q 497 -498 511 -468 q 524 -438 531 -399 q 537 -361 537 -313 l 537 -313 l 537 -251 q 537 -202 542 -175 q 546 -148 558 -131 l 558 -131 q 567 -117 581 -110 q 595 -103 617 -103 l 617 -103 q 639 -103 654 -110 q 668 -118 677 -132 l 677 -132 q 689 -149 693 -176 q 697 -203 697 -249 l 697 -249 l 697 -319 q 697 -366 704 -402 q 710 -439 724 -467 q 737 -496 758 -517 l 758 -517 q 787 -546 831 -561 q 874 -577 936 -577 z"},"൝":{"ha":2037,"x_min":8,"x_max":2002,"o":"m 782 -577 l 782 -577 q 843 -577 888 -561 q 932 -545 960 -517 l 960 -517 q 981 -496 995 -467 q 1008 -439 1015 -402 q 1021 -366 1021 -318 l 1021 -318 l 1021 -251 q 1021 -202 1026 -175 q 1030 -148 1042 -131 l 1042 -131 q 1051 -117 1065 -110 q 1079 -103 1101 -103 l 1101 -103 q 1123 -103 1138 -110 q 1152 -118 1161 -132 l 1161 -132 q 1173 -149 1177 -176 q 1181 -203 1181 -249 l 1181 -249 l 1181 -319 q 1181 -366 1188 -402 q 1194 -439 1208 -467 q 1221 -496 1242 -517 l 1242 -517 q 1271 -546 1315 -561 q 1358 -577 1420 -577 l 1420 -577 q 1481 -577 1526 -561 q 1570 -545 1598 -517 l 1598 -517 q 1619 -496 1633 -467 q 1646 -439 1653 -402 q 1659 -366 1659 -318 l 1659 -318 l 1659 -248 q 1659 -200 1664 -173 q 1668 -146 1681 -130 l 1681 -130 q 1691 -116 1707 -109 q 1722 -103 1743 -103 l 1743 -103 q 1771 -103 1794 -119 q 1816 -135 1830 -171 q 1843 -207 1843 -268 l 1843 -268 q 1843 -312 1834 -351 q 1825 -390 1807 -427 q 1788 -465 1759 -505 l 1759 -505 l 1877 -578 q 1916 -532 1944 -484 q 1972 -437 1987 -383 q 2002 -329 2002 -263 l 2002 -263 q 2002 -180 1971 -118 q 1940 -56 1882 -22 q 1823 12 1741 12 l 1741 12 q 1680 12 1637 -2 q 1594 -17 1564 -46 l 1564 -46 q 1541 -68 1527 -97 q 1513 -127 1507 -165 q 1500 -204 1500 -252 l 1500 -252 l 1500 -314 q 1500 -364 1496 -391 q 1492 -418 1479 -435 l 1479 -435 q 1471 -448 1457 -455 q 1442 -462 1420 -462 l 1420 -462 q 1399 -462 1384 -455 q 1369 -448 1360 -433 l 1360 -433 q 1348 -416 1344 -389 q 1340 -362 1340 -316 l 1340 -316 l 1340 -247 q 1340 -200 1334 -163 q 1327 -126 1314 -98 q 1300 -70 1279 -48 l 1279 -48 q 1251 -20 1207 -4 q 1163 12 1101 12 l 1101 12 q 1038 12 995 -4 q 951 -20 922 -48 l 922 -48 q 902 -70 889 -98 q 875 -126 869 -163 q 862 -200 862 -247 l 862 -247 l 862 -316 q 862 -366 858 -392 q 853 -418 841 -435 l 841 -435 q 832 -448 818 -455 q 803 -462 782 -462 l 782 -462 q 760 -462 745 -455 q 730 -448 722 -433 l 722 -433 q 710 -416 706 -389 q 702 -362 702 -316 l 702 -316 l 702 -248 q 702 -173 686 -125 q 670 -77 636 -45 l 636 -45 q 606 -17 566 -2 q 526 12 473 12 l 473 12 q 409 12 367 -8 q 324 -28 291 -65 l 291 -65 l 307 -63 q 281 -36 255 -19 q 229 -3 200 5 q 170 12 135 12 l 135 12 q 98 12 68 5 q 38 -3 8 -20 l 8 -20 l 50 -125 q 68 -116 89 -109 q 109 -103 134 -103 l 134 -103 q 153 -103 169 -108 q 185 -114 195 -126 l 195 -126 q 210 -142 215 -167 q 219 -192 219 -242 l 219 -242 l 219 -562 l 375 -565 l 375 -240 q 375 -194 381 -168 q 387 -142 401 -126 l 401 -126 q 411 -115 426 -109 q 441 -103 459 -103 l 459 -103 q 481 -103 496 -109 q 510 -116 520 -129 l 520 -129 q 534 -146 539 -172 q 543 -199 543 -251 l 543 -251 l 543 -319 q 543 -366 550 -402 q 556 -439 570 -467 q 583 -496 604 -517 l 604 -517 q 632 -546 676 -561 q 720 -577 782 -577 z"},"൞":{"ha":1431,"x_min":35,"x_max":1405,"o":"m 375 -577 l 375 -577 q 468 -577 537 -550 q 605 -523 650 -475 q 694 -428 716 -366 q 738 -304 738 -234 l 738 -234 q 738 -148 711 -93 q 684 -39 633 -13 q 582 12 510 12 l 510 12 q 434 12 390 -13 q 346 -38 327 -77 q 308 -117 308 -161 l 308 -161 q 308 -214 330 -252 q 351 -290 388 -313 l 388 -313 q 411 -327 440 -335 q 468 -344 506 -348 q 544 -352 595 -352 l 595 -352 l 670 -352 l 670 -238 l 597 -238 q 551 -238 527 -234 q 503 -230 487 -219 l 487 -219 q 474 -210 467 -195 q 460 -181 460 -161 l 460 -161 q 460 -137 473 -119 q 486 -101 515 -101 l 515 -101 q 535 -101 551 -114 q 567 -127 576 -155 q 584 -183 584 -232 l 584 -232 q 584 -248 583 -264 q 582 -281 580 -293 l 580 -293 l 576 -322 q 569 -360 546 -392 q 522 -424 483 -443 q 444 -462 387 -462 l 387 -462 q 322 -462 280 -440 q 237 -419 216 -379 q 195 -339 195 -284 l 195 -284 q 195 -239 206 -201 q 216 -164 237 -129 q 257 -95 285 -60 l 285 -60 l 171 13 q 132 -26 101 -70 q 70 -114 53 -167 q 35 -221 35 -287 l 35 -287 q 35 -343 54 -395 q 73 -447 114 -488 q 154 -529 219 -553 q 284 -577 375 -577 z m 1179 -199 l 1179 -199 q 1100 -199 1051 -227 q 1002 -256 979 -299 q 956 -343 956 -389 l 956 -389 q 956 -418 965 -445 q 973 -472 984 -492 l 984 -492 l 989 -452 l 831 -452 l 867 -496 q 880 -480 890 -454 q 900 -429 900 -398 l 900 -398 q 900 -345 876 -309 q 852 -273 806 -255 q 760 -238 694 -238 l 694 -238 l 656 -238 l 656 -352 l 697 -352 q 725 -352 742 -358 q 758 -364 765 -376 q 771 -389 771 -406 l 771 -406 q 771 -421 766 -436 q 760 -451 753 -461 l 753 -461 l 791 -565 l 1084 -565 l 1137 -501 q 1127 -485 1117 -459 q 1107 -433 1107 -399 l 1107 -399 q 1107 -364 1124 -337 q 1140 -311 1177 -311 l 1177 -311 q 1202 -311 1218 -322 q 1234 -334 1242 -354 q 1249 -374 1249 -398 l 1249 -398 q 1249 -439 1237 -467 q 1224 -496 1208 -523 l 1208 -523 l 1331 -578 q 1365 -538 1385 -493 q 1405 -448 1405 -391 l 1405 -391 q 1405 -333 1377 -289 q 1348 -246 1297 -222 q 1246 -199 1179 -199 z"},"ൟ":{"ha":1407,"x_min":24,"x_max":1383,"o":"m 24 -271 l 24 -271 q 24 -332 64 -371 q 103 -410 172 -410 l 172 -410 q 241 -410 281 -371 q 321 -332 321 -271 l 321 -271 q 321 -211 282 -172 q 242 -133 172 -133 l 172 -133 q 102 -133 63 -172 q 24 -211 24 -271 z m 128 -272 l 128 -272 q 128 -249 139 -235 q 150 -221 172 -221 l 172 -221 q 195 -221 206 -235 q 217 -249 217 -272 l 217 -272 q 217 -295 206 -308 q 194 -321 172 -321 l 172 -321 q 151 -321 140 -308 q 128 -295 128 -272 z m 1086 -271 l 1086 -271 q 1086 -332 1126 -371 q 1165 -410 1234 -410 l 1234 -410 q 1303 -410 1343 -371 q 1383 -332 1383 -271 l 1383 -271 q 1383 -211 1344 -172 q 1304 -133 1234 -133 l 1234 -133 q 1164 -133 1125 -172 q 1086 -211 1086 -271 z m 1190 -272 l 1190 -272 q 1190 -249 1201 -235 q 1212 -221 1234 -221 l 1234 -221 q 1257 -221 1268 -235 q 1279 -249 1279 -272 l 1279 -272 q 1279 -295 1268 -308 q 1256 -321 1234 -321 l 1234 -321 q 1213 -321 1202 -308 q 1190 -295 1190 -272 z m 692 -577 l 692 -577 q 785 -577 854 -550 q 922 -524 967 -477 q 1011 -430 1033 -368 q 1055 -306 1055 -236 l 1055 -236 q 1055 -152 1029 -96 q 1002 -41 951 -14 q 899 12 826 12 l 826 12 q 751 12 705 -17 q 658 -47 637 -96 q 616 -146 616 -205 l 616 -205 q 616 -300 664 -354 q 712 -409 801 -409 l 801 -409 q 856 -409 897 -380 q 937 -352 962 -307 q 986 -263 992 -214 l 992 -214 l 932 -212 q 927 -236 915 -256 q 903 -277 884 -290 q 865 -304 840 -304 l 840 -304 q 803 -304 785 -278 q 767 -253 767 -202 l 767 -202 q 767 -169 775 -146 q 782 -124 797 -112 q 811 -101 831 -101 l 831 -101 q 854 -101 870 -114 q 886 -128 894 -158 q 902 -188 902 -237 l 902 -237 q 902 -254 901 -272 q 899 -290 897 -306 l 897 -306 q 896 -311 897 -318 q 897 -326 895 -330 l 895 -330 q 889 -365 865 -395 q 841 -425 801 -443 q 760 -462 704 -462 l 704 -462 q 639 -462 597 -440 q 554 -419 533 -379 q 512 -339 512 -284 l 512 -284 q 512 -239 523 -201 q 533 -164 554 -129 q 574 -95 603 -60 l 603 -60 l 488 13 q 449 -26 418 -70 q 387 -114 370 -167 q 352 -221 352 -287 l 352 -287 q 352 -343 371 -395 q 390 -447 431 -488 q 471 -529 536 -553 q 601 -577 692 -577 z"},"ൠ":{"ha":953,"x_min":31,"x_max":922,"o":"m 702 -577 l 702 -577 q 804 -577 863 -516 q 922 -456 922 -345 l 922 -345 q 922 -275 897 -223 q 871 -171 825 -136 l 825 -136 q 781 -100 723 -83 q 664 -66 592 -63 l 592 -63 l 535 -73 l 412 -72 l 357 -64 q 285 -67 231 -83 q 176 -100 134 -134 l 134 -134 q 85 -169 58 -222 q 31 -275 31 -346 l 31 -346 q 31 -417 59 -468 q 86 -520 137 -548 q 187 -577 258 -577 l 258 -577 q 323 -577 367 -553 q 411 -530 433 -489 q 455 -449 455 -399 l 455 -399 q 455 -339 433 -300 q 410 -261 368 -243 q 325 -225 267 -225 l 267 -225 q 228 -225 192 -240 q 155 -256 127 -279 q 98 -302 79 -324 l 79 -324 l 117 -421 q 135 -394 153 -373 q 170 -352 191 -339 q 211 -327 239 -327 l 239 -327 q 267 -327 286 -344 q 305 -361 305 -403 l 305 -403 q 305 -435 289 -452 q 273 -470 249 -470 l 249 -470 q 227 -470 210 -457 q 193 -444 184 -419 q 175 -395 175 -357 l 175 -357 q 175 -339 177 -323 q 179 -307 183 -293 l 183 -293 l 180 -269 q 194 -237 222 -217 q 250 -198 288 -187 q 326 -177 368 -173 q 410 -169 451 -169 l 451 -169 l 503 -169 q 541 -169 583 -172 q 625 -175 664 -185 q 702 -196 732 -216 q 761 -236 774 -269 l 774 -269 l 772 -293 q 775 -306 777 -322 q 779 -338 779 -357 l 779 -357 q 779 -395 770 -419 q 761 -444 745 -457 q 729 -470 707 -470 l 707 -470 q 681 -470 666 -452 q 650 -434 650 -400 l 650 -400 q 650 -360 668 -343 q 686 -327 714 -327 l 714 -327 q 743 -327 764 -339 q 784 -352 802 -373 q 819 -394 837 -421 l 837 -421 l 875 -324 q 857 -302 828 -279 q 799 -256 763 -240 q 727 -225 685 -225 l 685 -225 q 628 -225 586 -243 q 544 -261 522 -299 q 499 -337 499 -396 l 499 -396 q 499 -448 523 -489 q 546 -530 592 -553 q 637 -577 702 -577 z m 481 255 l 481 255 q 357 255 272 235 q 187 214 144 169 q 100 124 100 51 l 100 51 q 100 0 126 -34 q 152 -69 197 -90 q 241 -111 297 -120 q 352 -129 412 -129 l 412 -129 l 540 -129 q 601 -129 658 -120 q 714 -111 758 -90 q 802 -69 828 -34 q 853 0 853 52 l 853 52 q 853 120 813 165 q 773 210 691 233 q 608 255 481 255 z m 479 144 l 479 144 q 559 144 609 133 q 659 122 682 99 q 705 76 705 41 l 705 41 q 705 9 688 -10 q 671 -30 641 -41 q 611 -52 572 -56 q 532 -61 488 -61 l 488 -61 l 467 -61 q 405 -61 356 -52 q 306 -44 278 -22 q 249 0 249 41 l 249 41 q 249 77 273 100 q 296 123 347 134 q 397 144 479 144 z m 554 -40 l 554 -40 q 587 -40 608 -28 q 628 -16 639 3 q 649 21 653 42 q 657 62 657 79 l 657 79 l 657 109 l 569 109 l 569 95 q 569 76 565 64 q 561 52 545 52 l 545 52 q 528 52 524 64 q 520 76 520 94 l 520 94 l 520 109 l 433 109 l 433 94 q 433 75 429 64 q 424 52 409 52 l 409 52 q 392 52 389 65 q 385 78 385 95 l 385 95 l 385 109 l 296 109 l 296 79 q 296 62 300 42 q 304 21 315 3 q 325 -16 346 -28 q 366 -40 399 -40 l 399 -40 q 428 -40 445 -30 q 462 -20 476 -5 l 476 -5 q 493 -23 512 -31 q 530 -40 554 -40 z"},"ൡ":{"ha":1382,"x_min":35,"x_max":1359,"o":"m 378 -577 l 378 -577 q 461 -577 518 -553 q 575 -530 622 -478 l 622 -478 l 643 -393 l 672 -226 l 672 0 l 515 0 l 515 -280 q 515 -350 505 -382 q 495 -415 475 -433 l 475 -433 q 459 -447 436 -455 q 412 -463 376 -463 l 376 -463 q 321 -463 276 -438 q 230 -414 203 -365 q 176 -316 176 -242 l 176 -242 l 176 -236 q 176 -180 186 -150 q 195 -120 211 -108 q 227 -97 246 -97 l 246 -97 q 263 -97 274 -104 q 285 -112 291 -128 q 297 -144 297 -170 l 297 -170 q 297 -208 283 -226 q 269 -245 240 -245 l 240 -245 q 210 -245 183 -226 q 156 -207 122 -166 l 122 -166 l 104 -272 q 135 -303 180 -327 q 224 -352 281 -352 l 281 -352 q 336 -352 374 -330 q 411 -308 430 -269 q 448 -230 448 -178 l 448 -178 q 448 -118 426 -75 q 403 -33 359 -10 q 315 12 251 12 l 251 12 q 192 12 143 -13 q 94 -39 65 -95 q 35 -152 35 -244 l 35 -244 q 35 -353 80 -427 q 125 -502 203 -539 q 281 -577 378 -577 z m 829 -577 l 829 -577 q 920 -577 987 -546 q 1054 -516 1096 -462 q 1138 -408 1153 -337 l 1153 -337 q 1158 -312 1161 -286 q 1163 -260 1163 -232 l 1163 -232 q 1163 -149 1138 -94 q 1113 -40 1064 -14 q 1015 12 941 12 l 941 12 q 873 12 827 -13 q 781 -39 758 -83 q 734 -127 734 -185 l 734 -185 q 734 -291 808 -348 q 881 -405 1010 -405 l 1010 -405 q 1031 -405 1046 -404 q 1061 -404 1074 -402 l 1074 -402 l 1109 -399 q 1186 -386 1242 -345 q 1298 -305 1329 -243 q 1359 -181 1359 -101 l 1359 -101 q 1359 -42 1343 13 q 1326 67 1289 110 q 1251 152 1189 177 q 1126 201 1034 201 l 1034 201 q 991 201 951 195 q 910 189 874 176 l 874 176 l 916 67 q 946 77 972 81 q 998 84 1031 84 l 1031 84 q 1086 84 1122 67 q 1157 50 1176 22 q 1195 -6 1203 -39 q 1210 -72 1210 -103 l 1210 -103 q 1210 -150 1200 -185 q 1189 -220 1169 -244 q 1148 -269 1118 -284 l 1118 -284 l 1078 -291 q 1065 -294 1049 -295 q 1033 -297 1016 -297 l 1016 -297 q 970 -297 941 -282 q 912 -268 899 -242 q 886 -216 886 -182 l 886 -182 q 886 -156 893 -138 q 899 -120 913 -110 q 926 -100 946 -100 l 946 -100 q 981 -100 999 -128 q 1016 -157 1016 -232 l 1016 -232 q 1016 -264 1012 -292 q 1007 -321 999 -345 l 999 -345 l 989 -376 q 973 -404 950 -423 q 926 -442 895 -452 q 864 -462 826 -462 l 826 -462 q 794 -462 770 -455 q 746 -448 725 -432 l 725 -432 q 706 -418 695 -396 q 683 -375 678 -341 q 672 -308 672 -258 l 672 -258 l 672 -212 l 565 -459 q 594 -494 630 -520 q 666 -547 715 -562 q 764 -577 829 -577 z"},"ൢ":{"ha":0,"x_min":-868,"x_max":-28,"o":"m -619 -29 l -619 -29 q -559 -29 -506 -8 q -454 12 -422 64 l -422 64 l -384 162 l -384 333 l -510 333 l -510 190 q -510 150 -516 125 q -523 99 -539 84 l -539 84 q -553 72 -574 65 q -595 58 -625 58 l -625 58 q -653 58 -678 65 q -703 72 -722 88 q -742 104 -751 131 l -751 131 q -754 143 -755 154 q -756 165 -756 184 l -756 184 q -756 225 -741 239 q -726 253 -710 253 l -710 253 q -691 253 -680 243 q -669 233 -669 210 l -669 210 q -669 188 -680 178 q -692 167 -714 167 l -714 167 q -740 167 -761 183 q -783 198 -808 224 l -808 224 l -831 155 q -800 126 -762 106 q -724 85 -685 85 l -685 85 q -620 85 -589 118 q -559 151 -559 206 l -559 206 q -559 266 -594 302 q -629 337 -704 337 l -704 337 q -781 337 -824 293 q -868 249 -868 172 l -868 172 q -868 106 -833 62 q -799 17 -742 -6 q -686 -29 -619 -29 z m -272 -29 l -272 -29 q -207 -29 -151 -6 q -96 17 -62 62 q -28 107 -28 174 l -28 174 q -28 258 -69 298 q -110 337 -187 337 l -187 337 q -238 337 -270 318 q -303 299 -318 268 q -333 237 -333 199 l -333 199 q -333 158 -317 129 q -301 100 -271 85 q -242 70 -201 70 l -201 70 q -171 70 -145 85 q -120 99 -98 128 q -77 156 -61 199 l -61 199 l -115 201 q -122 179 -137 161 q -152 143 -176 143 l -176 143 q -197 143 -209 157 q -221 170 -221 198 l -221 198 q -221 225 -211 239 q -201 253 -182 253 l -182 253 q -162 253 -151 235 q -141 217 -141 174 l -141 174 q -141 164 -141 154 q -142 144 -145 135 l -145 135 l -154 111 q -166 90 -185 79 q -204 67 -225 63 q -247 58 -268 58 l -268 58 q -294 58 -314 64 q -334 69 -348 80 l -348 80 q -366 94 -375 120 q -384 145 -384 193 l -384 193 l -490 150 q -485 79 -452 41 q -419 2 -370 -13 q -322 -29 -272 -29 z"},"ൣ":{"ha":0,"x_min":-868,"x_max":103,"o":"m -619 -29 l -619 -29 q -559 -29 -506 -8 q -454 12 -422 64 l -422 64 l -384 162 l -384 333 l -510 333 l -510 190 q -510 150 -516 125 q -523 99 -539 84 l -539 84 q -553 72 -574 65 q -595 58 -625 58 l -625 58 q -653 58 -678 65 q -703 72 -722 88 q -742 104 -751 131 l -751 131 q -754 143 -755 154 q -756 165 -756 184 l -756 184 q -756 225 -741 239 q -726 253 -710 253 l -710 253 q -691 253 -680 243 q -669 233 -669 210 l -669 210 q -669 188 -680 178 q -692 167 -714 167 l -714 167 q -740 167 -761 183 q -783 198 -808 224 l -808 224 l -831 155 q -800 126 -762 106 q -724 85 -685 85 l -685 85 q -620 85 -589 118 q -559 151 -559 206 l -559 206 q -559 266 -594 302 q -629 337 -704 337 l -704 337 q -781 337 -824 293 q -868 249 -868 172 l -868 172 q -868 106 -833 62 q -799 17 -742 -6 q -686 -29 -619 -29 z m -272 -29 l -272 -29 q -207 -29 -152 -6 q -98 17 -65 62 q -32 107 -32 173 l -32 173 q -32 228 -50 265 q -68 301 -102 319 q -136 337 -186 337 l -186 337 q -240 337 -272 319 q -305 300 -319 270 q -333 240 -333 206 l -333 206 q -333 137 -282 100 q -231 62 -137 62 l -137 62 q -124 62 -110 63 q -97 63 -84 65 l -84 65 q -35 69 8 90 q 50 110 77 151 q 103 191 103 258 l 103 258 q 103 290 96 316 q 88 341 77 358 l 77 358 l -25 325 q -19 312 -15 294 q -11 276 -11 254 l -11 254 q -11 214 -24 187 q -38 159 -75 146 l -75 146 l -97 141 q -106 139 -115 138 q -125 137 -135 137 l -135 137 q -171 137 -196 153 q -221 168 -221 206 l -221 206 q -221 227 -211 240 q -201 253 -182 253 l -182 253 q -162 253 -151 235 q -141 217 -141 176 l -141 176 q -141 162 -142 152 q -143 141 -146 131 l -146 131 l -153 112 q -165 90 -185 79 q -205 67 -226 63 q -248 58 -268 58 l -268 58 q -295 58 -314 64 q -334 69 -348 80 l -348 80 q -366 94 -375 120 q -384 145 -384 193 l -384 193 l -489 150 q -485 96 -464 62 q -443 27 -411 7 q -380 -13 -343 -21 q -307 -29 -272 -29 z"},"൦":{"ha":584,"x_min":36,"x_max":548,"o":"m 293 -35 l 293 -35 q 214 -35 157 -64 q 99 -93 68 -148 q 36 -203 36 -282 l 36 -282 q 36 -360 68 -415 q 100 -471 157 -500 q 214 -530 292 -530 l 292 -530 q 376 -530 433 -499 q 490 -468 519 -412 q 548 -357 548 -282 l 548 -282 q 548 -206 517 -150 q 485 -95 428 -65 q 371 -35 293 -35 z m 292 -148 l 292 -148 q 322 -148 344 -162 q 366 -176 379 -206 q 392 -237 392 -283 l 392 -283 q 392 -351 364 -384 q 336 -417 292 -417 l 292 -417 q 249 -417 221 -384 q 192 -351 192 -282 l 192 -282 q 192 -214 220 -181 q 247 -148 292 -148 z"},"൧":{"ha":918,"x_min":12,"x_max":865,"o":"m 394 88 l 394 203 l 268 203 q 198 203 155 196 q 111 188 81 171 l 81 171 q 49 152 31 121 q 12 90 12 48 l 12 48 q 12 7 28 -24 q 44 -55 75 -76 l 75 -76 q 95 -89 120 -97 q 144 -106 179 -110 q 214 -114 263 -114 l 263 -114 l 447 -114 l 476 0 l 268 0 q 231 0 216 2 q 200 3 190 8 l 190 8 q 179 14 174 23 q 169 31 169 43 l 169 43 q 169 64 186 75 l 186 75 q 197 82 215 85 q 233 88 272 88 l 272 88 l 394 88 z m 600 -577 l 600 -577 q 664 -577 713 -560 q 762 -544 795 -512 l 795 -512 q 833 -476 849 -426 q 865 -377 865 -297 l 865 -297 l 865 0 l 334 0 l 334 -292 q 334 -349 341 -389 q 348 -429 364 -458 q 380 -488 405 -512 l 405 -512 q 438 -544 487 -560 q 536 -577 600 -577 z m 601 -463 l 601 -463 q 574 -463 555 -455 q 535 -447 522 -433 l 522 -433 q 506 -414 498 -383 q 490 -353 490 -294 l 490 -294 l 490 -114 l 709 -114 l 709 -288 q 709 -351 702 -382 q 694 -414 678 -433 l 678 -433 q 665 -447 646 -455 q 627 -463 601 -463 z"},"൨":{"ha":861,"x_min":35,"x_max":842,"o":"m 349 -577 l 349 -577 q 435 -577 495 -553 q 554 -529 591 -488 q 627 -447 644 -396 q 660 -346 660 -293 l 660 -293 q 660 -234 646 -189 q 631 -145 605 -106 q 578 -68 543 -28 l 543 -28 l 581 -114 l 842 -114 l 842 0 l 478 0 l 419 -73 q 442 -101 461 -132 q 479 -163 490 -200 q 501 -238 501 -285 l 501 -285 q 501 -338 483 -378 q 464 -418 431 -440 q 397 -462 351 -462 l 351 -462 q 305 -462 270 -441 q 235 -420 216 -380 q 196 -341 196 -286 l 196 -286 q 196 -240 207 -202 q 217 -164 237 -129 q 257 -95 287 -60 l 287 -60 l 171 13 q 132 -25 101 -69 q 70 -113 53 -167 q 35 -221 35 -287 l 35 -287 q 35 -339 52 -390 q 68 -441 106 -483 q 143 -526 203 -551 q 263 -577 349 -577 z"},"൩":{"ha":1094,"x_min":35,"x_max":1075,"o":"m 296 -577 l 296 -577 q 337 -577 367 -569 q 396 -562 421 -546 q 446 -530 472 -506 l 472 -506 l 457 -504 q 495 -542 538 -559 q 581 -577 641 -577 l 641 -577 q 722 -577 779 -541 q 835 -506 866 -444 q 896 -383 896 -302 l 896 -302 q 896 -252 887 -212 q 878 -173 858 -136 q 838 -99 806 -59 l 806 -59 l 780 0 l 710 0 l 656 -65 q 687 -109 705 -146 q 722 -184 730 -220 q 737 -256 737 -296 l 737 -296 q 737 -355 721 -392 q 705 -429 679 -446 q 653 -463 623 -463 l 623 -463 q 603 -463 590 -456 q 576 -450 567 -441 l 567 -441 q 554 -426 549 -401 q 543 -377 543 -334 l 543 -334 l 543 0 l 387 0 l 387 -333 q 387 -378 382 -401 q 377 -425 364 -441 l 364 -441 q 356 -450 343 -456 q 329 -463 308 -463 l 308 -463 q 280 -463 254 -446 q 228 -430 211 -394 q 194 -358 194 -298 l 194 -298 q 194 -256 203 -216 q 212 -177 231 -139 q 249 -101 279 -60 l 279 -60 l 160 13 q 120 -35 92 -83 q 64 -131 50 -184 q 35 -238 35 -300 l 35 -300 q 35 -379 65 -441 q 95 -504 153 -540 q 211 -577 296 -577 z m 753 0 l 805 -114 l 1075 -114 l 1075 0 l 753 0 z"},"൪":{"ha":817,"x_min":35,"x_max":812,"o":"m 377 -577 l 377 -577 q 462 -577 525 -553 q 588 -530 640 -484 l 640 -484 q 694 -437 722 -372 q 749 -307 749 -233 l 749 -233 q 749 -155 724 -100 q 698 -45 646 -16 q 593 12 513 12 l 513 12 q 440 12 391 -15 q 341 -42 316 -88 q 290 -134 290 -189 l 290 -189 q 290 -254 318 -302 q 345 -351 400 -395 q 455 -439 537 -488 l 537 -488 q 584 -518 610 -537 q 635 -557 646 -576 q 656 -596 656 -624 l 656 -624 q 656 -640 651 -657 q 646 -674 637 -685 l 637 -685 l 777 -748 q 793 -723 803 -692 q 812 -662 812 -628 l 812 -628 q 812 -578 792 -540 q 772 -503 729 -470 q 685 -437 616 -396 l 616 -396 q 560 -362 522 -330 q 484 -299 465 -265 q 446 -231 446 -187 l 446 -187 q 446 -149 463 -125 q 480 -101 514 -101 l 514 -101 q 542 -101 559 -114 q 575 -128 583 -154 q 591 -181 591 -219 l 591 -219 q 591 -276 570 -333 q 549 -390 504 -425 l 504 -425 q 481 -444 452 -455 q 422 -466 382 -466 l 382 -466 q 322 -466 281 -444 q 239 -423 217 -382 q 195 -342 195 -286 l 195 -286 q 195 -240 206 -202 q 216 -164 236 -129 q 256 -95 285 -60 l 285 -60 l 171 13 q 132 -25 101 -69 q 70 -113 53 -167 q 35 -221 35 -287 l 35 -287 q 35 -342 54 -394 q 73 -446 114 -487 q 154 -528 219 -552 q 284 -577 377 -577 z"},"൫":{"ha":1040,"x_min":39,"x_max":1001,"o":"m 526 -731 l 526 -731 q 647 -731 737 -698 q 826 -665 885 -604 q 943 -543 972 -461 q 1001 -380 1001 -282 l 1001 -282 q 1001 -215 985 -138 q 969 -62 933 12 l 933 12 l 804 -40 q 820 -79 830 -116 q 839 -153 844 -191 q 849 -230 849 -274 l 849 -274 q 849 -349 830 -411 q 810 -474 771 -519 q 731 -565 671 -590 q 610 -615 528 -615 l 528 -615 q 428 -615 352 -576 q 276 -537 234 -458 q 191 -379 191 -259 l 191 -259 q 191 -194 205 -136 q 218 -78 248 -33 q 278 11 326 37 q 374 62 443 62 l 443 62 q 535 62 577 26 q 619 -10 619 -73 l 619 -73 q 619 -107 608 -133 q 597 -159 573 -174 q 548 -190 510 -190 l 510 -190 l 500 -190 l 500 -301 l 513 -301 q 544 -301 562 -304 q 579 -308 590 -316 l 590 -316 q 601 -324 607 -336 q 612 -348 612 -366 l 612 -366 q 612 -395 594 -411 q 575 -428 540 -428 l 540 -428 q 502 -428 477 -406 q 451 -385 439 -348 q 426 -311 426 -262 l 426 -262 q 426 -204 441 -154 q 455 -105 484 -53 l 484 -53 l 352 8 q 314 -56 292 -124 q 269 -193 269 -270 l 269 -270 q 269 -353 303 -414 q 336 -475 399 -509 q 461 -543 546 -543 l 546 -543 q 620 -543 669 -521 q 718 -499 744 -461 q 769 -424 769 -376 l 769 -376 q 769 -349 760 -323 q 750 -297 728 -275 q 706 -254 668 -238 l 668 -238 l 662 -254 q 713 -231 745 -181 q 776 -132 776 -65 l 776 -65 q 776 15 737 69 q 697 123 624 150 q 550 177 449 177 l 449 177 q 321 177 229 127 q 137 76 88 -20 q 39 -117 39 -253 l 39 -253 q 39 -375 78 -465 q 116 -555 183 -614 q 250 -673 338 -702 q 426 -731 526 -731 z"},"൬":{"ha":1245,"x_min":35,"x_max":1207,"o":"m 615 -577 l 615 -577 q 669 -577 709 -559 q 749 -541 784 -500 l 784 -500 l 855 -305 l 855 0 l 698 0 l 698 -325 q 698 -371 693 -397 q 687 -423 673 -439 l 673 -439 q 664 -450 650 -456 q 635 -463 615 -463 l 615 -463 q 597 -463 582 -456 q 567 -449 556 -438 l 556 -438 q 543 -421 537 -395 q 531 -370 531 -318 l 531 -318 l 531 0 l 374 0 l 374 -334 q 374 -377 370 -400 q 366 -424 353 -440 l 353 -440 q 346 -450 333 -456 q 320 -463 300 -463 l 300 -463 q 275 -463 251 -446 q 226 -430 210 -393 q 194 -357 194 -298 l 194 -298 q 194 -256 203 -217 q 211 -178 230 -139 q 249 -101 278 -61 l 278 -61 l 159 12 q 119 -35 92 -83 q 64 -131 50 -184 q 35 -238 35 -300 l 35 -300 q 35 -378 64 -441 q 93 -504 150 -540 q 207 -577 289 -577 l 289 -577 q 347 -577 386 -559 q 424 -542 461 -505 l 461 -505 l 442 -497 q 476 -538 518 -557 q 560 -577 615 -577 z m 949 -577 l 949 -577 q 1074 -577 1141 -488 q 1207 -400 1207 -229 l 1207 -229 q 1207 -89 1171 7 q 1135 102 1054 152 q 972 201 835 201 l 835 201 q 807 201 778 199 q 748 197 719 192 l 719 192 l 730 77 q 749 81 772 83 q 795 85 819 85 l 819 85 q 889 85 934 62 q 979 38 1004 -4 q 1028 -47 1038 -104 q 1047 -162 1047 -229 l 1047 -229 q 1047 -304 1034 -356 q 1020 -408 995 -435 q 970 -463 936 -463 l 936 -463 q 916 -463 902 -457 q 888 -451 879 -440 l 879 -440 q 864 -424 860 -397 q 855 -371 855 -322 l 855 -322 l 855 -10 l 708 -10 l 708 -312 l 768 -501 q 807 -541 849 -559 q 890 -577 949 -577 z"},"൭":{"ha":769,"x_min":35,"x_max":732,"o":"m 395 -577 l 395 -577 q 484 -577 548 -549 q 611 -522 652 -472 q 693 -422 713 -355 q 732 -288 732 -210 l 732 -210 q 732 -113 709 -36 q 685 40 638 93 q 590 146 519 174 q 447 201 350 201 l 350 201 q 320 201 290 199 q 259 197 229 191 l 229 191 l 241 77 q 262 81 285 83 q 307 85 332 85 l 332 85 q 400 85 446 63 q 492 41 520 1 q 548 -39 560 -93 q 572 -147 572 -210 l 572 -210 q 572 -335 522 -398 q 471 -462 379 -462 l 379 -462 q 320 -462 274 -434 q 228 -406 203 -356 q 177 -307 177 -241 l 177 -241 l 177 -234 q 177 -179 187 -149 q 196 -119 212 -107 q 228 -96 246 -96 l 246 -96 q 263 -96 275 -104 q 286 -112 292 -128 q 297 -144 297 -169 l 297 -169 q 297 -207 283 -226 q 269 -245 241 -245 l 241 -245 q 210 -245 183 -225 q 155 -206 121 -165 l 121 -165 l 104 -272 q 135 -303 179 -327 q 222 -352 280 -352 l 280 -352 q 336 -352 373 -330 q 410 -308 429 -269 q 448 -230 448 -178 l 448 -178 q 448 -118 426 -76 q 403 -34 360 -11 q 316 12 252 12 l 252 12 q 193 12 144 -13 q 94 -39 65 -94 q 35 -150 35 -239 l 35 -239 q 35 -341 78 -416 q 121 -492 202 -534 q 283 -577 395 -577 z"},"൮":{"ha":983,"x_min":35,"x_max":926,"o":"m 349 -577 l 349 -577 q 435 -577 495 -553 q 554 -529 591 -488 q 627 -447 644 -396 q 660 -346 660 -293 l 660 -293 q 660 -234 646 -189 q 631 -145 605 -106 q 578 -68 543 -28 l 543 -28 l 581 -114 l 769 -114 l 769 -565 l 926 -565 l 926 -186 l 849 0 l 478 0 l 419 -73 q 442 -101 461 -132 q 479 -163 490 -200 q 501 -238 501 -285 l 501 -285 q 501 -338 483 -378 q 464 -418 431 -440 q 397 -462 351 -462 l 351 -462 q 305 -462 270 -441 q 235 -420 216 -380 q 196 -341 196 -286 l 196 -286 q 196 -240 207 -202 q 217 -164 237 -129 q 257 -95 287 -60 l 287 -60 l 171 13 q 132 -25 101 -69 q 70 -113 53 -167 q 35 -221 35 -287 l 35 -287 q 35 -339 52 -390 q 68 -441 106 -483 q 143 -526 203 -551 q 263 -577 349 -577 z m 593 201 l 593 201 q 566 201 534 198 q 502 195 475 189 l 475 189 l 491 76 q 509 81 533 83 q 557 85 579 85 l 579 85 q 637 85 674 73 q 711 60 732 39 q 752 18 761 -8 q 769 -35 770 -63 l 770 -63 l 926 -290 l 926 -140 q 926 -68 918 -17 q 909 33 890 68 q 870 102 840 129 l 840 129 q 800 165 738 183 q 676 201 593 201 z"},"൯":{"ha":1147,"x_min":35,"x_max":1142,"o":"m 297 -577 l 297 -577 q 338 -577 369 -569 q 399 -561 427 -544 q 454 -528 483 -501 l 483 -501 l 543 -224 l 543 0 l 387 0 l 387 -334 q 387 -377 382 -401 q 377 -425 364 -441 l 364 -441 q 356 -450 343 -456 q 329 -463 308 -463 l 308 -463 q 280 -463 254 -446 q 228 -430 211 -394 q 194 -358 194 -298 l 194 -298 q 194 -256 203 -216 q 212 -177 231 -139 q 249 -101 279 -60 l 279 -60 l 160 13 q 120 -35 92 -83 q 64 -131 50 -184 q 35 -238 35 -300 l 35 -300 q 35 -378 65 -441 q 95 -504 154 -540 q 212 -577 297 -577 z m 703 -577 l 703 -577 q 791 -577 854 -553 q 917 -530 969 -483 l 969 -483 q 1023 -436 1051 -371 q 1079 -307 1079 -233 l 1079 -233 q 1079 -155 1053 -100 q 1027 -45 975 -16 q 923 12 843 12 l 843 12 q 769 12 720 -15 q 670 -42 645 -88 q 620 -134 620 -189 l 620 -189 q 620 -254 647 -302 q 674 -351 729 -395 q 784 -439 866 -488 l 866 -488 q 913 -518 939 -537 q 965 -557 976 -576 q 986 -596 986 -624 l 986 -624 q 986 -640 981 -657 q 975 -674 966 -685 l 966 -685 l 1106 -748 q 1122 -723 1132 -692 q 1142 -662 1142 -628 l 1142 -628 q 1142 -578 1122 -540 q 1101 -503 1058 -470 q 1015 -437 946 -396 l 946 -396 q 890 -362 852 -330 q 814 -299 795 -265 q 775 -231 775 -187 l 775 -187 q 775 -149 792 -125 q 809 -101 843 -101 l 843 -101 q 872 -101 889 -114 q 905 -128 913 -154 q 920 -181 920 -219 l 920 -219 q 920 -278 899 -333 q 878 -389 833 -424 l 833 -424 q 809 -444 779 -455 q 748 -466 702 -466 l 702 -466 q 667 -466 641 -458 q 615 -451 596 -435 l 596 -435 q 578 -421 566 -400 q 554 -380 549 -347 q 543 -315 543 -265 l 543 -265 l 543 -22 l 396 -22 l 396 -308 l 439 -468 q 466 -499 500 -523 q 534 -548 583 -562 q 631 -577 703 -577 z"},"൰":{"ha":1053,"x_min":-33,"x_max":1018,"o":"m 182 -565 l 338 -565 l 338 -162 l 333 -129 q 333 -42 319 18 q 305 77 271 119 l 271 119 q 239 159 188 180 q 137 201 62 201 l 62 201 q 39 201 15 199 q -10 197 -33 191 l -33 191 l -20 77 q -8 80 8 83 q 23 85 40 85 l 40 85 q 79 85 104 76 q 129 66 145 50 l 145 50 q 166 29 174 -5 q 182 -39 182 -101 l 182 -101 l 182 -565 z m 764 12 l 764 12 q 706 12 664 -5 q 621 -23 583 -62 l 583 -62 l 603 -69 q 567 -27 527 -7 q 487 12 431 12 l 431 12 q 391 12 363 2 q 334 -8 312 -27 q 289 -47 267 -73 l 267 -73 l 207 -258 l 208 -558 l 338 -547 l 338 -242 q 338 -195 344 -168 q 350 -142 364 -126 l 364 -126 q 374 -115 389 -109 q 404 -103 426 -103 l 426 -103 q 447 -103 462 -109 q 477 -116 487 -127 l 487 -127 q 502 -144 508 -170 q 514 -197 514 -248 l 514 -248 l 514 -565 l 670 -565 l 670 -242 q 670 -191 675 -166 q 679 -142 693 -125 l 693 -125 q 703 -114 718 -108 q 732 -103 748 -103 l 748 -103 q 778 -103 803 -120 q 828 -138 844 -175 q 859 -212 859 -270 l 859 -270 q 859 -311 851 -349 q 842 -388 823 -426 q 804 -465 775 -504 l 775 -504 l 893 -577 q 934 -530 962 -482 q 989 -434 1004 -380 q 1018 -327 1018 -263 l 1018 -263 q 1018 -185 989 -122 q 959 -60 903 -24 q 846 12 764 12 z"},"൱":{"ha":936,"x_min":35,"x_max":898,"o":"m 297 -577 l 297 -577 q 338 -577 368 -569 q 397 -562 423 -545 q 449 -529 477 -502 l 477 -502 l 543 -224 l 543 0 l 387 0 l 387 -334 q 387 -377 382 -401 q 377 -425 364 -441 l 364 -441 q 356 -450 343 -456 q 329 -463 308 -463 l 308 -463 q 280 -463 254 -446 q 228 -430 211 -394 q 194 -358 194 -298 l 194 -298 q 194 -256 203 -216 q 212 -177 231 -139 q 249 -101 279 -60 l 279 -60 l 160 13 q 120 -35 92 -83 q 64 -131 50 -184 q 35 -238 35 -300 l 35 -300 q 35 -379 65 -441 q 95 -504 154 -540 q 212 -577 297 -577 z m 638 -577 l 638 -577 q 723 -577 781 -537 q 838 -498 868 -420 q 898 -343 898 -229 l 898 -229 q 898 -89 862 7 q 826 102 745 152 q 663 201 526 201 l 526 201 q 498 201 469 199 q 439 197 409 192 l 409 192 l 420 77 q 439 81 462 83 q 485 85 510 85 l 510 85 q 581 85 626 62 q 670 38 695 -4 q 719 -47 729 -104 q 739 -162 739 -229 l 739 -229 q 739 -304 725 -356 q 711 -408 686 -435 q 660 -463 625 -463 l 625 -463 q 605 -463 591 -457 q 577 -451 567 -440 l 567 -440 q 553 -424 548 -398 q 543 -372 543 -323 l 543 -323 l 543 -10 l 396 -10 l 396 -310 l 456 -501 q 495 -541 537 -559 q 579 -577 638 -577 z"},"൲":{"ha":1460,"x_min":34,"x_max":1441,"o":"m 1254 -565 l 1254 -565 q 1322 -565 1363 -543 q 1404 -521 1423 -485 q 1441 -449 1441 -408 l 1441 -408 q 1441 -363 1425 -330 q 1409 -298 1380 -278 l 1380 -278 q 1358 -263 1333 -254 q 1307 -245 1273 -241 q 1239 -238 1192 -238 l 1192 -238 l 962 -238 l 963 -352 l 1202 -352 q 1236 -352 1253 -355 q 1269 -358 1278 -363 l 1278 -363 q 1289 -370 1295 -380 q 1300 -390 1300 -407 l 1300 -407 q 1300 -428 1288 -441 q 1276 -454 1254 -454 l 1254 -454 q 1228 -454 1216 -438 q 1203 -422 1203 -396 l 1203 -396 q 1203 -365 1215 -343 q 1226 -322 1242 -304 l 1242 -304 l 1104 -298 q 1089 -318 1078 -349 q 1067 -380 1067 -408 l 1067 -408 q 1067 -460 1092 -495 q 1116 -530 1159 -547 q 1201 -565 1254 -565 z m 297 -577 l 297 -577 q 338 -577 369 -569 q 400 -561 429 -543 q 457 -526 486 -499 l 486 -499 l 543 -228 l 543 0 l 386 0 l 386 -334 q 386 -377 382 -401 q 377 -425 364 -441 l 364 -441 q 356 -450 342 -456 q 328 -463 307 -463 l 307 -463 q 280 -463 254 -446 q 227 -430 210 -394 q 193 -358 193 -298 l 193 -298 q 193 -256 202 -216 q 211 -177 230 -139 q 249 -101 278 -60 l 278 -60 l 159 13 q 119 -35 92 -83 q 64 -131 49 -184 q 34 -238 34 -300 l 34 -300 q 34 -379 64 -441 q 94 -504 153 -540 q 211 -577 297 -577 z m 689 -577 l 689 -577 q 764 -577 826 -553 q 887 -529 932 -484 q 976 -440 1000 -377 q 1024 -314 1024 -236 l 1024 -236 q 1024 -149 997 -94 q 970 -39 920 -13 q 869 12 796 12 l 796 12 q 721 12 677 -13 q 632 -38 613 -77 q 594 -117 594 -161 l 594 -161 q 594 -214 616 -252 q 638 -290 674 -313 l 674 -313 q 698 -327 726 -335 q 753 -344 791 -348 q 829 -352 882 -352 l 882 -352 l 1132 -352 l 1132 -238 l 885 -238 q 837 -238 814 -234 q 790 -230 773 -219 l 773 -219 q 760 -210 753 -195 q 746 -181 746 -161 l 746 -161 q 746 -137 759 -119 q 772 -101 801 -101 l 801 -101 q 822 -101 838 -114 q 853 -127 862 -155 q 871 -184 871 -233 l 871 -233 q 871 -248 871 -262 q 870 -277 868 -289 l 868 -289 l 862 -325 q 854 -363 833 -394 q 811 -425 776 -443 q 740 -462 689 -462 l 689 -462 q 661 -462 637 -455 q 613 -448 593 -431 l 593 -431 q 576 -418 565 -397 q 554 -376 549 -343 q 543 -311 543 -260 l 543 -260 l 543 -198 l 454 -234 l 448 -475 q 471 -502 504 -525 q 537 -548 583 -562 q 628 -577 689 -577 z"},"൳":{"ha":746,"x_min":34,"x_max":724,"o":"m 250 12 l 250 12 q 188 12 139 -14 q 90 -41 62 -94 q 34 -148 34 -227 l 34 -227 q 34 -310 65 -369 q 95 -429 152 -466 l 152 -466 q 190 -492 233 -505 q 276 -519 332 -525 q 388 -531 465 -531 l 465 -531 l 724 -531 l 724 -414 l 477 -414 q 414 -414 372 -410 q 330 -407 302 -399 q 273 -392 251 -380 l 251 -380 q 225 -366 208 -345 q 191 -325 181 -299 l 181 -299 l 179 -268 q 178 -258 177 -246 q 176 -234 176 -220 l 176 -220 q 176 -173 186 -146 q 195 -119 211 -107 q 226 -96 245 -96 l 245 -96 q 262 -96 274 -104 q 285 -112 291 -128 q 297 -144 297 -169 l 297 -169 q 297 -207 283 -226 q 269 -245 240 -245 l 240 -245 q 209 -245 182 -225 q 154 -206 121 -165 l 121 -165 l 101 -270 q 132 -302 177 -327 q 221 -352 280 -352 l 280 -352 q 335 -352 373 -330 q 410 -308 429 -269 q 448 -230 448 -177 l 448 -177 q 448 -118 426 -75 q 403 -33 360 -10 q 316 12 250 12 z"},"൴":{"ha":966,"x_min":34,"x_max":931,"o":"m 483 -789 l 639 -789 l 639 -221 q 639 -192 641 -171 q 643 -151 648 -138 q 653 -125 661 -116 l 661 -116 q 669 -108 680 -103 q 690 -99 705 -99 l 705 -99 q 726 -99 741 -110 q 756 -122 764 -147 q 772 -173 772 -215 l 772 -215 q 772 -264 758 -305 q 744 -346 718 -377 q 692 -409 656 -430 q 619 -451 573 -460 l 573 -460 l 540 -460 q 523 -462 506 -463 q 488 -464 470 -464 l 470 -464 q 412 -464 359 -451 q 306 -439 265 -412 q 224 -385 200 -344 q 176 -303 176 -247 l 176 -247 l 176 -232 q 176 -179 186 -149 q 195 -119 211 -107 q 227 -96 246 -96 l 246 -96 q 262 -96 274 -104 q 285 -112 291 -128 q 297 -144 297 -170 l 297 -170 q 297 -208 283 -226 q 269 -245 240 -245 l 240 -245 q 209 -245 182 -225 q 154 -206 120 -165 l 120 -165 l 101 -270 q 131 -302 176 -327 q 221 -352 280 -352 l 280 -352 q 335 -352 373 -330 q 410 -308 429 -269 q 448 -230 448 -177 l 448 -177 q 448 -118 426 -76 q 403 -34 360 -11 q 316 12 251 12 l 251 12 q 192 12 143 -13 q 93 -39 64 -93 q 34 -148 34 -236 l 34 -236 q 34 -320 66 -383 q 98 -447 157 -490 q 215 -533 296 -555 q 376 -577 472 -577 l 472 -577 q 494 -577 514 -576 q 534 -576 554 -575 l 554 -575 l 594 -571 q 660 -564 721 -538 q 781 -513 829 -469 q 876 -425 904 -363 q 931 -302 931 -223 l 931 -223 q 931 -152 905 -99 q 879 -46 828 -17 q 777 12 702 12 l 702 12 q 651 12 614 0 q 577 -12 550 -34 l 550 -34 q 526 -55 511 -84 q 496 -113 490 -154 q 483 -196 483 -255 l 483 -255 l 483 -789 z"},"൵":{"ha":1275,"x_min":35,"x_max":1270,"o":"m 378 -577 l 378 -577 q 461 -577 518 -553 q 575 -530 622 -477 l 622 -477 l 642 -387 l 672 -226 l 672 0 l 515 0 l 515 -280 q 515 -350 505 -382 q 495 -415 475 -433 l 475 -433 q 459 -447 436 -455 q 412 -463 376 -463 l 376 -463 q 321 -463 276 -438 q 230 -414 203 -365 q 176 -316 176 -242 l 176 -242 l 176 -236 q 176 -180 186 -150 q 195 -120 211 -108 q 227 -96 246 -96 l 246 -96 q 263 -96 274 -104 q 285 -112 291 -128 q 297 -144 297 -170 l 297 -170 q 297 -208 283 -226 q 269 -245 240 -245 l 240 -245 q 210 -245 183 -226 q 156 -207 122 -166 l 122 -166 l 104 -272 q 135 -303 180 -327 q 224 -352 281 -352 l 281 -352 q 336 -352 374 -330 q 411 -308 430 -269 q 448 -230 448 -178 l 448 -178 q 448 -118 426 -75 q 403 -33 359 -10 q 315 12 251 12 l 251 12 q 192 12 143 -13 q 94 -39 65 -95 q 35 -152 35 -244 l 35 -244 q 35 -353 80 -427 q 125 -502 203 -539 q 281 -577 378 -577 z m 831 -577 l 831 -577 q 920 -577 983 -553 q 1046 -530 1098 -483 l 1098 -483 q 1151 -436 1179 -371 q 1207 -307 1207 -233 l 1207 -233 q 1207 -155 1182 -100 q 1156 -45 1104 -16 q 1052 12 972 12 l 972 12 q 898 12 849 -15 q 799 -42 774 -88 q 748 -134 748 -189 l 748 -189 q 748 -254 776 -302 q 803 -351 858 -395 q 912 -439 995 -488 l 995 -488 q 1042 -518 1068 -537 q 1093 -557 1104 -576 q 1114 -596 1114 -624 l 1114 -624 q 1114 -640 1109 -657 q 1104 -674 1095 -685 l 1095 -685 l 1235 -748 q 1251 -723 1261 -692 q 1270 -662 1270 -628 l 1270 -628 q 1270 -578 1250 -540 q 1230 -503 1187 -470 q 1144 -437 1074 -396 l 1074 -396 q 1019 -362 981 -330 q 942 -299 923 -265 q 904 -231 904 -187 l 904 -187 q 904 -149 921 -125 q 938 -101 972 -101 l 972 -101 q 1000 -101 1017 -114 q 1033 -128 1041 -154 q 1049 -181 1049 -219 l 1049 -219 q 1049 -278 1028 -333 q 1006 -389 961 -424 l 961 -424 q 937 -444 907 -455 q 877 -466 831 -466 l 831 -466 q 796 -466 770 -458 q 744 -451 724 -435 l 724 -435 q 707 -421 695 -400 q 683 -380 678 -347 q 672 -315 672 -265 l 672 -265 l 672 -22 l 524 -22 l 524 -308 l 567 -468 q 595 -499 629 -523 q 662 -548 711 -562 q 759 -577 831 -577 z"},"൶":{"ha":1380,"x_min":28,"x_max":1329,"o":"m 254 -367 l 254 -367 q 333 -367 382 -338 q 431 -310 454 -266 q 476 -223 476 -176 l 476 -176 q 476 -147 468 -120 q 459 -93 449 -73 l 449 -73 l 443 -114 l 712 -114 l 723 0 l 348 0 l 296 -64 q 306 -82 316 -107 q 325 -132 325 -166 l 325 -166 q 325 -202 309 -228 q 292 -254 255 -254 l 255 -254 q 231 -254 215 -242 q 199 -231 191 -211 q 183 -191 183 -167 l 183 -167 q 183 -126 196 -98 q 209 -70 225 -43 l 225 -43 l 101 12 q 68 -28 48 -72 q 28 -117 28 -174 l 28 -174 q 28 -233 56 -276 q 84 -319 135 -343 q 186 -367 254 -367 z m 985 -577 l 985 -577 q 1074 -577 1137 -557 q 1200 -538 1242 -503 l 1242 -503 q 1272 -477 1291 -444 q 1310 -411 1320 -365 q 1329 -319 1329 -254 l 1329 -254 l 1329 0 l 660 0 l 660 -254 q 660 -319 670 -365 q 680 -412 700 -446 q 719 -480 749 -504 l 749 -504 q 790 -540 848 -558 q 905 -577 985 -577 z m 908 -460 l 908 -460 q 887 -460 870 -447 q 853 -435 840 -414 l 840 -414 q 828 -393 822 -360 q 816 -328 816 -273 l 816 -273 l 816 -67 l 777 -69 q 827 -118 868 -171 q 908 -224 933 -279 q 957 -335 957 -390 l 957 -390 q 957 -411 953 -426 q 948 -442 938 -451 q 927 -460 908 -460 z m 1111 -364 l 1111 -364 q 1111 -318 1096 -274 q 1080 -231 1053 -189 q 1025 -147 988 -104 l 988 -104 l 969 -109 q 989 -112 1014 -112 q 1038 -113 1054 -113 l 1054 -113 l 1174 -113 l 1174 -261 q 1174 -324 1163 -364 q 1152 -405 1129 -430 q 1106 -455 1068 -471 l 1068 -471 l 1070 -477 q 1087 -458 1099 -430 q 1111 -402 1111 -364 z"},"൷":{"ha":1790,"x_min":28,"x_max":1770,"o":"m 254 -367 l 254 -367 q 333 -367 382 -338 q 431 -310 454 -266 q 476 -223 476 -176 l 476 -176 q 476 -147 468 -120 q 459 -93 449 -73 l 449 -73 l 443 -114 l 687 -114 l 729 0 l 348 0 l 296 -64 q 306 -82 316 -107 q 325 -132 325 -166 l 325 -166 q 325 -202 309 -228 q 292 -254 255 -254 l 255 -254 q 231 -254 215 -242 q 199 -231 191 -211 q 183 -191 183 -167 l 183 -167 q 183 -126 196 -98 q 209 -70 225 -43 l 225 -43 l 101 12 q 68 -28 48 -72 q 28 -117 28 -174 l 28 -174 q 28 -233 56 -276 q 84 -319 135 -343 q 186 -367 254 -367 z m 827 -577 l 827 -577 q 868 -577 899 -569 q 930 -561 958 -543 q 986 -526 1016 -499 l 1016 -499 l 1073 -270 l 1073 -230 l 916 -230 l 916 -334 q 916 -377 911 -401 q 906 -425 893 -441 l 893 -441 q 886 -450 872 -456 q 858 -463 837 -463 l 837 -463 q 810 -463 784 -446 q 757 -430 740 -394 q 723 -358 723 -299 l 723 -299 q 723 -238 742 -182 q 761 -127 802 -65 l 802 -65 l 749 0 l 663 0 l 626 -93 q 605 -124 592 -156 q 578 -188 571 -223 q 564 -259 564 -300 l 564 -300 q 564 -379 594 -441 q 624 -504 683 -540 q 741 -577 827 -577 z m 1229 -577 l 1229 -577 q 1305 -577 1368 -553 q 1430 -529 1475 -484 q 1520 -440 1545 -377 q 1569 -314 1569 -236 l 1569 -236 q 1569 -149 1542 -94 q 1514 -39 1464 -13 q 1413 12 1340 12 l 1340 12 q 1265 12 1221 -13 q 1176 -38 1157 -77 q 1138 -117 1138 -161 l 1138 -161 q 1138 -214 1160 -252 q 1182 -290 1219 -313 l 1219 -313 q 1242 -327 1270 -335 q 1298 -344 1336 -348 q 1373 -352 1426 -352 l 1426 -352 l 1492 -352 l 1492 -238 l 1430 -238 q 1382 -238 1358 -234 q 1334 -230 1317 -219 l 1317 -219 q 1304 -210 1298 -195 q 1291 -181 1291 -161 l 1291 -161 q 1291 -137 1304 -119 q 1317 -101 1346 -101 l 1346 -101 q 1367 -101 1383 -113 q 1398 -126 1407 -155 q 1416 -184 1416 -233 l 1416 -233 q 1416 -248 1416 -262 q 1415 -277 1413 -289 l 1413 -289 l 1407 -325 q 1399 -362 1377 -393 q 1354 -425 1317 -443 q 1280 -462 1226 -462 l 1226 -462 q 1192 -462 1168 -455 q 1144 -449 1123 -431 l 1123 -431 q 1107 -418 1096 -397 q 1084 -376 1079 -343 q 1073 -311 1073 -260 l 1073 -260 l 1073 -240 l 984 -237 l 980 -478 q 1003 -504 1037 -526 q 1070 -549 1118 -563 q 1166 -577 1229 -577 z m 1609 -448 l 1758 -476 q 1763 -462 1767 -441 q 1770 -421 1770 -400 l 1770 -400 q 1770 -358 1755 -328 q 1740 -298 1714 -279 l 1714 -279 q 1681 -255 1639 -246 q 1596 -238 1528 -238 l 1528 -238 l 1478 -238 l 1478 -352 l 1517 -352 q 1544 -352 1563 -355 q 1581 -358 1593 -367 l 1593 -367 q 1604 -374 1609 -386 q 1614 -398 1614 -415 l 1614 -415 q 1614 -423 1613 -432 q 1611 -442 1609 -448 l 1609 -448 z"},"൸":{"ha":2217,"x_min":8,"x_max":2167,"o":"m 1415 -577 l 1415 -577 q 1445 -577 1471 -572 q 1497 -567 1520 -556 q 1543 -546 1564 -529 q 1585 -512 1604 -487 l 1604 -487 l 1572 -486 q 1601 -516 1638 -536 q 1675 -556 1721 -566 q 1767 -577 1823 -577 l 1823 -577 q 1911 -577 1975 -557 q 2038 -538 2079 -503 l 2079 -503 q 2109 -477 2129 -444 q 2148 -411 2158 -365 q 2167 -319 2167 -254 l 2167 -254 l 2167 0 l 1652 0 l 1652 -106 q 1691 -149 1723 -195 q 1755 -242 1775 -291 q 1794 -340 1794 -390 l 1794 -390 q 1794 -411 1790 -426 q 1785 -442 1775 -451 q 1764 -460 1745 -460 l 1745 -460 q 1724 -460 1707 -448 q 1690 -437 1678 -415 l 1678 -415 q 1667 -395 1662 -363 q 1656 -331 1656 -281 l 1656 -281 l 1656 -230 l 1500 -230 l 1500 -314 q 1500 -364 1496 -391 q 1492 -418 1479 -435 l 1479 -435 q 1471 -448 1457 -455 q 1442 -462 1420 -462 l 1420 -462 q 1398 -462 1384 -455 q 1369 -448 1360 -433 l 1360 -433 q 1348 -416 1344 -389 q 1340 -362 1340 -316 l 1340 -316 l 1340 -247 q 1340 -200 1334 -163 q 1327 -126 1314 -98 q 1300 -70 1279 -48 l 1279 -48 q 1251 -20 1207 -4 q 1163 12 1101 12 l 1101 12 q 1038 12 995 -4 q 951 -20 922 -48 l 922 -48 q 902 -70 889 -98 q 875 -126 869 -163 q 862 -200 862 -247 l 862 -247 l 862 -316 q 862 -366 858 -392 q 853 -418 841 -435 l 841 -435 q 832 -448 818 -455 q 803 -462 782 -462 l 782 -462 q 760 -462 745 -455 q 730 -448 722 -433 l 722 -433 q 710 -416 706 -389 q 702 -362 702 -316 l 702 -316 l 702 -248 q 702 -173 686 -125 q 670 -77 636 -45 l 636 -45 q 606 -17 566 -2 q 526 12 473 12 l 473 12 q 409 12 367 -8 q 324 -28 291 -65 l 291 -65 l 307 -63 q 281 -36 255 -19 q 229 -3 200 5 q 170 12 135 12 l 135 12 q 98 12 68 5 q 38 -3 8 -20 l 8 -20 l 50 -125 q 68 -116 89 -109 q 109 -103 134 -103 l 134 -103 q 153 -103 169 -108 q 185 -114 195 -126 l 195 -126 q 210 -142 215 -167 q 219 -192 219 -242 l 219 -242 l 219 -562 l 375 -565 l 375 -240 q 375 -194 381 -168 q 387 -142 401 -126 l 401 -126 q 411 -115 426 -109 q 441 -103 459 -103 l 459 -103 q 481 -103 496 -109 q 510 -116 520 -129 l 520 -129 q 534 -146 539 -172 q 543 -199 543 -251 l 543 -251 l 543 -319 q 543 -366 550 -402 q 556 -439 570 -467 q 583 -496 604 -517 l 604 -517 q 632 -546 676 -561 q 720 -577 782 -577 l 782 -577 q 843 -577 888 -561 q 932 -545 960 -517 l 960 -517 q 981 -496 995 -467 q 1008 -439 1015 -402 q 1021 -366 1021 -318 l 1021 -318 l 1021 -251 q 1021 -202 1026 -175 q 1030 -148 1042 -131 l 1042 -131 q 1051 -117 1065 -110 q 1079 -103 1101 -103 l 1101 -103 q 1123 -103 1138 -110 q 1152 -118 1161 -132 l 1161 -132 q 1173 -149 1177 -176 q 1181 -203 1181 -249 l 1181 -249 l 1181 -319 q 1181 -366 1188 -402 q 1194 -439 1208 -467 q 1221 -496 1242 -517 l 1242 -517 q 1271 -546 1314 -561 q 1357 -577 1415 -577 z m 1948 -364 l 1948 -364 q 1948 -318 1933 -274 q 1918 -231 1891 -189 q 1863 -147 1825 -104 l 1825 -104 l 1806 -109 q 1827 -112 1851 -112 q 1875 -113 1892 -113 l 1892 -113 l 2011 -113 l 2011 -261 q 2011 -324 2000 -364 q 1989 -405 1966 -430 q 1943 -455 1905 -471 l 1905 -471 l 1907 -477 q 1925 -458 1937 -430 q 1948 -402 1948 -364 z"},"൹":{"ha":1155,"x_min":35,"x_max":1133,"o":"m 297 -577 l 297 -577 q 338 -577 370 -569 q 401 -561 429 -543 q 457 -526 487 -499 l 487 -499 l 543 -228 l 543 0 l 387 0 l 387 -334 q 387 -377 382 -401 q 377 -425 364 -441 l 364 -441 q 356 -450 343 -456 q 329 -463 308 -463 l 308 -463 q 280 -463 254 -446 q 228 -430 211 -394 q 194 -358 194 -298 l 194 -298 q 194 -256 203 -216 q 212 -177 231 -139 q 249 -101 279 -60 l 279 -60 l 160 13 q 120 -35 92 -83 q 64 -131 50 -184 q 35 -238 35 -300 l 35 -300 q 35 -379 65 -441 q 95 -504 154 -540 q 212 -577 297 -577 z m 690 -577 l 690 -577 q 764 -577 826 -553 q 887 -529 932 -484 q 976 -440 1001 -377 q 1025 -314 1025 -236 l 1025 -236 q 1025 -149 998 -94 q 971 -39 920 -13 q 869 12 796 12 l 796 12 q 721 12 677 -13 q 632 -38 614 -77 q 595 -117 595 -161 l 595 -161 q 595 -214 617 -252 q 638 -290 675 -313 l 675 -313 q 698 -327 726 -335 q 754 -344 792 -348 q 830 -352 882 -352 l 882 -352 l 1133 -352 l 1133 -238 l 886 -238 q 838 -238 814 -234 q 790 -230 774 -219 l 774 -219 q 761 -210 754 -195 q 747 -181 747 -161 l 747 -161 q 747 -137 760 -119 q 773 -101 801 -101 l 801 -101 q 822 -101 838 -114 q 854 -127 863 -155 q 871 -184 871 -233 l 871 -233 q 871 -248 871 -262 q 870 -277 868 -289 l 868 -289 l 862 -325 q 855 -363 833 -394 q 811 -425 776 -443 q 740 -462 690 -462 l 690 -462 q 662 -462 638 -455 q 614 -448 593 -431 l 593 -431 q 576 -418 565 -397 q 554 -376 549 -343 q 543 -311 543 -260 l 543 -260 l 543 -198 l 454 -234 l 449 -475 q 472 -502 505 -525 q 537 -548 583 -562 q 628 -577 690 -577 z"},"ൺ":{"ha":1566,"x_min":35,"x_max":1532,"o":"m 378 -577 l 378 -577 q 461 -577 518 -553 q 575 -529 622 -477 l 622 -477 l 580 -496 q 613 -537 658 -557 q 703 -577 760 -577 l 760 -577 q 820 -577 862 -556 q 904 -536 940 -496 l 940 -496 l 947 -437 l 1003 -269 l 1003 0 l 847 0 l 847 -324 q 847 -371 842 -397 q 836 -423 821 -440 l 821 -440 q 811 -451 796 -457 q 781 -463 759 -463 l 759 -463 q 739 -463 724 -456 q 709 -449 698 -438 l 698 -438 q 684 -421 678 -395 q 672 -369 672 -317 l 672 -317 l 672 0 l 515 0 l 515 -280 q 515 -349 505 -382 q 495 -415 475 -433 l 475 -433 q 459 -447 436 -455 q 412 -463 376 -463 l 376 -463 q 321 -463 276 -438 q 230 -414 203 -365 q 176 -316 176 -242 l 176 -242 l 176 -236 q 176 -180 186 -150 q 195 -120 211 -108 q 227 -96 246 -96 l 246 -96 q 263 -96 274 -104 q 285 -112 291 -128 q 297 -144 297 -170 l 297 -170 q 297 -208 283 -226 q 269 -245 240 -245 l 240 -245 q 210 -245 183 -226 q 156 -207 122 -166 l 122 -166 l 104 -272 q 135 -303 180 -327 q 224 -352 281 -352 l 281 -352 q 336 -352 374 -330 q 411 -308 430 -269 q 448 -230 448 -177 l 448 -177 q 448 -117 426 -75 q 403 -33 359 -10 q 315 12 251 12 l 251 12 q 192 12 143 -13 q 94 -39 65 -95 q 35 -152 35 -244 l 35 -244 q 35 -353 80 -427 q 125 -502 203 -539 q 281 -577 378 -577 z m 1306 12 l 1306 12 q 1233 12 1184 -15 q 1135 -43 1110 -95 q 1085 -148 1085 -221 l 1085 -221 q 1085 -269 1099 -314 q 1113 -359 1145 -403 q 1176 -447 1228 -493 l 1228 -493 l 1248 -528 q 1281 -559 1300 -583 q 1319 -608 1319 -639 l 1319 -639 q 1319 -661 1306 -674 q 1292 -688 1263 -688 l 1263 -688 q 1246 -688 1231 -685 q 1216 -683 1205 -680 l 1205 -680 l 1179 -784 q 1204 -792 1240 -796 q 1275 -801 1311 -801 l 1311 -801 q 1377 -801 1412 -780 q 1447 -759 1461 -727 q 1474 -696 1474 -663 l 1474 -663 q 1474 -609 1446 -563 q 1418 -518 1367 -470 l 1367 -470 l 1346 -447 q 1313 -417 1290 -380 q 1266 -343 1254 -301 q 1241 -259 1241 -216 l 1241 -216 q 1241 -182 1247 -156 q 1253 -130 1268 -115 q 1283 -101 1308 -101 l 1308 -101 q 1340 -101 1357 -127 q 1373 -154 1373 -219 l 1373 -219 q 1373 -262 1363 -304 q 1353 -346 1333 -381 q 1313 -416 1281 -437 l 1281 -437 q 1259 -450 1234 -458 q 1208 -467 1165 -467 l 1165 -467 q 1130 -467 1104 -459 q 1077 -452 1056 -436 l 1056 -436 q 1039 -423 1028 -402 q 1016 -382 1010 -350 q 1003 -318 1003 -269 l 1003 -269 l 1003 -58 l 860 -58 l 860 -256 l 899 -468 q 926 -499 960 -523 q 993 -548 1043 -562 q 1092 -577 1164 -577 l 1164 -577 q 1212 -577 1253 -569 q 1294 -562 1329 -546 l 1329 -546 q 1336 -544 1343 -540 q 1350 -537 1357 -533 l 1357 -533 q 1412 -505 1451 -458 q 1490 -412 1511 -353 q 1532 -294 1532 -229 l 1532 -229 q 1532 -113 1477 -50 q 1422 12 1306 12 z"},"ൻ":{"ha":1106,"x_min":35,"x_max":1072,"o":"m 296 -577 l 296 -577 q 337 -577 368 -569 q 398 -562 425 -545 q 451 -529 479 -504 l 479 -504 l 543 -239 l 543 0 l 387 0 l 387 -334 q 387 -377 382 -401 q 377 -425 364 -441 l 364 -441 q 356 -450 343 -456 q 329 -463 308 -463 l 308 -463 q 280 -463 254 -446 q 228 -430 211 -394 q 194 -358 194 -298 l 194 -298 q 194 -256 203 -216 q 212 -177 231 -139 q 249 -101 279 -60 l 279 -60 l 160 13 q 120 -35 92 -83 q 64 -131 50 -184 q 35 -238 35 -300 l 35 -300 q 35 -379 65 -441 q 95 -504 153 -540 q 211 -577 296 -577 z m 847 12 l 847 12 q 773 12 724 -15 q 675 -43 651 -95 q 626 -148 626 -221 l 626 -221 q 626 -269 640 -314 q 653 -359 685 -403 q 716 -447 768 -493 l 768 -493 l 789 -528 q 821 -559 840 -583 q 859 -608 859 -639 l 859 -639 q 859 -661 846 -674 q 833 -688 803 -688 l 803 -688 q 786 -688 772 -685 q 757 -683 745 -680 l 745 -680 l 719 -784 q 744 -792 780 -796 q 816 -801 851 -801 l 851 -801 q 917 -801 953 -780 q 988 -759 1001 -727 q 1014 -696 1014 -663 l 1014 -663 q 1014 -609 987 -563 q 959 -518 907 -470 l 907 -470 l 886 -447 q 853 -417 830 -380 q 806 -343 794 -301 q 781 -259 781 -216 l 781 -216 q 781 -182 787 -156 q 793 -130 808 -115 q 823 -101 848 -101 l 848 -101 q 881 -101 898 -127 q 914 -154 914 -219 l 914 -219 q 914 -262 904 -304 q 894 -346 874 -381 q 853 -416 821 -437 l 821 -437 q 799 -450 774 -458 q 749 -467 705 -467 l 705 -467 q 671 -467 644 -459 q 617 -452 596 -436 l 596 -436 q 579 -423 568 -402 q 556 -382 550 -350 q 543 -318 543 -269 l 543 -269 l 543 -58 l 400 -58 l 400 -256 l 439 -468 q 467 -499 501 -523 q 534 -548 583 -562 q 632 -577 704 -577 l 704 -577 q 753 -577 794 -569 q 834 -562 869 -546 l 869 -546 q 876 -544 883 -540 q 890 -537 897 -533 l 897 -533 q 952 -505 992 -458 q 1031 -412 1052 -353 q 1072 -294 1072 -229 l 1072 -229 q 1072 -113 1017 -50 q 962 12 847 12 z"},"ർ":{"ha":774,"x_min":35,"x_max":740,"o":"m 515 12 l 515 12 q 441 12 392 -15 q 343 -43 319 -95 q 294 -148 294 -221 l 294 -221 q 294 -269 308 -314 q 321 -359 353 -403 q 384 -447 436 -493 l 436 -493 l 457 -528 q 489 -559 508 -583 q 527 -608 527 -639 l 527 -639 q 527 -661 514 -674 q 500 -688 471 -688 l 471 -688 q 455 -688 440 -685 q 424 -683 413 -680 l 413 -680 l 387 -784 q 412 -792 448 -796 q 484 -801 519 -801 l 519 -801 q 585 -801 620 -780 q 655 -759 669 -727 q 682 -696 682 -663 l 682 -663 q 682 -609 655 -563 q 627 -518 575 -470 l 575 -470 l 554 -447 q 521 -417 498 -380 q 474 -343 462 -301 q 449 -259 449 -216 l 449 -216 q 449 -182 455 -156 q 461 -130 476 -115 q 491 -101 516 -101 l 516 -101 q 549 -101 566 -127 q 582 -154 582 -219 l 582 -219 q 582 -251 576 -283 q 570 -315 559 -344 q 548 -374 531 -397 q 513 -421 489 -437 l 489 -437 q 467 -450 444 -458 q 420 -466 381 -466 l 381 -466 q 321 -466 280 -444 q 238 -423 217 -383 q 195 -343 195 -286 l 195 -286 q 195 -240 206 -202 q 216 -164 236 -129 q 256 -95 285 -60 l 285 -60 l 171 13 q 131 -25 101 -68 q 70 -112 53 -166 q 35 -220 35 -287 l 35 -287 q 35 -342 54 -394 q 72 -446 112 -487 q 152 -528 217 -552 q 281 -577 375 -577 l 375 -577 q 421 -577 462 -569 q 502 -562 537 -546 l 537 -546 q 544 -544 551 -540 q 558 -537 565 -533 l 565 -533 q 620 -505 659 -458 q 698 -411 719 -352 q 740 -294 740 -228 l 740 -228 q 740 -113 685 -50 q 630 12 515 12 z"},"ൽ":{"ha":1266,"x_min":35,"x_max":1233,"o":"m 767 -577 l 767 -577 q 826 -577 870 -571 q 914 -566 950 -556 q 986 -547 1018 -533 l 1018 -533 l 1056 -517 q 1142 -470 1188 -395 q 1233 -320 1233 -222 l 1233 -222 q 1233 -112 1178 -50 q 1123 12 1007 12 l 1007 12 q 934 12 885 -15 q 835 -43 811 -95 q 786 -148 786 -221 l 786 -221 q 786 -269 800 -314 q 814 -359 845 -403 q 876 -447 928 -493 l 928 -493 l 949 -528 q 982 -559 1001 -583 q 1020 -608 1020 -639 l 1020 -639 q 1020 -661 1006 -674 q 992 -688 963 -688 l 963 -688 q 947 -688 932 -685 q 917 -683 906 -680 l 906 -680 l 880 -784 q 905 -792 940 -796 q 975 -801 1012 -801 l 1012 -801 q 1078 -801 1113 -780 q 1148 -759 1162 -727 q 1175 -696 1175 -663 l 1175 -663 q 1175 -609 1147 -563 q 1119 -518 1067 -470 l 1067 -470 l 1047 -447 q 1013 -417 990 -380 q 966 -343 954 -301 q 942 -259 942 -216 l 942 -216 q 942 -182 948 -156 q 954 -130 969 -115 q 984 -101 1009 -101 l 1009 -101 q 1041 -101 1058 -127 q 1074 -153 1074 -214 l 1074 -214 q 1074 -256 1062 -296 q 1049 -337 1026 -370 q 1002 -403 969 -423 l 969 -423 l 929 -436 q 894 -451 855 -457 q 815 -463 769 -463 l 769 -463 q 727 -463 687 -457 q 647 -451 613 -438 l 613 -438 l 576 -428 q 524 -398 492 -343 q 460 -288 460 -212 l 460 -212 q 460 -172 470 -147 q 479 -123 495 -112 q 511 -102 529 -102 l 529 -102 q 548 -102 564 -112 q 580 -123 590 -150 q 599 -177 599 -225 l 599 -225 q 599 -276 585 -320 q 570 -364 543 -397 q 516 -430 480 -448 l 480 -448 l 456 -456 q 440 -462 421 -464 q 402 -467 384 -467 l 384 -467 q 317 -467 275 -443 q 233 -420 214 -379 q 194 -338 194 -285 l 194 -285 q 194 -240 205 -202 q 215 -165 235 -130 q 255 -96 284 -61 l 284 -61 l 170 12 q 131 -26 101 -69 q 70 -113 53 -166 q 35 -220 35 -288 l 35 -288 q 35 -338 52 -389 q 68 -440 106 -482 q 144 -525 209 -551 q 273 -577 370 -577 l 370 -577 q 428 -577 476 -566 q 523 -555 565 -532 l 565 -532 l 591 -510 q 669 -465 713 -396 q 756 -327 756 -225 l 756 -225 q 756 -145 730 -92 q 704 -40 653 -14 q 602 12 527 12 l 527 12 q 456 12 406 -15 q 356 -42 330 -94 q 303 -146 303 -218 l 303 -218 q 303 -278 322 -328 q 341 -379 379 -420 q 417 -462 474 -493 l 474 -493 l 503 -521 q 553 -549 619 -563 q 684 -577 767 -577 z"},"ൾ":{"ha":1086,"x_min":35,"x_max":1052,"o":"m 833 -801 l 833 -801 q 899 -801 934 -780 q 968 -759 981 -727 q 994 -696 994 -663 l 994 -663 q 994 -609 966 -563 q 938 -518 887 -470 l 887 -470 l 866 -447 q 833 -417 810 -380 q 786 -343 774 -301 q 762 -259 762 -216 l 762 -216 q 762 -182 768 -155 q 774 -129 789 -115 q 804 -101 829 -101 l 829 -101 q 861 -101 878 -127 q 894 -154 894 -219 l 894 -219 q 894 -251 889 -282 q 883 -314 873 -343 q 862 -373 845 -397 q 827 -421 803 -437 l 803 -437 q 781 -451 756 -458 q 731 -466 693 -466 l 693 -466 q 659 -466 631 -457 q 603 -449 584 -433 l 584 -433 q 555 -409 545 -369 q 534 -330 534 -270 l 534 -270 l 534 -243 q 534 -200 528 -163 q 521 -127 508 -97 q 495 -68 471 -46 l 471 -46 q 442 -18 399 -3 q 356 12 294 12 l 294 12 q 213 12 155 -22 q 97 -56 66 -118 q 35 -180 35 -263 l 35 -263 q 35 -329 50 -383 q 65 -437 93 -484 q 121 -532 160 -578 l 160 -578 l 278 -505 q 249 -465 231 -427 q 212 -390 203 -351 q 194 -312 194 -268 l 194 -268 q 194 -207 208 -171 q 221 -135 244 -119 q 267 -103 293 -103 l 293 -103 q 315 -103 330 -110 q 344 -117 354 -130 l 354 -130 q 367 -147 371 -172 q 375 -198 375 -236 l 375 -236 l 375 -281 q 375 -371 398 -427 q 421 -483 467 -518 l 467 -518 q 508 -549 562 -563 q 615 -577 693 -577 l 693 -577 q 740 -577 778 -569 q 815 -562 849 -548 l 849 -548 l 878 -534 q 933 -506 972 -459 q 1011 -413 1032 -354 q 1052 -295 1052 -229 l 1052 -229 q 1052 -113 997 -50 q 942 12 827 12 l 827 12 q 753 12 704 -15 q 655 -43 631 -95 q 606 -148 606 -221 l 606 -221 q 606 -269 620 -314 q 633 -359 665 -403 q 696 -447 748 -493 l 748 -493 l 769 -528 q 801 -559 821 -583 q 840 -608 840 -639 l 840 -639 q 840 -661 827 -674 q 813 -688 783 -688 l 783 -688 q 767 -688 752 -685 q 737 -683 725 -680 l 725 -680 l 699 -784 q 725 -792 761 -796 q 797 -801 833 -801 z"},"ൿ":{"ha":1271,"x_min":28,"x_max":1242,"o":"m 543 -577 l 543 -577 q 636 -577 693 -540 q 750 -504 776 -438 q 802 -373 802 -285 l 802 -285 q 802 -187 773 -121 q 743 -55 686 -21 q 628 12 544 12 l 544 12 q 477 12 428 -9 q 378 -30 347 -70 l 347 -70 q 314 -110 299 -165 q 283 -220 283 -287 l 283 -287 q 283 -425 350 -501 q 417 -577 543 -577 z m 543 -464 l 543 -464 q 488 -464 463 -419 q 437 -375 437 -282 l 437 -282 q 437 -223 449 -182 q 460 -142 483 -122 q 506 -102 543 -102 l 543 -102 q 578 -102 602 -121 q 625 -141 637 -181 q 649 -222 649 -284 l 649 -284 q 649 -345 638 -385 q 626 -425 603 -444 q 579 -464 543 -464 z m 225 12 l 225 12 q 130 12 79 -34 q 28 -81 28 -163 l 28 -163 q 28 -216 52 -252 q 75 -289 113 -311 l 113 -311 q 139 -326 171 -335 q 202 -344 245 -348 q 288 -352 350 -352 l 350 -352 l 968 -352 q 1036 -352 1086 -342 q 1135 -332 1173 -305 l 1173 -305 q 1204 -283 1223 -248 q 1242 -214 1242 -165 l 1242 -165 q 1242 -85 1194 -36 q 1146 12 1044 12 l 1044 12 q 941 12 891 -37 q 840 -87 840 -162 l 840 -162 q 840 -195 849 -225 q 857 -256 871 -288 l 871 -288 q 874 -294 875 -301 q 876 -308 878 -315 l 878 -315 q 891 -342 907 -373 q 923 -404 945 -444 l 945 -444 q 973 -495 990 -530 q 1007 -565 1016 -590 q 1024 -616 1024 -637 l 1024 -637 q 1024 -660 1011 -674 q 997 -688 968 -688 l 968 -688 q 951 -688 936 -685 q 921 -683 910 -680 l 910 -680 l 884 -784 q 909 -792 944 -796 q 979 -801 1015 -801 l 1015 -801 q 1081 -801 1116 -780 q 1151 -759 1165 -727 q 1179 -696 1179 -663 l 1179 -663 q 1179 -635 1174 -609 q 1168 -584 1157 -555 q 1145 -527 1126 -490 q 1107 -454 1080 -405 l 1080 -405 q 1064 -376 1052 -352 q 1040 -328 1030 -308 l 1030 -308 q 1026 -299 1023 -291 q 1020 -283 1016 -275 l 1016 -275 q 1003 -247 996 -222 q 988 -198 988 -170 l 988 -170 q 988 -147 995 -131 q 1002 -116 1014 -108 q 1026 -101 1042 -101 l 1042 -101 q 1067 -101 1080 -116 q 1092 -132 1092 -159 l 1092 -159 q 1092 -181 1085 -195 q 1078 -210 1066 -219 l 1066 -219 q 1049 -231 1026 -234 q 1002 -238 969 -238 l 969 -238 l 308 -238 q 268 -238 244 -234 q 220 -230 204 -219 l 204 -219 q 192 -210 184 -197 q 176 -184 176 -165 l 176 -165 q 176 -145 184 -130 q 191 -115 207 -108 q 223 -101 248 -101 l 248 -101 q 274 -101 298 -110 q 322 -120 349 -142 l 349 -142 l 414 -42 q 383 -21 354 -9 q 325 3 294 8 q 263 12 225 12 z"},"!":{"ha":307,"x_min":63,"x_max":244,"o":"m 220 -244 l 87 -244 l 63 -714 l 244 -714 l 220 -244 z m 153 13 l 153 13 q 114 13 89 -8 q 63 -30 63 -75 l 63 -75 q 63 -122 88 -142 q 113 -163 153 -163 l 153 -163 q 191 -163 217 -142 q 242 -122 242 -75 l 242 -75 q 242 -30 217 -8 q 191 13 153 13 z"},"\"":{"ha":492,"x_min":63,"x_max":429,"o":"m 195 -542 l 82 -542 l 63 -800 l 214 -800 l 195 -542 z m 409 -542 l 297 -542 l 277 -800 l 429 -800 l 409 -542 z"},"#":{"ha":632,"x_min":31,"x_max":600,"o":"m 205 0 l 93 0 l 129 -196 l 31 -196 l 31 -303 l 150 -303 l 171 -410 l 61 -410 l 61 -518 l 190 -518 l 228 -713 l 341 -713 l 303 -518 l 390 -518 l 427 -713 l 539 -713 l 501 -518 l 600 -518 l 600 -410 l 481 -410 l 460 -303 l 572 -303 l 572 -196 l 440 -196 l 403 0 l 290 0 l 327 -196 l 242 -196 l 205 0 z m 283 -410 l 262 -303 l 348 -303 l 369 -410 l 283 -410 z"},"%":{"ha":881,"x_min":29,"x_max":851,"o":"m 323 0 l 201 0 l 556 -714 l 678 -714 l 323 0 z m 194 -276 l 194 -276 q 114 -276 72 -335 q 29 -395 29 -500 l 29 -500 q 29 -607 70 -665 q 111 -724 195 -724 l 195 -724 q 276 -724 319 -665 q 361 -607 361 -501 l 361 -501 q 361 -394 320 -335 q 279 -276 194 -276 z m 195 -383 l 195 -383 q 216 -383 225 -411 q 234 -439 234 -500 l 234 -500 q 234 -561 225 -589 q 216 -617 195 -617 l 195 -617 q 175 -617 166 -589 q 157 -561 157 -500 l 157 -500 q 157 -440 166 -411 q 175 -383 195 -383 z m 683 9 l 683 9 q 604 9 562 -50 q 519 -110 519 -216 l 519 -216 q 519 -322 560 -380 q 600 -439 685 -439 l 685 -439 q 766 -439 809 -380 q 851 -322 851 -216 l 851 -216 q 851 -109 810 -50 q 769 9 683 9 z m 687 -98 l 687 -98 q 707 -98 717 -126 q 726 -154 726 -215 l 726 -215 q 726 -276 717 -304 q 707 -332 687 -332 l 687 -332 q 666 -332 657 -304 q 648 -276 648 -215 l 648 -215 q 648 -156 658 -127 q 667 -98 687 -98 z"},"'":{"ha":278,"x_min":63,"x_max":214,"o":"m 195 -542 l 82 -542 l 63 -800 l 214 -800 l 195 -542 z"},"(":{"ha":355,"x_min":42,"x_max":327,"o":"m 42 -280 l 42 -280 q 42 -373 59 -467 q 76 -561 109 -647 q 142 -733 190 -800 l 190 -800 l 327 -800 q 283 -725 252 -640 q 221 -555 204 -464 q 187 -373 187 -280 l 187 -280 q 187 -186 204 -95 q 220 -5 251 81 q 282 166 327 244 l 327 244 l 190 244 q 141 172 108 86 q 75 0 59 -93 q 42 -186 42 -280 z"},")":{"ha":355,"x_min":28,"x_max":313,"o":"m 313 -276 l 313 -276 q 313 -184 296 -89 q 279 5 246 91 q 213 176 165 244 l 165 244 l 28 244 q 72 169 103 84 q 134 -1 151 -92 q 168 -184 168 -277 l 168 -277 q 168 -371 152 -461 q 136 -551 105 -636 q 73 -722 28 -800 l 28 -800 l 165 -800 q 215 -729 248 -643 q 280 -557 297 -463 q 313 -370 313 -276 z"},"*":{"ha":545,"x_min":33,"x_max":513,"o":"m 205 -800 l 340 -800 l 321 -627 l 496 -676 l 513 -546 l 355 -535 l 459 -397 l 342 -335 l 270 -478 l 208 -336 l 87 -397 l 190 -535 l 33 -547 l 53 -676 l 224 -627 l 205 -800 z"},"+":{"ha":539,"x_min":38,"x_max":500,"o":"m 328 -111 l 210 -111 l 210 -294 l 38 -294 l 38 -411 l 210 -411 l 210 -596 l 328 -596 l 328 -411 l 500 -411 l 500 -294 l 328 -294 l 328 -111 z"},",":{"ha":294,"x_min":33,"x_max":232,"o":"m 78 -130 l 226 -130 l 232 -119 q 223 -77 211 -32 q 198 12 184 55 q 169 97 153 134 l 153 134 l 33 134 q 42 93 51 46 q 59 -1 67 -47 q 74 -94 78 -130 l 78 -130 z"},"-":{"ha":330,"x_min":33,"x_max":297,"o":"m 297 -202 l 33 -202 l 33 -335 l 297 -335 l 297 -202 z"},".":{"ha":289,"x_min":55,"x_max":234,"o":"m 145 13 l 145 13 q 106 13 81 -8 q 55 -30 55 -75 l 55 -75 q 55 -121 81 -142 q 106 -163 145 -163 l 145 -163 q 184 -163 209 -142 q 234 -121 234 -75 l 234 -75 q 234 -30 209 -8 q 184 13 145 13 z"},"/":{"ha":437,"x_min":17,"x_max":421,"o":"m 156 244 l 17 244 l 282 -800 l 421 -800 l 156 244 z"},":":{"ha":289,"x_min":55,"x_max":234,"o":"m 146 13 l 146 13 q 106 13 81 -8 q 55 -30 55 -75 l 55 -75 q 55 -121 80 -142 q 105 -163 146 -163 l 146 -163 q 184 -163 209 -142 q 234 -121 234 -75 l 234 -75 q 234 -30 209 -8 q 184 13 146 13 z m 146 -383 l 146 -383 q 106 -383 81 -404 q 55 -426 55 -470 l 55 -470 q 55 -517 80 -537 q 105 -558 146 -558 l 146 -558 q 185 -558 210 -537 q 234 -517 234 -470 l 234 -470 q 234 -426 209 -404 q 184 -383 146 -383 z"},";":{"ha":292,"x_min":33,"x_max":235,"o":"m 78 -130 l 226 -130 l 232 -119 q 224 -77 211 -32 q 198 12 184 55 q 169 97 153 134 l 153 134 l 33 134 q 43 93 52 46 q 60 -1 67 -47 q 74 -93 78 -130 l 78 -130 z m 146 -383 l 146 -383 q 107 -383 82 -404 q 56 -426 56 -470 l 56 -470 q 56 -517 81 -537 q 106 -558 146 -558 l 146 -558 q 185 -558 210 -537 q 235 -517 235 -470 l 235 -470 q 235 -426 210 -404 q 185 -383 146 -383 z"},"<":{"ha":539,"x_min":38,"x_max":500,"o":"m 500 -233 l 500 -103 l 38 -313 l 38 -391 l 500 -619 l 500 -490 l 206 -355 l 500 -233 z"},"=":{"ha":539,"x_min":37,"x_max":501,"o":"m 501 -187 l 37 -187 l 37 -304 l 501 -304 l 501 -187 z m 501 -401 l 37 -401 l 37 -518 l 501 -518 l 501 -401 z"},">":{"ha":539,"x_min":38,"x_max":501,"o":"m 501 -313 l 38 -103 l 38 -232 l 332 -356 l 38 -489 l 38 -619 l 501 -391 l 501 -313 z"},"?":{"ha":462,"x_min":34,"x_max":439,"o":"m 235 -724 l 235 -724 q 337 -724 388 -675 q 439 -626 439 -549 l 439 -549 q 439 -508 429 -477 q 419 -447 397 -419 q 374 -392 339 -360 l 339 -360 q 315 -338 302 -322 q 288 -307 283 -294 q 278 -281 278 -267 l 278 -267 l 278 -244 l 143 -244 l 143 -277 q 143 -308 151 -334 q 158 -360 176 -383 q 194 -406 223 -430 l 223 -430 q 249 -451 263 -467 q 277 -484 282 -499 q 287 -515 287 -534 l 287 -534 q 287 -563 267 -578 q 246 -593 212 -593 l 212 -593 q 181 -593 150 -583 q 119 -574 88 -558 l 88 -558 l 34 -673 q 83 -698 130 -711 q 176 -724 235 -724 z m 215 13 l 215 13 q 175 13 150 -8 q 124 -30 124 -75 l 124 -75 q 124 -121 150 -142 q 175 -163 215 -163 l 215 -163 q 253 -163 278 -142 q 303 -121 303 -75 l 303 -75 q 303 -30 278 -8 q 253 13 215 13 z"},"[":{"ha":348,"x_min":67,"x_max":313,"o":"m 313 244 l 67 244 l 67 -800 l 313 -800 l 313 -687 l 205 -687 l 205 131 l 313 131 l 313 244 z"},"\\":{"ha":437,"x_min":17,"x_max":421,"o":"m 421 244 l 282 244 l 17 -800 l 156 -800 l 421 244 z"},"]":{"ha":348,"x_min":36,"x_max":281,"o":"m 281 244 l 36 244 l 36 131 l 144 131 l 144 -687 l 36 -687 l 36 -800 l 281 -800 l 281 244 z"},"^":{"ha":568,"x_min":20,"x_max":548,"o":"m 149 -272 l 20 -272 l 235 -716 l 311 -716 l 548 -272 l 418 -272 l 276 -541 l 149 -272 z"},"_":{"ha":400,"x_min":-2,"x_max":402,"o":"m 402 160 l -2 160 l -2 90 l 402 90 l 402 160 z"},"{":{"ha":404,"x_min":24,"x_max":368,"o":"m 368 123 l 368 244 q 276 244 228 225 q 179 205 162 168 q 144 131 144 79 l 144 79 l 144 -130 q 144 -176 115 -194 q 86 -213 24 -214 l 24 -214 l 24 -344 q 86 -346 115 -364 q 144 -382 144 -428 l 144 -428 l 144 -635 q 144 -687 162 -724 q 179 -761 228 -780 q 276 -800 368 -800 l 368 -800 l 368 -679 q 322 -679 304 -661 q 285 -644 285 -606 l 285 -606 l 285 -396 q 285 -346 256 -318 q 227 -291 171 -282 l 171 -282 l 171 -276 q 227 -268 256 -240 q 285 -213 285 -163 l 285 -163 l 285 50 q 285 76 293 92 q 301 108 320 116 q 338 123 368 123 l 368 123 z"},"|":{"ha":551,"x_min":216,"x_max":335,"o":"m 335 244 l 216 244 l 216 -800 l 335 -800 l 335 244 z"},"}":{"ha":404,"x_min":36,"x_max":379,"o":"m 36 -679 l 36 -800 q 129 -800 177 -780 q 225 -761 243 -724 q 260 -687 260 -635 l 260 -635 l 260 -428 q 260 -382 289 -363 q 318 -345 379 -344 l 379 -344 l 379 -214 q 318 -212 289 -193 q 260 -175 260 -130 l 260 -130 l 260 79 q 260 131 242 168 q 224 205 177 225 q 129 244 36 244 l 36 244 l 36 123 q 82 123 100 106 q 118 88 118 50 l 118 50 l 118 -163 q 118 -213 148 -240 q 177 -268 233 -276 l 233 -276 l 233 -282 q 177 -290 148 -317 q 118 -345 118 -395 l 118 -395 l 118 -607 q 118 -632 111 -648 q 103 -664 85 -671 q 67 -679 36 -679 l 36 -679 z"},"~":{"ha":539,"x_min":38,"x_max":501,"o":"m 252 -296 l 252 -296 q 217 -312 194 -317 q 171 -323 150 -323 l 150 -323 q 120 -323 92 -306 q 63 -290 38 -264 l 38 -264 l 38 -387 q 62 -413 92 -426 q 121 -440 158 -440 l 158 -440 q 187 -440 216 -433 q 245 -427 286 -409 l 286 -409 q 319 -394 344 -388 q 369 -382 391 -382 l 391 -382 q 418 -382 447 -399 q 476 -416 501 -441 l 501 -441 l 501 -318 q 476 -292 447 -278 q 417 -265 380 -265 l 380 -265 q 351 -265 323 -272 q 294 -279 252 -296 z"}," ":{"ha":277,"x_min":0,"x_max":0,"o":""},"­":{"ha":330,"x_min":33,"x_max":297,"o":"m 297 -202 l 33 -202 l 33 -335 l 297 -335 l 297 -202 z"},"–":{"ha":500,"x_min":39,"x_max":461,"o":"m 461 -206 l 39 -206 l 39 -332 l 461 -332 l 461 -206 z"},"—":{"ha":1000,"x_min":39,"x_max":961,"o":"m 961 -206 l 39 -206 l 39 -332 l 961 -332 l 961 -206 z"},"‘":{"ha":276,"x_min":39,"x_max":238,"o":"m 193 -536 l 45 -536 l 39 -547 q 48 -589 61 -633 q 73 -678 88 -721 q 103 -764 118 -800 l 118 -800 l 238 -800 q 229 -759 221 -711 q 212 -664 205 -618 q 197 -573 193 -536 l 193 -536 z"},"’":{"ha":276,"x_min":39,"x_max":238,"o":"m 84 -800 l 231 -800 l 238 -789 q 229 -748 217 -703 q 204 -659 190 -616 q 175 -574 159 -536 l 159 -536 l 39 -536 q 45 -566 52 -601 q 59 -636 65 -671 q 71 -707 76 -740 q 81 -774 84 -800 l 84 -800 z"},"“":{"ha":507,"x_min":39,"x_max":468,"o":"m 424 -537 l 276 -537 l 270 -547 q 279 -590 292 -634 q 304 -678 319 -721 q 334 -764 349 -800 l 349 -800 l 468 -800 q 460 -758 451 -711 q 442 -665 435 -620 q 428 -575 424 -537 l 424 -537 z m 193 -537 l 45 -537 l 39 -547 q 48 -590 61 -634 q 73 -678 88 -721 q 103 -764 118 -800 l 118 -800 l 238 -800 q 229 -759 220 -712 q 211 -665 204 -619 q 197 -574 193 -537 l 193 -537 z"},"”":{"ha":507,"x_min":39,"x_max":468,"o":"m 315 -800 l 462 -800 l 468 -790 q 460 -748 448 -703 q 435 -659 420 -616 q 405 -574 389 -537 l 389 -537 l 270 -537 q 279 -580 288 -626 q 296 -672 304 -716 q 311 -761 315 -800 l 315 -800 z m 84 -800 l 231 -800 l 238 -790 q 229 -748 217 -703 q 204 -659 190 -616 q 175 -574 159 -537 l 159 -537 l 39 -537 q 45 -566 52 -601 q 59 -636 65 -671 q 71 -707 76 -740 q 81 -774 84 -800 l 84 -800 z"},"…":{"ha":848,"x_min":55,"x_max":793,"o":"m 145 13 l 145 13 q 106 13 81 -8 q 55 -30 55 -75 l 55 -75 q 55 -121 80 -142 q 105 -163 145 -163 l 145 -163 q 184 -163 209 -142 q 234 -121 234 -75 l 234 -75 q 234 -30 209 -8 q 184 13 145 13 z m 425 13 l 425 13 q 386 13 360 -8 q 334 -30 334 -75 l 334 -75 q 334 -121 360 -142 q 385 -163 425 -163 l 425 -163 q 464 -163 489 -142 q 513 -121 513 -75 l 513 -75 q 513 -30 488 -8 q 463 13 425 13 z m 705 13 l 705 13 q 666 13 640 -8 q 614 -30 614 -75 l 614 -75 q 614 -121 640 -142 q 665 -163 705 -163 l 705 -163 q 744 -163 769 -142 q 793 -121 793 -75 l 793 -75 q 793 -30 768 -8 q 743 13 705 13 z"},"×":{"ha":539,"x_min":49,"x_max":489,"o":"m 268 -435 l 407 -572 l 489 -491 l 349 -353 l 488 -214 l 407 -133 l 268 -271 l 130 -133 l 49 -215 l 186 -353 l 49 -490 l 130 -572 l 268 -435 z"},"÷":{"ha":539,"x_min":38,"x_max":500,"o":"m 500 -294 l 38 -294 l 38 -411 l 500 -411 l 500 -294 z m 269 -91 l 269 -91 q 238 -91 218 -110 q 197 -130 197 -170 l 197 -170 q 197 -212 217 -230 q 237 -249 269 -249 l 269 -249 q 300 -249 321 -230 q 341 -212 341 -170 l 341 -170 q 341 -130 320 -110 q 299 -91 269 -91 z m 269 -456 l 269 -456 q 238 -456 218 -475 q 197 -494 197 -535 l 197 -535 q 197 -577 217 -595 q 237 -614 269 -614 l 269 -614 q 300 -614 321 -595 q 341 -577 341 -535 l 341 -535 q 341 -495 320 -475 q 299 -456 269 -456 z"},"−":{"ha":539,"x_min":38,"x_max":500,"o":"m 500 -294 l 38 -294 l 38 -411 l 500 -411 l 500 -294 z"},"₹":{"ha":539,"x_min":48,"x_max":495,"o":"m 389 0 l 208 0 l 49 -247 l 68 -352 l 95 -352 q 135 -352 155 -359 q 175 -366 187 -379 l 187 -379 q 202 -396 208 -419 q 214 -443 214 -479 l 214 -479 q 214 -517 207 -541 q 200 -566 183 -581 l 183 -581 q 172 -592 154 -597 q 136 -602 105 -602 l 105 -602 l 48 -602 l 48 -714 l 495 -714 l 495 -602 l 314 -602 q 334 -585 349 -553 q 363 -521 363 -475 l 363 -475 q 363 -411 345 -367 q 327 -324 290 -296 q 253 -269 194 -255 l 194 -255 l 195 -275 l 389 0 z m 495 -422 l 48 -422 l 48 -536 l 495 -536 l 495 -422 z"},"꠰":{"ha":282,"x_min":63,"x_max":219,"o":"m 63 0 l 63 -565 l 219 -565 l 219 0 l 63 0 z"},"꠱":{"ha":498,"x_min":63,"x_max":436,"o":"m 63 0 l 63 -565 l 217 -565 l 217 0 l 63 0 z m 281 0 l 281 -565 l 436 -565 l 436 0 l 281 0 z"},"꠲":{"ha":715,"x_min":63,"x_max":653,"o":"m 63 0 l 63 -565 l 217 -565 l 217 0 l 63 0 z m 281 0 l 281 -565 l 435 -565 l 435 0 l 281 0 z m 498 0 l 498 -565 l 653 -565 l 653 0 l 498 0 z"},"॑":{"ha":0,"x_min":-331,"x_max":-226,"o":"m -331 -651 l -331 -864 l -226 -864 l -226 -651 l -331 -651 z"},"॒":{"ha":0,"x_min":-512,"x_max":-46,"o":"m -46 91 l -46 187 l -512 187 l -512 91 l -46 91 z"},"।":{"ha":364,"x_min":136,"x_max":296,"o":"m 296 49 l 136 49 l 136 -606 l 296 -606 l 296 49 z"},"॥":{"ha":642,"x_min":136,"x_max":574,"o":"m 574 49 l 415 49 l 415 -606 l 574 -606 l 574 49 z m 296 49 l 136 49 l 136 -606 l 296 -606 l 296 49 z"},"᳚":{"ha":0,"x_min":-395,"x_max":-162,"o":"m -395 -651 l -395 -864 l -302 -864 l -302 -651 l -395 -651 z m -254 -651 l -254 -864 l -162 -864 l -162 -651 l -254 -651 z"},"̇":{"ha":0,"x_min":-341,"x_max":-176,"o":"m -341 -701 l -341 -701 q -341 -745 -317 -761 q -293 -778 -259 -778 l -259 -778 q -225 -778 -200 -761 q -176 -745 -176 -701 l -176 -701 q -176 -656 -200 -640 q -225 -624 -259 -624 l -259 -624 q -293 -624 -317 -640 q -341 -656 -341 -701 z"},"̣":{"ha":0,"x_min":-342,"x_max":-177,"o":"m -342 136 l -342 136 q -342 91 -317 75 q -293 59 -259 59 l -259 59 q -225 59 -201 75 q -177 91 -177 136 l -177 136 q -177 180 -201 197 q -225 213 -259 213 l -259 213 q -293 213 -317 197 q -342 180 -342 136 z"},"‐":{"ha":330,"x_min":33,"x_max":297,"o":"m 297 -202 l 33 -202 l 33 -335 l 297 -335 l 297 -202 z"},"​":{"ha":0,"x_min":0,"x_max":0,"o":""},"‌":{"ha":0,"x_min":0,"x_max":0,"o":""},"‍":{"ha":0,"x_min":-161,"x_max":161,"o":"m 29 244 l -29 244 l -29 -565 l -121 -474 l -161 -514 l -40 -631 l -161 -748 l -121 -788 l 0 -669 l 121 -788 l 161 -748 l 40 -631 l 161 -514 l 121 -474 l 29 -565 l 29 244 z"},"◌":{"ha":562,"x_min":57,"x_max":504,"o":"m 89 -231 l 89 -231 q 57 -231 57 -264 l 57 -264 q 57 -295 89 -295 l 89 -295 q 121 -295 121 -264 l 121 -264 q 121 -231 89 -231 z m 138 -95 l 138 -95 q 106 -95 106 -127 l 106 -127 q 106 -158 138 -158 l 138 -158 q 169 -158 169 -127 l 169 -127 q 169 -95 138 -95 z m 281 -40 l 281 -40 q 249 -40 249 -72 l 249 -72 q 249 -104 281 -104 l 281 -104 q 312 -104 312 -72 l 312 -72 q 312 -40 281 -40 z m 138 -369 l 138 -369 q 106 -369 106 -401 l 106 -401 q 106 -432 138 -432 l 138 -432 q 169 -432 169 -401 l 169 -401 q 169 -369 138 -369 z m 423 -95 l 423 -95 q 391 -95 391 -127 l 391 -127 q 391 -158 423 -158 l 423 -158 q 455 -158 455 -127 l 455 -127 q 455 -95 423 -95 z m 281 -424 l 281 -424 q 249 -424 249 -456 l 249 -456 q 249 -487 281 -487 l 281 -487 q 312 -487 312 -456 l 312 -456 q 312 -424 281 -424 z m 472 -231 l 472 -231 q 441 -231 441 -264 l 441 -264 q 441 -295 472 -295 l 472 -295 q 504 -295 504 -264 l 504 -264 q 504 -231 472 -231 z m 423 -369 l 423 -369 q 391 -369 391 -401 l 391 -401 q 391 -432 423 -432 l 423 -432 q 455 -432 455 -401 l 455 -401 q 455 -369 423 -369 z"},"«":{"ha":607,"x_min":34,"x_max":571,"o":"m 34 -270 l 34 -283 l 207 -510 l 321 -449 l 199 -277 l 321 -105 l 207 -44 l 34 -270 z m 284 -270 l 284 -283 l 456 -510 l 571 -449 l 449 -277 l 571 -105 l 456 -44 l 284 -270 z"},"»":{"ha":607,"x_min":35,"x_max":573,"o":"m 573 -283 l 573 -270 l 400 -44 l 285 -105 l 408 -277 l 285 -449 l 400 -510 l 573 -283 z m 323 -283 l 323 -270 l 150 -44 l 35 -105 l 158 -277 l 35 -449 l 150 -510 l 323 -283 z"},"̈":{"ha":0,"x_min":-172,"x_max":173,"o":"m -172 -687 l -172 -687 q -172 -723 -151 -740 q -131 -758 -101 -758 l -101 -758 q -71 -758 -50 -740 q -29 -723 -29 -687 l -29 -687 q -29 -652 -50 -634 q -71 -617 -101 -617 l -101 -617 q -131 -617 -151 -634 q -172 -652 -172 -687 z m 28 -687 l 28 -687 q 28 -723 49 -740 q 69 -758 100 -758 l 100 -758 q 131 -758 152 -740 q 173 -723 173 -687 l 173 -687 q 173 -652 152 -634 q 131 -617 100 -617 l 100 -617 q 69 -617 49 -634 q 28 -652 28 -687 z"},"̀":{"ha":0,"x_min":-493,"x_max":-209,"o":"m -493 -766 l -315 -766 q -301 -745 -282 -717 q -263 -689 -243 -663 q -223 -637 -209 -619 l -209 -619 l -209 -606 l -318 -606 q -335 -618 -359 -638 q -383 -658 -409 -680 q -435 -702 -457 -722 q -479 -743 -493 -756 l -493 -756 l -493 -766 z"},"́":{"ha":0,"x_min":-346,"x_max":-62,"o":"m -62 -766 l -62 -756 q -75 -742 -97 -722 q -119 -703 -144 -681 q -169 -660 -193 -640 q -218 -620 -237 -606 l -237 -606 l -346 -606 l -346 -619 q -330 -641 -310 -666 q -290 -692 -271 -718 q -253 -744 -240 -766 l -240 -766 l -62 -766 z"},"̋":{"ha":0,"x_min":-151,"x_max":281,"o":"m 281 -766 l 281 -756 q 274 -743 256 -723 q 237 -703 213 -681 q 189 -659 166 -639 q 142 -620 124 -606 l 124 -606 l 41 -606 l 41 -619 q 56 -644 73 -670 q 90 -697 105 -722 q 120 -748 129 -766 l 129 -766 l 281 -766 z m 89 -766 l 89 -756 q 81 -742 63 -722 q 45 -703 21 -681 q -3 -660 -27 -640 q -51 -621 -70 -606 l -70 -606 l -151 -606 l -151 -619 q -136 -644 -119 -670 q -103 -697 -88 -722 q -73 -747 -63 -766 l -63 -766 l 89 -766 z"},"̄":{"ha":0,"x_min":-161,"x_max":161,"o":"m -161 -719 l 160 -719 l 160 -611 l -161 -611 l -161 -719 z"},"˙":{"ha":251,"x_min":40,"x_max":211,"o":"m 126 -768 l 126 -768 q 164 -768 188 -750 q 211 -732 211 -689 l 211 -689 q 211 -646 187 -628 q 163 -611 126 -611 l 126 -611 q 88 -611 64 -628 q 40 -646 40 -689 l 40 -689 q 40 -733 64 -750 q 87 -768 126 -768 z"},"°":{"ha":402,"x_min":31,"x_max":370,"o":"m 201 -395 l 201 -395 q 152 -395 114 -416 q 75 -437 53 -474 q 31 -511 31 -559 l 31 -559 q 31 -607 53 -644 q 75 -681 114 -702 q 152 -724 201 -724 l 201 -724 q 251 -724 289 -703 q 327 -682 349 -645 q 370 -608 370 -559 l 370 -559 q 370 -511 349 -473 q 327 -436 289 -415 q 251 -395 201 -395 z m 201 -491 l 201 -491 q 231 -491 250 -509 q 269 -528 269 -559 l 269 -559 q 269 -591 250 -609 q 231 -628 201 -628 l 201 -628 q 172 -628 153 -609 q 133 -591 133 -559 l 133 -559 q 133 -528 153 -509 q 172 -491 201 -491 z"},"A":{"ha":648,"x_min":0,"x_max":648,"o":"m 648 0 l 472 0 l 432 -155 l 217 -155 l 177 0 l 0 0 l 218 -716 l 428 -716 l 648 0 z m 400 -293 l 360 -450 q 355 -471 348 -498 q 341 -525 335 -552 q 329 -580 324 -601 l 324 -601 q 321 -581 314 -552 q 307 -524 301 -496 q 294 -469 289 -451 l 289 -451 l 250 -293 l 400 -293 z"},"Á":{"ha":648,"x_min":0,"x_max":648,"o":"m 648 0 l 472 0 l 432 -155 l 217 -155 l 177 0 l 0 0 l 218 -716 l 428 -716 l 648 0 z m 400 -293 l 360 -450 q 355 -471 348 -498 q 341 -525 335 -552 q 329 -580 324 -601 l 324 -601 q 321 -581 314 -552 q 307 -524 301 -496 q 294 -469 289 -451 l 289 -451 l 250 -293 l 400 -293 z m 524 -931 l 524 -921 q 511 -907 489 -887 q 467 -868 442 -846 q 417 -825 393 -805 q 368 -785 349 -771 l 349 -771 l 240 -771 l 240 -784 q 256 -806 276 -831 q 296 -857 315 -883 q 333 -909 346 -931 l 346 -931 l 524 -931 z"},"Ă":{"ha":648,"x_min":0,"x_max":648,"o":"m 648 0 l 472 0 l 432 -155 l 217 -155 l 177 0 l 0 0 l 218 -716 l 428 -716 l 648 0 z m 400 -293 l 360 -450 q 355 -471 348 -498 q 341 -525 335 -552 q 329 -580 324 -601 l 324 -601 q 321 -581 314 -552 q 307 -524 301 -496 q 294 -469 289 -451 l 289 -451 l 250 -293 l 400 -293 z m 413 -943 l 505 -943 q 503 -892 479 -853 q 455 -814 415 -792 q 375 -771 322 -771 l 322 -771 q 241 -771 194 -816 q 146 -862 143 -943 l 143 -943 l 233 -943 q 236 -917 248 -903 q 259 -889 279 -884 q 298 -879 323 -879 l 323 -879 q 345 -879 364 -884 q 383 -890 397 -904 q 410 -918 413 -943 l 413 -943 z"}}}
